<?xml version="1.0" standalone="no"?>
<!DOCTYPE svg PUBLIC "-//W3C//DTD SVG 1.1//EN" "http://www.w3.org/Graphics/SVG/1.1/DTD/svg11.dtd" >
<svg>
<metadata>
Created by FontForge 20090622 at Mon Aug 10 06:09:50 2020
 By deploy user
Copyright 2015 The Cormorant Project Authors (github.com/CatharsisFonts/Cormorant)
</metadata>
<defs>
<font id="Cormorant-SemiBold" horiz-adv-x="605" >
  <font-face 
    font-family="Cormorant SemiBold"
    font-weight="600"
    font-stretch="normal"
    units-per-em="1000"
    panose-1="0 0 7 0 0 0 0 0 0 0"
    ascent="800"
    descent="-200"
    x-height="386"
    cap-height="625"
    bbox="-365.5 -282.167 1452 932.69"
    underline-thickness="50"
    underline-position="-50"
    unicode-range="U+0020-U+A78C"
  />
<missing-glyph horiz-adv-x="501" 
d="M94 -275v1000h317v-1000h-317zM168 626h65v-38h-66v-32h166v32h-66v38h66v32h-165v-32zM167 426h166v34h-66v69h-100v-103zM200 460v35h33v-35h-33zM167 365h66v-36h-66v-34h100v70h66v33h-166v-33zM301 273h-134v-34h166v99h-32v-65zM233 160h34v24h34v-48h-101v80h-33
v-113h166v113h-100v-56zM167 -70h166v113h-166v-113zM200 -37v48h101v-48h-101zM167 -126h70l-70 -47v-33h166v33h-101l69 47h32v34h-166v-34z" />
    <glyph glyph-name="Aogonek_acutecomb.liga" unicode="&#x104;&#x301;" horiz-adv-x="712" 
d="M256 679q-4 -2 -6 3t1 7q31 19 78 55.5t60 45.5q10 7 66 -16q27 -11 26 -16q0 -1 -3 -2q-108 -27 -222 -77zM711 9q5 0 5 -5.5t-5 -5.5q-23 0 -57 1.5t-50 1.5q-51 0 -80.5 -32.5t-29.5 -88.5q0 -53 25.5 -85t67.5 -32q25 0 47 12q2 2 5.5 -2t1.5 -6q-49 -42 -109 -42
q-56 0 -88 29.5t-32 78.5q0 33 17 61.5t38 45.5t40 40.5t23 46.5t-14 64l-109 219h-180l-77 -173q-24 -61 -1.5 -93t83.5 -32q4 0 4 -6t-4 -6q-19 0 -55 2t-63 2q-26 0 -60.5 -2t-55.5 -2q-4 0 -4 6t4 6q41 0 66.5 27t60.5 108l215 484q2 3 9 3t8 -3l245 -495
q33 -69 57.5 -98t51.5 -29zM238 335h157l-83 166z" />
    <glyph glyph-name="Eogonek_acutecomb.liga" unicode="&#x118;&#x301;" horiz-adv-x="547" 
d="M177 679q-4 -2 -6 3t1 7q31 19 78 55.5t60 45.5q10 7 66 -16q27 -11 26 -16q0 -1 -3 -2q-108 -27 -222 -77zM501 -222q2 1 4.5 -0.5t3.5 -3.5t-1 -4q-53 -45 -111 -45q-51 0 -83.5 30t-32.5 76q0 82 118 169h-357q-3 0 -3 6t3 6q49 0 62.5 12.5t13.5 56.5v463
q0 43 -14 56t-62 13q-3 0 -3 6t3 6h416q10 0 10 -9l2 -130q0 -2 -5 -3t-7 2q-24 114 -139 114h-40q-36 0 -51 -13t-15 -44v-204h96q110 0 110 74q0 3 5.5 3t5.5 -3q0 -24 -0.5 -50t-0.5 -37q0 -16 1.5 -48t1.5 -51q0 -2 -6 -2t-6 2q0 86 -112 86h-95v-227q0 -33 12.5 -46
t44.5 -13h49q134 0 170 130q1 3 6.5 1.5t5.5 -3.5q-10 -76 -10 -139q0 -15 -15 -15h-57q-34 -33 -49 -61.5t-15 -64.5q0 -50 25.5 -80.5t70.5 -30.5q29 0 50 15z" />
    <glyph glyph-name="IJ_acutecomb.liga" unicode="&#x132;&#x301;" horiz-adv-x="696" 
d="M70 679q-4 -2 -6 3t1 7q31 19 78 55.5t60 45.5q10 7 66 -16q27 -11 26 -16q0 -1 -3 -2q-108 -27 -222 -77zM444 679q-4 -2 -6 3t1 7q31 19 78 55.5t60 45.5q10 7 66 -16q27 -11 26 -16q0 -1 -3 -2q-108 -27 -222 -77zM212 350q0 -44 13.5 -56.5t63.5 -12.5q2 0 2 -6
t-2 -6q-16 0 -57.5 1t-68.5 1q-24 0 -66 -1t-58 -1q-2 0 -2 6t2 6q49 0 63 12.5t14 56.5v194q0 43 -14.5 56t-62.5 13q-2 0 -2 6t2 6q16 0 58 -1.5t66 -1.5q27 0 69.5 1.5t56.5 1.5q2 0 2 -6t-2 -6q-49 0 -63 -13.5t-14 -57.5v-192zM665 625q3 0 3 -6t-3 -6q-40 0 -52 -13.5
t-12 -57.5v-284q0 -129 -70 -200t-187 -71q-98 0 -167.5 45t-69.5 100q0 22 13.5 36.5t39.5 14.5q27 0 39.5 -18t17.5 -44.5t13.5 -52.5t36 -44t76.5 -18q161 0 161 194v344q0 43 -16 56t-72 13q-3 0 -3 6t3 6q19 0 64 -1.5t71 -1.5q25 0 63 1.5t51 1.5z" />
    <glyph glyph-name="Iogonek_acutecomb.liga" unicode="&#x12e;&#x301;" horiz-adv-x="339" 
d="M205 790q10 7 66 -16q27 -11 26 -16q0 -1 -3 -2q-108 -27 -222 -77q-4 -2 -6 3t1 7q31 19 78 55.5t60 45.5zM293 613q-48 0 -61.5 -13.5t-13.5 -57.5v-461q0 -44 13 -56.5t62 -12.5q3 0 3 -6t-3 -6q-14 0 -53 1t-64 1q-28 -50 -28 -109q0 -54 24.5 -90.5t60.5 -36.5
q20 0 38 12q2 1 4.5 -0.5t3.5 -3.5t-1 -4q-45 -45 -101 -45q-48 0 -75.5 28t-27.5 76q0 83 85 173q-23 0 -61.5 -1t-53.5 -1q-3 0 -3 6t3 6q49 0 63 12.5t14 56.5v463q0 43 -14.5 56t-62.5 13q-3 0 -3 6t3 6q15 0 57 -1.5t67 -1.5q27 0 69 1.5t56 1.5q3 0 3 -6t-3 -6z" />
    <glyph glyph-name="J_acutecomb.liga" unicode="J&#x301;" horiz-adv-x="330" 
d="M71 678q-4 -1 -6 4t1 7l47 32t50 37.5l41 31.5q10 7 66 -16q27 -11 26 -16q0 -1 -3 -2q-118 -30 -222 -78zM224 67q0 -142 -39.5 -208t-147.5 -109q-3 -1 -5.5 4t-0.5 7q54 33 75 100.5t21 178.5v504q0 43 -14.5 56t-62.5 13q-2 0 -2 6t2 6q17 0 58.5 -1.5t65.5 -1.5
t62 1.5t52 1.5q2 0 2 -6t-2 -6q-41 0 -52.5 -13.5t-11.5 -57.5v-475z" />
    <glyph glyph-name="uni01EA0301.liga" unicode="&#x1ea;&#x301;" horiz-adv-x="766" 
d="M287 679q-4 -2 -6 3t1 7q31 19 78 55.5t60 45.5q10 7 66 -16q27 -11 26 -16q0 -1 -3 -2q-108 -27 -222 -77zM440 -4q-59 -58 -59 -122q0 -50 25.5 -80.5t70.5 -30.5q29 0 50 15q2 1 4.5 -0.5t3.5 -3.5t-1 -4q-53 -45 -111 -45q-51 0 -83.5 30t-32.5 76q0 76 106 160
q-24 -3 -47 -3q-141 0 -229 94t-88 230q0 78 32 141.5t83.5 102.5t112.5 59.5t124 20.5q142 0 229 -95t87 -222q0 -119 -79 -209t-198 -114zM156 348q0 -145 69 -240.5t175 -95.5q92 0 151 73.5t59 204.5q0 141 -68 230.5t-182 89.5q-97 0 -150.5 -69.5t-53.5 -192.5z" />
    <glyph glyph-name="aogonek_acutecomb.liga" unicode="&#x105;&#x301;" horiz-adv-x="420" 
d="M210 474q0 -2 -3 -2t-5.5 1.5t-2.5 2.5l39 240q4 9 60 14q29 3 26 -3zM416 54q5 2 6.5 -3.5t-2.5 -7.5l-103 -49q-1 -1 -2 -1q-2 -1 -3 -1q-56 -56 -56 -118q0 -50 25.5 -80.5t70.5 -30.5q29 0 50 15q2 1 4.5 -0.5t3.5 -3.5t-1 -4q-53 -45 -111 -45q-51 0 -83.5 30
t-32.5 76q0 80 112 165q-24 15 -31 55l-52 -28q-58 -30 -99 -30q-32 0 -49.5 16.5t-17.5 45.5q0 31 22 46.5t84 36.5l109 37v80q0 118 -56 118q-54 0 -62 -79q-5 -50 -51 -50q-43 0 -43 37q0 39 68 76.5t125 37.5q45 0 72.5 -27.5t27.5 -82.5v-177q0 -63 39 -63q15 0 36 9z
M231 51l30 16q-1 4 -1 15v77l-71 -26q-48 -18 -48 -50q0 -21 12 -33t31 -12q21 0 47 13z" />
    <glyph glyph-name="eogonek_acutecomb.liga" unicode="&#x119;&#x301;" horiz-adv-x="415" 
d="M205 474q0 -2 -3 -2t-5.5 1.5t-2.5 2.5l39 240q4 9 60 14q29 3 26 -3zM378 -222q2 1 4.5 -0.5t3.5 -3.5t-1 -4q-46 -45 -101 -45q-52 0 -81.5 26t-29.5 69q0 86 117 176q-25 -8 -59 -8q-92 0 -145 56.5t-53 136.5q0 90 64.5 152t159.5 62q59 0 91 -26.5t32 -72.5
q0 -27 -11 -27h-55l-188 -2q-3 -21 -3 -45q0 -87 40.5 -138.5t112.5 -51.5q57 0 102 30q4 4 7 -4q1 -3 0 -5q-20 -18 -36 -29q-94 -84 -94 -172q0 -91 73 -91q27 0 50 17zM221 375q-33 0 -57 -24t-34 -66l156 3q-3 87 -65 87z" />
    <glyph glyph-name="ij_acutecomb.liga" unicode="&#x133;&#x301;" horiz-adv-x="530" 
d="M134 474q0 -2 -3 -2t-5.5 1.5t-2.5 2.5l39 240q4 9 60 14q29 3 26 -3zM398 474q0 -2 -3 -2t-5.5 1.5t-2.5 2.5l39 240q4 9 60 14q29 3 26 -3zM44 0q-3 0 -3 6t3 6q34 0 45 14t11 55v182q0 65 -31 65q-15 0 -39 -12q-3 -1 -5 1.5t-2.5 6t1.5 4.5l144 67q2 1 3 1
q4 0 8.5 -4.5t4.5 -7.5q0 -1 -1 -40t-1 -80v-183q0 -41 11.5 -55t45.5 -14q3 0 3 -6t-3 -6q-11 0 -44 1t-54 1q-20 0 -53 -1t-44 -1zM450 384q0 -1 -1 -40t-1 -80v-312q0 -100 -36 -151.5t-130 -82.5q-2 -1 -4.5 4.5t0.5 6.5q48 21 68 67t20 133v334q0 35 -6.5 50t-22.5 15
t-40 -12q-3 -1 -5.5 1.5t-3 6t1.5 4.5l144 67q2 1 3 1q4 0 8.5 -4.5t4.5 -7.5z" />
    <glyph glyph-name="iogonek_acutecomb.liga" unicode="&#x12f;&#x301;" horiz-adv-x="266" 
d="M134 474q0 -2 -3 -2t-5.5 1.5t-2.5 2.5l39 240q4 9 60 14q29 3 26 -3zM244 -218q2 1 4.5 -0.5t3.5 -3.5t-1 -4q-45 -45 -101 -45q-48 0 -75.5 28t-27.5 76q0 83 81 169q-17 0 -45.5 -1t-38.5 -1q-3 0 -3 6t3 6q34 0 45 14t11 55v182q0 65 -31 65q-15 0 -39 -12
q-3 -1 -5 1.5t-2.5 6t1.5 4.5l144 67q2 1 3 1q4 0 8.5 -4.5t4.5 -7.5q0 -1 -1 -40t-1 -80v-183q0 -41 11.5 -55t45.5 -14q3 0 3 -6t-3 -6q-11 0 -42 1t-50 1q-26 -51 -26 -105t24.5 -90.5t60.5 -36.5q20 0 38 12z" />
    <glyph glyph-name="j_acutecomb.liga" unicode="j&#x301;" horiz-adv-x="261" 
d="M129 474q0 -2 -3 -2t-5.5 1.5t-2.5 2.5l39 240q4 9 60 14q29 3 26 -3zM181 384q0 -1 -1 -40t-1 -80v-312q0 -100 -36 -151.5t-130 -82.5q-2 -1 -4.5 4.5t0.5 6.5q48 21 68 67t20 133v334q0 35 -6.5 50t-22.5 15t-40 -12q-3 -1 -5.5 1.5t-3 6t1.5 4.5l144 67q2 1 3 1
q4 0 8.5 -4.5t4.5 -7.5z" />
    <glyph glyph-name="uni01EB0301.liga" unicode="&#x1eb;&#x301;" horiz-adv-x="486" 
d="M241 474q0 -2 -3 -2t-5.5 1.5t-2.5 2.5l39 240q4 9 60 14q29 3 26 -3zM452 192q0 -79 -48.5 -133t-123.5 -68q-40 -65 -40 -137q0 -93 79 -93q31 0 57 17q2 1 4.5 -0.5t3.5 -3.5t-1 -4q-53 -45 -117 -45q-53 0 -80.5 25.5t-27.5 70.5q0 83 94 167q-6 -1 -17 -1
q-90 0 -146 61.5t-56 149.5q0 96 67 148.5t152 52.5q90 0 145 -62t55 -145zM128 233q0 -99 39 -162.5t98 -63.5q91 0 91 153q0 100 -40 159.5t-97 59.5q-91 0 -91 -146z" />
    <glyph glyph-name="T_T.liga" unicode="TT" horiz-adv-x="1156" 
d="M1107 650q1 4 6.5 4t5.5 -4q-9 -77 -9 -196q0 -3 -5 -3t-6 3q-14 79 -49 114.5t-100 35.5q-41 0 -52.5 -11t-11.5 -51v-461q0 -44 15.5 -56.5t72.5 -12.5q2 0 2 -6t-2 -6q-17 0 -62 1t-75 1q-28 0 -74 -1t-63 -1q-2 0 -2 6t2 6q56 0 73 13t17 56v463q0 38 -11.5 49
t-49.5 11q-78 0 -106.5 -29.5t-37.5 -120.5q0 -3 -6 -3t-6 3q-5 92 -33 121t-113 29q-33 0 -44.5 -12.5t-11.5 -49.5v-461q0 -44 14 -56.5t63 -12.5q2 0 2 -6t-2 -6q-15 0 -57 1t-69 1q-28 0 -73.5 -1t-62.5 -1q-3 0 -3 6t3 6q56 0 72.5 13t16.5 56v463q0 37 -12.5 48.5
t-51.5 11.5q-59 0 -97.5 -36t-63.5 -115q0 -1 -3 -2t-5.5 0t-2.5 3q17 102 17 193q0 5 6 5t6 -5q0 -22 53 -22q85 -3 201 -3q49 0 105.5 1.5t75.5 1.5q57 0 67 3.5t12 22.5q0 4 5.5 4t5.5 -4q-1 -19 5.5 -22t48.5 -4q81 -3 190 -3q52 0 112 1.5t81 1.5q37 0 54.5 5t22.5 20z
" />
    <glyph glyph-name="T_h.liga" unicode="Th" horiz-adv-x="1041" 
d="M1022 12q4 0 4 -6t-4 -6q-11 0 -44 1t-53 1q-21 0 -54 -1t-44 -1q-2 0 -2 6t2 6q34 0 45.5 14t11.5 55v149q0 110 -85 110q-55 0 -102 -45v-214q0 -41 11 -55t45 -14q4 0 4 -6t-4 -6q-11 0 -44 1t-53 1t-53 -1t-45 -1q-2 0 -2 6t2 6q34 0 45.5 14t11.5 55v507
q0 16 -18 16h-162q-41 0 -52.5 -11.5t-11.5 -50.5v-461q0 -44 15.5 -56.5t71.5 -12.5q3 0 3 -6t-3 -6q-16 0 -61.5 1t-75.5 1q-27 0 -73 -1t-63 -1q-2 0 -2 6t2 6q56 0 72.5 12.5t16.5 56.5v463q0 38 -11.5 49t-51.5 11q-119 0 -161 -151q0 -1 -3 -2t-5.5 0t-2.5 3
q14 126 14 193q0 5 5.5 5t5.5 -5q0 -22 56 -22q85 -3 201 -3q150 0 194 3q61 2 103.5 29.5t61.5 70.5q1 4 9 3t8 -5v-407q70 81 152 81q54 0 85.5 -33t31.5 -90v-193q0 -41 11 -55t45 -14z" />
    <glyph glyph-name="f_b.liga" unicode="fb" horiz-adv-x="827" 
d="M630 399q68 0 116 -48.5t48 -137.5q0 -106 -64.5 -166t-150.5 -60q-81 0 -142 46l-85 -39q-3 -1 -5 1t-2 4.5t2 3.5q27 16 39 39t12 61l1 526q-45 80 -110 80q-63 0 -90 -78q-26 -70 -26 -192v-62q52 1 116 9q7 0 7 -24q0 -6 -1.5 -12.5t-4 -10.5t-4.5 -3q-61 14 -113 15
v-270q0 -44 16.5 -56.5t75.5 -12.5q4 0 4 -6t-4 -6q-23 0 -67 1t-67 1q-20 0 -54.5 -1t-47.5 -1q-4 0 -4 6t4 6q39 0 51 13t12 56v225q0 33 -13 42t-54 9q-3 0 -3 8.5t3 8.5q37 0 50.5 9.5t14.5 34.5q6 152 52 224q55 84 174 84q87 0 137 -40q16 22 16 44q0 3 6 3t6 -3
l-1 -404q75 73 150 73zM603 6q49 0 75 44t26 126q0 88 -31.5 132.5t-84.5 44.5q-52 0 -108 -45v-205q46 -97 123 -97z" />
    <glyph glyph-name="f_f.liga" unicode="ff" horiz-adv-x="603" 
d="M617 726q55 0 86 -15.5t31 -41.5q0 -20 -13.5 -31.5t-31.5 -11.5q-20 0 -30.5 9t-19.5 28q-12 21 -24.5 31.5t-35.5 10.5q-50 0 -79 -65t-29 -201v-62q52 1 116 9q7 0 7 -24q0 -6 -1.5 -12.5t-4 -10.5t-4.5 -3q-61 14 -113 15v-270q0 -44 16.5 -56.5t75.5 -12.5q4 0 4 -6
t-4 -6q-23 0 -67 1t-67 1q-20 0 -54.5 -1t-47.5 -1q-4 0 -4 6t4 6q39 0 51 13t12 56v225v3l-1 -3q0 30 -11.5 37.5t-55.5 9.5q-33 2 -149 2v-274q0 -44 16.5 -56.5t75.5 -12.5q4 0 4 -6t-4 -6q-23 0 -67 1t-67 1q-20 0 -54.5 -1t-47.5 -1q-4 0 -4 6t4 6q39 0 51 13t12 56
v225q0 33 -13 42t-54 9q-3 0 -3 8.5t3 8.5q37 0 50.5 9.5t14.5 34.5q13 273 242 273q73 0 127 -26q54 61 158 61zM173 439v-63q108 0 149 1q36 1 49.5 7t15.5 24q0 2 1 4v6q5 119 34 188q-52 66 -122 66q-58 0 -92.5 -58t-34.5 -175z" />
    <glyph glyph-name="f_f_b.liga" unicode="ffb" horiz-adv-x="1125" 
d="M928 399q68 0 116 -48.5t48 -137.5q0 -106 -64.5 -166t-150.5 -60q-81 0 -142 46l-85 -39q-3 -1 -5 1t-2 4.5t2 3.5q51 31 51 100l1 526q-45 80 -110 80q-63 0 -90 -78q-26 -70 -26 -192v-62q52 1 116 9q7 0 7 -24q0 -6 -1.5 -12.5t-4 -10.5t-4.5 -3q-61 14 -113 15v-270
q0 -44 16.5 -56.5t75.5 -12.5q4 0 4 -6t-4 -6q-23 0 -67 1t-67 1q-20 0 -54.5 -1t-47.5 -1q-4 0 -4 6t4 6q39 0 51 13t12 56v225v3l-1 -3q0 30 -11.5 37.5t-55.5 9.5q-33 2 -149 2v-274q0 -44 16.5 -56.5t75.5 -12.5q4 0 4 -6t-4 -6q-23 0 -67 1t-67 1q-20 0 -54.5 -1
t-47.5 -1q-4 0 -4 6t4 6q39 0 51 13t12 56v225q0 33 -13 42t-54 9q-3 0 -3 8.5t3 8.5q37 0 50.5 9.5t14.5 34.5q13 273 242 273q70 0 126 -25q54 60 156 60q87 0 137 -40q16 22 16 44q0 3 6 3t6 -3l-1 -404q75 73 150 73zM173 439v-63q108 0 149 1q36 1 49.5 7t15.5 24
q0 2 1 4v6q4 118 34 189q-52 65 -122 65q-58 0 -92.5 -58t-34.5 -175zM901 6q49 0 75 44t26 126q0 88 -31.5 132.5t-84.5 44.5q-52 0 -108 -45v-205q46 -97 123 -97z" />
    <glyph glyph-name="f_f_f.liga" unicode="fff" horiz-adv-x="901" 
d="M829 726q55 0 86 -15.5t31 -41.5q0 -20 -13.5 -31.5t-31.5 -11.5q-20 0 -30.5 9t-19.5 28q-12 21 -24.5 31.5t-35.5 10.5q-29 0 -51 -22q20 -13 35 -28l-39 -73q-13 28 -28 48q-25 -67 -25 -191v-40q3 7 3 19l21 -40q60 4 92 8q7 0 7 -24q0 -6 -1.5 -12.5t-4 -10.5
t-4.5 -3q-44 11 -93 14l-16 -44q0 19 -4 28v-253q0 -44 16.5 -56.5t75.5 -12.5q4 0 4 -6t-4 -6q-23 0 -67 1t-67 1q-30 0 -76 -2h-1h-15h-10h-1q-74 2 -108 2q-21 0 -56 -1t-48 -1q-3 0 -3 6t3 6q40 0 51.5 12.5t11.5 56.5v225q0 11 -1 16q-2 18 -14.5 23.5t-51.5 7.5
q-33 2 -149 2v-274q0 -44 16.5 -56.5t75.5 -12.5q4 0 4 -6t-4 -6q-23 0 -67 1t-67 1q-20 0 -54.5 -1t-47.5 -1q-4 0 -4 6t4 6q39 0 51 13t12 56v225q0 33 -13 42t-54 9q-3 0 -3 8.5t3 8.5q37 0 50.5 9.5t14.5 34.5q13 273 242 273q84 0 140 -33q58 57 157 57q43 0 82 -17
q47 28 118 28zM598 695q-58 0 -92 -63.5t-34 -192.5v-63h95q32 7 33 42q6 175 72 249q-36 28 -74 28zM173 439v-63q108 0 149 1q55 1 63 22q3 7 3 16v3q4 110 40 180q-24 35 -58 54.5t-70 19.5q-58 0 -92.5 -58t-34.5 -175zM602 81v225q0 43 -29 48q-28 1 -101 1v-274
q0 -42 13.5 -55t63.5 -14q32 2 42.5 15.5t10.5 53.5z" />
    <glyph glyph-name="f_f_h.liga" unicode="ffh" horiz-adv-x="1123" 
d="M1104 12q3 0 3 -6t-3 -6q-12 0 -44.5 1t-52.5 1t-53 -1t-44 -1q-3 0 -3 6t3 6q33 0 44.5 14t11.5 55v149q0 110 -85 110q-57 0 -103 -46v-213q0 -41 11.5 -55t45.5 -14q3 0 3 -6t-3 -6q-12 0 -44.5 1t-52.5 1t-53 -1t-44 -1q-3 0 -3 6t3 6q33 0 44.5 14t11.5 55v548
q-45 80 -110 80q-116 0 -116 -270v-62q52 1 116 9q7 0 7 -24q0 -6 -1.5 -12.5t-4 -10.5t-4.5 -3q-61 14 -113 15v-270q0 -44 16.5 -56.5t75.5 -12.5q4 0 4 -6t-4 -6q-23 0 -67 1t-67 1q-20 0 -54.5 -1t-47.5 -1q-4 0 -4 6t4 6q39 0 51 13t12 56v225v3l-1 -3q0 30 -11.5 37.5
t-55.5 9.5q-33 2 -149 2v-274q0 -44 16.5 -56.5t75.5 -12.5q4 0 4 -6t-4 -6q-23 0 -67 1t-67 1q-20 0 -54.5 -1t-47.5 -1q-4 0 -4 6t4 6q39 0 51 13t12 56v225q0 33 -13 42t-54 9q-3 0 -3 8.5t3 8.5q37 0 50.5 9.5t14.5 34.5q13 273 242 273q70 0 126 -25q54 60 156 60
q86 0 137 -39q15 19 15 43q0 3 6 3t6 -3v-415q73 82 153 82q54 0 85 -33t31 -90v-193q0 -41 11.5 -55t45.5 -14zM173 439v-63q108 0 149 1q36 1 49.5 7t15.5 24q0 2 1 4v6q4 118 34 189q-52 65 -122 65q-58 0 -92.5 -58t-34.5 -175z" />
    <glyph glyph-name="f_f_i.liga" unicode="ffi" horiz-adv-x="867" 
d="M603 707q-58 0 -95 -66.5t-37 -201.5v-62q52 1 116 9q7 0 7 -24q0 -6 -1.5 -13t-4 -11t-4.5 -3q-56 14 -113 17v-271q0 -44 16.5 -56.5t75.5 -12.5q4 0 4 -6t-4 -6q-23 0 -67 1t-67 1q-20 0 -54.5 -1t-47.5 -1q-4 0 -4 6t4 6q39 0 51 13t12 56v225v3l-1 -3
q0 30 -11.5 37.5t-55.5 9.5q-33 2 -149 2v-274q0 -44 16.5 -56.5t75.5 -12.5q4 0 4 -6t-4 -6q-23 0 -67 1t-67 1q-20 0 -54.5 -1t-47.5 -1q-4 0 -4 6t4 6q39 0 51 13t12 56v225q0 33 -13 42t-54 9q-3 0 -3 8.5t3 8.5q37 0 50.5 9.5t14.5 34.5q13 273 242 273q79 0 133 -29
q61 64 171 64q63 0 101 -21.5t38 -54.5q0 -18 -11 -28.5t-32 -10.5t-35.5 15t-22 33t-25.5 33t-46 15zM173 439v-63q108 0 149 1q36 1 49.5 7t15.5 24q0 2 1 4v6q5 116 37 184q-52 70 -125 70q-58 0 -92.5 -58t-34.5 -175zM839 12q4 0 4 -6t-4 -6q-12 0 -44.5 1t-52.5 1
t-52.5 -1t-44.5 -1q-3 0 -3 6t3 6q33 0 45 14.5t12 54.5v182q0 50 -15 61t-56 -8q-2 -1 -4.5 1.5t-3 6t1.5 4.5l144 67q4 3 10 -2t6 -9q0 -1 -1.5 -40t-1.5 -80v-183q0 -41 11.5 -55t45.5 -14z" />
    <glyph glyph-name="f_f_j.liga" unicode="ffj" horiz-adv-x="873" 
d="M608 707q-62 0 -99.5 -66t-37.5 -202v-62q52 1 116 9q7 0 7 -24q0 -6 -1.5 -12.5t-4 -10.5t-4.5 -3q-61 14 -113 15v-270q0 -44 16.5 -56.5t75.5 -12.5q4 0 4 -6t-4 -6q-23 0 -67 1t-67 1q-20 0 -54.5 -1t-47.5 -1q-4 0 -4 6t4 6q39 0 51 13t12 56v225v3l-1 -3
q0 30 -11.5 37.5t-55.5 9.5q-33 2 -149 2v-274q0 -44 16.5 -56.5t75.5 -12.5q4 0 4 -6t-4 -6q-23 0 -67 1t-67 1q-20 0 -54.5 -1t-47.5 -1q-4 0 -4 6t4 6q39 0 51 13t12 56v225q0 33 -13 42t-54 9q-3 0 -3 8.5t3 8.5q37 0 50.5 9.5t14.5 34.5q13 273 242 273q79 0 133 -29
q61 64 168 64q72 0 113 -21.5t41 -54.5q0 -18 -11 -28.5t-32 -10.5q-22 0 -38 15t-25 33t-27.5 33t-45.5 15zM173 439v-63q108 0 149 1q36 1 49.5 7t15.5 24q0 2 1 4v6q4 111 37 184q-23 32 -56.5 51t-68.5 19q-58 0 -92.5 -58t-34.5 -175zM779 395q5 3 10.5 -2t5.5 -9
q0 -1 -1 -40t-1 -80v-312q0 -100 -36 -150.5t-130 -81.5q-2 -1 -4.5 4.5t0.5 6.5q48 21 68.5 66.5t20.5 131.5v334q0 50 -15 61t-55 -8q-3 -1 -5.5 1.5t-3 6t1.5 4.5z" />
    <glyph glyph-name="f_f_k.liga" unicode="ffk" horiz-adv-x="1109" 
d="M1110 12q2 0 2 -6t-2 -6q-12 0 -44.5 1t-52.5 1q-29 0 -68.5 -1t-52.5 -1q-3 0 -3 6t3 6q30 0 38.5 11t-6.5 30l-116 154l-30 -26v-100q0 -41 11.5 -55t45.5 -14q3 0 3 -6t-3 -6q-12 0 -44.5 1t-52.5 1t-53 -1t-44 -1q-3 0 -3 6t3 6q33 0 44.5 14t11.5 55v548
q-45 80 -110 80q-116 0 -116 -270v-62q52 1 116 9q7 0 7 -24q0 -6 -1.5 -12.5t-4 -10.5t-4.5 -3q-61 14 -113 15v-270q0 -44 16.5 -56.5t75.5 -12.5q4 0 4 -6t-4 -6q-23 0 -67 1t-67 1q-20 0 -54.5 -1t-47.5 -1q-4 0 -4 6t4 6q39 0 51 13t12 56v225v3l-1 -3q0 30 -11.5 37.5
t-55.5 9.5q-33 2 -149 2v-274q0 -44 16.5 -56.5t75.5 -12.5q4 0 4 -6t-4 -6q-23 0 -67 1t-67 1q-20 0 -54.5 -1t-47.5 -1q-4 0 -4 6t4 6q39 0 51 13t12 56v225q0 33 -13 42t-54 9q-3 0 -3 8.5t3 8.5q37 0 50.5 9.5t14.5 34.5q13 273 242 273q70 0 126 -25q54 60 156 60
q86 0 137 -39q15 19 15 43q0 3 6 3t6 -3v-528l106 96q21 18 27 36t-5.5 29t-36.5 11q-3 0 -3 6t3 6q14 0 51 -1t69 -1q30 0 63.5 1t45.5 1q2 0 2 -6t-2 -6q-41 0 -93.5 -20.5t-96.5 -59.5l-43 -38l134 -175q52 -69 111 -69zM173 439v-63q108 0 149 1q36 1 49.5 7t15.5 24
q0 2 1 4v6q4 118 34 189q-52 65 -122 65q-58 0 -92.5 -58t-34.5 -175z" />
    <glyph glyph-name="f_f_l.liga" unicode="ffl" horiz-adv-x="865" 
d="M840 12q3 0 3 -6t-3 -6q-11 0 -44.5 1t-54.5 1q-19 0 -52.5 -1t-44.5 -1q-3 0 -3 6t3 6q33 0 44.5 14t11.5 55v548q-47 80 -112 80q-117 0 -117 -270v-62q52 1 116 9q7 0 7 -24q0 -6 -1.5 -13t-4 -11t-4.5 -3q-56 14 -113 17v-271q0 -44 16.5 -56.5t75.5 -12.5q4 0 4 -6
t-4 -6q-23 0 -67 1t-67 1q-20 0 -54.5 -1t-47.5 -1q-4 0 -4 6t4 6q39 0 51 13t12 56v225v3l-1 -3q0 30 -11.5 37.5t-55.5 9.5q-33 2 -149 2v-274q0 -44 16.5 -56.5t75.5 -12.5q4 0 4 -6t-4 -6q-23 0 -67 1t-67 1q-20 0 -54.5 -1t-47.5 -1q-4 0 -4 6t4 6q39 0 51 13t12 56
v225q0 33 -13 42t-54 9q-3 0 -3 8.5t3 8.5q37 0 50.5 9.5t14.5 34.5q13 273 242 273q74 0 126 -26q55 61 157 61q86 0 140 -40q16 21 16 44q0 3 6 3t6 -3v-649q0 -41 11.5 -55t45.5 -14zM173 439v-63q108 0 149 1q36 1 49.5 7t15.5 24q0 2 1 4v6q5 119 34 188
q-52 66 -122 66q-58 0 -92.5 -58t-34.5 -175z" />
    <glyph glyph-name="f_f_thorn.liga" unicode="ff&#xfe;" horiz-adv-x="1117" 
d="M865 -13q-50 0 -89 14v-195q0 -43 16.5 -56t75.5 -13q2 0 2 -6t-2 -6q-18 0 -63 1t-71 1q-20 0 -54 -1t-45 -1q-2 0 -2 6t2 6q37 0 48 13t11 56v828q-45 75 -107 75q-116 0 -116 -270v-62q52 1 116 9q7 0 7 -24q0 -6 -1.5 -12.5t-4 -10.5t-4.5 -3q-61 14 -113 15v-270
q0 -44 16.5 -56.5t75.5 -12.5q4 0 4 -6t-4 -6q-23 0 -67 1t-67 1q-20 0 -54.5 -1t-47.5 -1q-4 0 -4 6t4 6q39 0 51 13t12 56v225v3l-1 -3q0 30 -11.5 37.5t-55.5 9.5q-33 2 -149 2v-274q0 -44 16.5 -56.5t75.5 -12.5q4 0 4 -6t-4 -6q-23 0 -67 1t-67 1q-20 0 -54.5 -1
t-47.5 -1q-4 0 -4 6t4 6q39 0 51 13t12 56v225q0 33 -13 42t-54 9q-3 0 -3 8.5t3 8.5q37 0 50.5 9.5t14.5 34.5q13 273 242 273q70 0 126 -25q54 60 156 60q84 0 136 -38q14 20 14 42q0 3 6 3t6 -3v-399q74 68 151 68q65 0 111 -50t46 -134q0 -60 -20.5 -106t-54 -71.5
t-70 -38t-74.5 -12.5zM173 439v-63q108 0 149 1q36 1 49.5 7t15.5 24q0 2 1 4v6q4 118 34 189q-52 65 -122 65q-58 0 -92.5 -58t-34.5 -175zM869 349q-48 0 -93 -40v-248q47 -50 111 -50q51 0 80 43.5t29 129.5q0 78 -36 121.5t-91 43.5z" />
    <glyph glyph-name="f_f_t.liga" unicode="fft" horiz-adv-x="925" 
d="M905 62q2 2 5 1t4 -4t-1 -5q-70 -66 -140 -66q-43 0 -72 20.5t-29 68.5v229q0 13 -1.5 19.5t-9 13t-19 9.5t-36.5 5t-54.5 2.5t-80.5 0.5v-275q0 -44 16.5 -56.5t75.5 -12.5q4 0 4 -6t-4 -6q-23 0 -67 1t-67 1q-20 0 -54.5 -1t-47.5 -1q-4 0 -4 6t4 6q39 0 51 13t12 56
v225v3l-1 -3q0 30 -11.5 37.5t-55.5 9.5q-33 2 -149 2v-274q0 -44 16.5 -56.5t75.5 -12.5q4 0 4 -6t-4 -6q-23 0 -67 1t-67 1q-20 0 -54.5 -1t-47.5 -1q-4 0 -4 6t4 6q39 0 51 13t12 56v225q0 33 -13 42t-54 9q-3 0 -3 8.5t3 8.5q37 0 50.5 9.5t14.5 34.5q13 273 242 273
q73 0 127 -26q54 61 158 61q55 0 86 -15.5t31 -41.5q0 -20 -14 -31.5t-33 -11.5t-30 10.5t-22 31.5q-20 39 -56 39q-50 0 -79 -66t-29 -202v-62q97 0 142 3q53 3 78.5 19.5t46.5 55.5q2 4 9 4t7 -4v-79q68 3 132 10q8 0 8 -24q0 -6 -1.5 -12.5t-4.5 -10.5t-5 -3
q-56 13 -129 16v-242q0 -76 73 -76q48 0 78 28zM173 439v-63q108 0 149 1q36 1 49.5 7t15.5 24q0 2 1 4v6q5 119 34 188q-52 66 -122 66q-58 0 -92.5 -58t-34.5 -175z" />
    <glyph glyph-name="f_h.liga" unicode="fh" horiz-adv-x="825" 
d="M806 12q3 0 3 -6t-3 -6q-12 0 -44.5 1t-52.5 1t-53 -1t-44 -1q-3 0 -3 6t3 6q33 0 44.5 14t11.5 55v149q0 110 -85 110q-57 0 -103 -46v-213q0 -41 11.5 -55t45.5 -14q3 0 3 -6t-3 -6q-12 0 -44.5 1t-52.5 1t-53 -1t-44 -1q-3 0 -3 6t3 6q33 0 44.5 14t11.5 55v548
q-45 80 -110 80q-116 0 -116 -270v-62q52 1 116 9q7 0 7 -24q0 -6 -1.5 -12.5t-4 -10.5t-4.5 -3q-61 14 -113 15v-270q0 -44 16.5 -56.5t75.5 -12.5q4 0 4 -6t-4 -6q-23 0 -67 1t-67 1q-20 0 -54.5 -1t-47.5 -1q-4 0 -4 6t4 6q39 0 51 13t12 56v225q0 33 -13 42t-54 9
q-3 0 -3 8.5t3 8.5q37 0 50.5 9.5t14.5 34.5q5 162 59.5 235t166.5 73q86 0 137 -39q15 19 15 43q0 3 6 3t6 -3v-415q73 82 153 82q54 0 85 -33t31 -90v-193q0 -41 11.5 -55t45.5 -14z" />
    <glyph glyph-name="f_j.liga" unicode="fj" horiz-adv-x="575" 
d="M310 707q-62 0 -99.5 -66t-37.5 -202v-62q52 1 116 9q7 0 7 -24q0 -6 -1.5 -12.5t-4 -10.5t-4.5 -3q-61 14 -113 15v-270q0 -44 16.5 -56.5t75.5 -12.5q4 0 4 -6t-4 -6q-23 0 -67 1t-67 1q-20 0 -54.5 -1t-47.5 -1q-4 0 -4 6t4 6q39 0 51 13t12 56v225q0 33 -13 42t-54 9
q-3 0 -3 8.5t3 8.5q37 0 50.5 9.5t14.5 34.5q11 308 245 308q72 0 113 -21.5t41 -54.5q0 -18 -11 -28.5t-32 -10.5q-22 0 -38 15t-25 33t-27.5 33t-45.5 15zM481 395q5 3 10.5 -2t5.5 -9q0 -1 -1 -40t-1 -80v-312q0 -100 -36 -150.5t-130 -81.5q-2 -1 -4.5 4.5t0.5 6.5
q48 21 68.5 66.5t20.5 131.5v334q0 50 -15 61t-55 -8q-3 -1 -5.5 1.5t-3 6t1.5 4.5z" />
    <glyph glyph-name="f_k.liga" unicode="fk" horiz-adv-x="811" 
d="M812 12q2 0 2 -6t-2 -6q-12 0 -44.5 1t-52.5 1q-29 0 -68.5 -1t-52.5 -1q-3 0 -3 6t3 6q30 0 38.5 11t-6.5 30l-116 154l-30 -26v-100q0 -41 11.5 -55t45.5 -14q3 0 3 -6t-3 -6q-12 0 -44.5 1t-52.5 1t-53 -1t-44 -1q-3 0 -3 6t3 6q33 0 44.5 14t11.5 55v548
q-45 80 -110 80q-116 0 -116 -270v-62q52 1 116 9q7 0 7 -24q0 -6 -1.5 -12.5t-4 -10.5t-4.5 -3q-61 14 -113 15v-270q0 -44 16.5 -56.5t75.5 -12.5q4 0 4 -6t-4 -6q-23 0 -67 1t-67 1q-20 0 -54.5 -1t-47.5 -1q-4 0 -4 6t4 6q39 0 51 13t12 56v225q0 33 -13 42t-54 9
q-3 0 -3 8.5t3 8.5q37 0 50.5 9.5t14.5 34.5q5 162 59.5 235t166.5 73q86 0 137 -39q15 19 15 43q0 3 6 3t6 -3v-528l106 96q21 18 27 36t-5.5 29t-36.5 11q-3 0 -3 6t3 6q14 0 51 -1t69 -1q30 0 63.5 1t45.5 1q2 0 2 -6t-2 -6q-41 0 -93.5 -20.5t-96.5 -59.5l-43 -38
l134 -175q52 -69 111 -69z" />
    <glyph glyph-name="f_thorn.liga" unicode="f&#xfe;" horiz-adv-x="819" 
d="M567 -13q-50 0 -89 14v-195q0 -43 16.5 -56t75.5 -13q2 0 2 -6t-2 -6q-18 0 -63 1t-71 1q-20 0 -54 -1t-45 -1q-2 0 -2 6t2 6q37 0 48 13t11 56v828q-45 75 -107 75q-116 0 -116 -270v-62q52 1 116 9q7 0 7 -24q0 -6 -1.5 -12.5t-4 -10.5t-4.5 -3q-61 14 -113 15v-270
q0 -44 16.5 -56.5t75.5 -12.5q4 0 4 -6t-4 -6q-23 0 -67 1t-67 1q-20 0 -54.5 -1t-47.5 -1q-4 0 -4 6t4 6q39 0 51 13t12 56v225q0 33 -13 42t-54 9q-3 0 -3 8.5t3 8.5q37 0 50.5 9.5t14.5 34.5q5 162 59.5 235t166.5 73q84 0 136 -38q14 20 14 42q0 3 6 3t6 -3v-399
q74 68 151 68q65 0 111 -50t46 -134q0 -60 -20.5 -106t-54 -71.5t-70 -38t-74.5 -12.5zM571 349q-48 0 -93 -40v-248q47 -50 111 -50q51 0 80 43.5t29 129.5q0 78 -36 121.5t-91 43.5z" />
    <glyph glyph-name="f_t.liga" unicode="ft" horiz-adv-x="627" 
d="M607 62q2 2 5 1t4 -4t-1 -5q-70 -66 -140 -66q-43 0 -72 20.5t-29 68.5v229q0 13 -1.5 19.5t-9 13t-19 9.5t-36.5 5t-54.5 2.5t-80.5 0.5v-275q0 -44 16.5 -56.5t75.5 -12.5q4 0 4 -6t-4 -6q-23 0 -67 1t-67 1q-20 0 -54.5 -1t-47.5 -1q-4 0 -4 6t4 6q39 0 51 13t12 56
v225q0 33 -13 42t-54 9q-3 0 -3 8.5t3 8.5q37 0 50.5 9.5t14.5 34.5q5 163 61 235.5t168 72.5q55 0 86 -15.5t31 -41.5q0 -20 -14 -31.5t-33 -11.5t-30 10.5t-22 31.5q-20 39 -56 39q-50 0 -79 -66t-29 -202v-62q97 0 142 3q53 3 78.5 19.5t46.5 55.5q2 4 9 4t7 -4v-79
q68 3 132 10q8 0 8 -24q0 -6 -1.5 -12.5t-4.5 -10.5t-5 -3q-56 13 -129 16v-242q0 -76 73 -76q48 0 78 28z" />
    <glyph glyph-name="fi.liga" unicode="fi" horiz-adv-x="569" 
d="M305 707q-58 0 -95 -66.5t-37 -201.5v-62q52 1 116 9q7 0 7 -24q0 -6 -1.5 -13t-4 -11t-4.5 -3q-56 14 -113 17v-271q0 -44 16.5 -56.5t75.5 -12.5q4 0 4 -6t-4 -6q-23 0 -67 1t-67 1q-20 0 -54.5 -1t-47.5 -1q-4 0 -4 6t4 6q39 0 51 13t12 56v225q0 33 -13 42t-54 9
q-3 0 -3 8.5t3 8.5q37 0 50.5 9.5t14.5 34.5q6 161 68.5 234.5t179.5 73.5q63 0 101 -21.5t38 -54.5q0 -18 -11 -28.5t-32 -10.5t-35.5 15t-22 33t-25.5 33t-46 15zM541 12q4 0 4 -6t-4 -6q-12 0 -44.5 1t-52.5 1t-52.5 -1t-44.5 -1q-3 0 -3 6t3 6q33 0 45 14.5t12 54.5v182
q0 50 -15 61t-56 -8q-2 -1 -4.5 1.5t-3 6t1.5 4.5l144 67q4 3 10 -2t6 -9q0 -1 -1.5 -40t-1.5 -80v-183q0 -41 11.5 -55t45.5 -14z" />
    <glyph glyph-name="fl.liga" unicode="fl" horiz-adv-x="567" 
d="M542 12q3 0 3 -6t-3 -6q-11 0 -44.5 1t-54.5 1q-19 0 -52.5 -1t-44.5 -1q-3 0 -3 6t3 6q33 0 44.5 14t11.5 55v548q-47 80 -112 80q-117 0 -117 -270v-62q52 1 116 9q7 0 7 -24q0 -6 -1.5 -13t-4 -11t-4.5 -3q-56 14 -113 17v-271q0 -44 16.5 -56.5t75.5 -12.5q4 0 4 -6
t-4 -6q-23 0 -67 1t-67 1q-20 0 -54.5 -1t-47.5 -1q-4 0 -4 6t4 6q39 0 51 13t12 56v225q0 33 -13 42t-54 9q-3 0 -3 8.5t3 8.5q37 0 50.5 9.5t14.5 34.5q5 163 60.5 235.5t166.5 72.5q86 0 140 -40q16 21 16 44q0 3 6 3t6 -3v-649q0 -41 11.5 -55t45.5 -14z" />
    <glyph glyph-name="g_g.liga" unicode="gg" horiz-adv-x="889" 
d="M452 395q8 0 8 -26q0 -29 -9 -40q-2 -2 -3 -1q-56 16 -95 16q-9 0 -14 -1q27 -30 27 -70q0 -54 -50 -89.5t-116 -35.5q-28 0 -51 6q-26 -20 -26 -48q0 -17 9 -28.5t30 -18.5t36 -10.5t47 -8.5q93 -16 124 -33q51 -29 51 -88q0 -78 -71.5 -139.5t-169.5 -61.5
q-73 0 -119 32.5t-46 84.5q0 76 108 151q-65 19 -65 71q0 56 76 101q-41 15 -64 45.5t-23 66.5q0 56 51 89.5t115 33.5q65 0 110 -33q62 35 130 35zM688 40q100 -16 133 -34q54 -28 54 -87q0 -78 -75 -139.5t-177 -61.5q-70 0 -114.5 32.5t-44.5 84.5q0 74 102 150
q-66 21 -66 72q0 57 77 101q-42 15 -65 45.5t-23 66.5q0 56 51 89.5t116 33.5q66 0 108 -32q53 34 108 34q7 0 7 -26q0 -30 -8 -40q-1 -2 -2 -1q-42 16 -72 16q-9 0 -14 -1q27 -30 27 -70q0 -54 -50.5 -89.5t-116.5 -35.5q-27 0 -51 6q-25 -20 -25 -48q0 -17 9 -28.5t30 -19
t36 -10.5t46 -8zM225 165q23 0 39 21t16 65q0 53 -29 88.5t-69 35.5q-51 0 -51 -80q0 -54 27 -92t67 -38zM626 375q-51 0 -51 -80q0 -54 26.5 -92t66.5 -38q24 0 39.5 20.5t15.5 65.5q0 53 -29 88.5t-68 35.5zM346 -133q0 24 -9.5 41.5t-21.5 27.5t-36.5 17.5t-39.5 10
l-45 7.5q-48 8 -50 9q-44 -39 -44 -102q0 -61 35 -95t93 -34q53 0 85.5 33t32.5 85zM671 -251q59 0 94.5 33t35.5 85q0 24 -10.5 41.5t-23 27.5t-39 17.5t-42.5 10.5t-49 7l-48 9q-40 -42 -40 -102q0 -61 33.5 -95t88.5 -34z" />
    <glyph glyph-name="longs_b.liga" unicode="&#x17f;b" horiz-adv-x="813" 
d="M616 399q68 0 116 -48.5t48 -137.5q0 -106 -64.5 -166t-150.5 -60q-81 0 -143 46l-84 -39q-3 -1 -5 1t-2 4.5t2 3.5q27 16 39 39t12 61l1 526q-40 80 -102 80q-112 0 -112 -270v-358q0 -44 16 -56.5t76 -12.5q3 0 3 -6t-3 -6q-23 0 -67.5 1t-66.5 1q-20 0 -55 -1t-48 -1
q-3 0 -3 6t3 6q40 0 51 12.5t11 56.5v337q0 308 222 308q85 0 130 -40q15 21 15 44q0 3 6 3t6 -3v-403q72 72 149 72zM589 6q48 0 74 44t27 126q-1 88 -32.5 132.5t-84.5 44.5q-50 0 -106 -45v-207q46 -95 122 -95z" />
    <glyph glyph-name="longs_h.liga" unicode="&#x17f;h" horiz-adv-x="811" 
d="M791 12q4 0 4 -6t-4 -6q-11 0 -43.5 1t-53.5 1q-20 0 -52.5 -1t-44.5 -1q-2 0 -2 6t2 6q33 0 45 14.5t12 54.5v149q0 110 -86 110q-57 0 -102 -45v-214q0 -41 11.5 -55t44.5 -14q4 0 4 -6t-4 -6q-11 0 -44 1t-53 1t-52.5 -1t-44.5 -1q-2 0 -2 6t2 6q33 0 45 14.5t12 54.5
v547q-40 81 -102 81q-112 0 -112 -270v-358q0 -44 16 -56.5t76 -12.5q3 0 3 -6t-3 -6q-23 0 -67.5 1t-66.5 1q-20 0 -55 -1t-48 -1q-3 0 -3 6t3 6q40 0 51.5 12.5t11.5 56.5v337q0 308 221 308q83 0 129 -39q15 19 15 43q0 3 6 3t6 -3v-415q73 82 153 82q54 0 85 -33t31 -90
v-193q0 -41 11.5 -55t44.5 -14z" />
    <glyph glyph-name="longs_i.liga" unicode="&#x17f;i" horiz-adv-x="556" 
d="M26 0q-3 0 -3 6t3 6q40 0 51.5 12.5t11.5 56.5v337q0 308 231 308q61 0 96.5 -19.5t35.5 -50.5q0 -39 -44 -39q-20 0 -34 14t-21.5 31.5t-23.5 31.5t-39 14q-52 0 -85 -67t-33 -202v-358q0 -44 15 -56.5t73 -12.5q3 0 3 -6t-3 -6q-23 0 -66 1t-65 1q-20 0 -55 -1t-48 -1z
M323 0q-3 0 -3 6t3 6q34 0 45.5 14t11.5 55v182q0 50 -15 61t-56 -8q-2 -1 -4.5 1.5t-3 6t1.5 4.5l144 67q4 3 10.5 -2t6.5 -9q0 -1 -1.5 -40t-1.5 -80v-183q0 -41 11.5 -55t45.5 -14q4 0 4 -6t-4 -6q-12 0 -44.5 1t-52.5 1q-21 0 -54 -1t-44 -1z" />
    <glyph glyph-name="longs_j.liga" unicode="&#x17f;j" horiz-adv-x="540" 
d="M26 0q-3 0 -3 6t3 6q40 0 51.5 12.5t11.5 56.5v337q0 308 231 308q61 0 96.5 -19.5t35.5 -50.5q0 -39 -44 -39q-20 0 -34 14t-21.5 31.5t-23.5 31.5t-39 14q-52 0 -85 -67t-33 -202v-358q0 -44 15 -56.5t73 -12.5q3 0 3 -6t-3 -6q-23 0 -66 1t-65 1q-20 0 -55 -1t-48 -1z
M295 -280q-3 -1 -5.5 4.5t0.5 6.5q48 21 68.5 66.5t20.5 131.5v334q0 50 -15 61t-56 -8q-2 -1 -4.5 1.5t-3 6t1.5 4.5l144 67q4 3 10 -2t6 -9q0 -1 -1 -40t-1 -80v-312q0 -100 -36 -150.5t-129 -81.5z" />
    <glyph glyph-name="longs_k.liga" unicode="&#x17f;k" horiz-adv-x="796" 
d="M797 12q3 0 3 -6t-3 -6q-12 0 -44.5 1t-52.5 1q-28 0 -67 -1t-53 -1q-3 0 -3 6t3 6q29 0 37.5 11t-5.5 30l-117 153l-29 -25v-100q0 -41 11.5 -55t44.5 -14q4 0 4 -6t-4 -6q-11 0 -44 1t-53 1t-52.5 -1t-44.5 -1q-2 0 -2 6t2 6q33 0 45 14.5t12 54.5v547q-40 81 -102 81
q-112 0 -112 -270v-358q0 -44 16 -56.5t76 -12.5q3 0 3 -6t-3 -6q-23 0 -67.5 1t-66.5 1q-20 0 -55 -1t-48 -1q-3 0 -3 6t3 6q40 0 51.5 12.5t11.5 56.5v337q0 308 221 308q83 0 129 -39q15 19 15 43q0 3 6 3t6 -3v-528l106 96q33 28 28 52t-44 24q-2 0 -2 6t2 6
q14 0 51.5 -1t69.5 -1q29 0 63 1t46 1q2 0 2 -6t-2 -6q-41 0 -93.5 -20.5t-96.5 -59.5l-43 -38l134 -175q52 -69 110 -69z" />
    <glyph glyph-name="longs_l.liga" unicode="&#x17f;l" horiz-adv-x="550" 
d="M524 12q3 0 3 -6t-3 -6q-12 0 -45 1t-53 1t-53 -1t-45 -1q-2 0 -2 6t2 6q34 0 45.5 14t11.5 55v547q-40 81 -102 81q-112 0 -112 -270v-358q0 -44 16 -56.5t76 -12.5q3 0 3 -6t-3 -6q-23 0 -67.5 1t-66.5 1q-20 0 -55 -1t-48 -1q-3 0 -3 6t3 6q40 0 51.5 12.5t11.5 56.5
v337q0 308 221 308q85 0 130 -40q15 21 15 44q0 3 6 3t6 -3v-649q0 -41 11.5 -55t45.5 -14z" />
    <glyph glyph-name="longs_thorn.liga" unicode="&#x17f;&#xfe;" horiz-adv-x="808" 
d="M555 -13q-51 0 -91 15v-196q0 -43 16.5 -56t75.5 -13q2 0 2 -6t-2 -6q-18 0 -63 1t-71 1q-20 0 -54 -1t-45 -1q-3 0 -3 6t3 6q37 0 48 13t11 56v828q-40 75 -99 75q-112 0 -112 -270v-358q0 -44 16 -56.5t76 -12.5q3 0 3 -6t-3 -6q-23 0 -67.5 1t-66.5 1q-20 0 -55 -1
t-48 -1q-3 0 -3 6t3 6q40 0 51.5 12.5t11.5 56.5v337q0 308 221 308q81 0 128 -38q14 20 14 42q0 3 6 3t6 -3v-401q76 70 153 70q65 0 111 -50t46 -134q0 -60 -20.5 -106t-54 -71.5t-70 -38t-74.5 -12.5zM560 349q-49 0 -96 -42v-244q49 -52 114 -52q50 0 79 43.5t29 129.5
q0 78 -36 121.5t-90 43.5z" />
    <glyph glyph-name="longs_longs.liga" unicode="&#x17f;&#x17f;" horiz-adv-x="539" 
d="M588 726q51 0 79.5 -15.5t28.5 -41.5q0 -20 -14 -31.5t-33 -11.5q-20 0 -32 12.5t-17 28t-17.5 28t-31.5 12.5q-98 0 -98 -268v-358q0 -44 13.5 -56.5t65.5 -12.5q4 0 4 -6t-4 -6q-21 0 -61.5 1t-60.5 1t-55 -1t-48 -1q-3 0 -3 6t3 6q40 0 51.5 12.5t11.5 56.5v337
q0 115 29 187q-44 67 -102 67t-92 -58t-34 -175v-358q0 -44 13 -56.5t62 -12.5q3 0 3 -6t-3 -6q-20 0 -59 1t-58 1q-20 0 -55 -1t-48 -1q-3 0 -3 6t3 6q40 0 51.5 12.5t11.5 56.5v337q0 134 65 203.5t175 69.5q63 0 109 -22q53 57 150 57z" />
    <glyph glyph-name="longs_longs_b.liga" unicode="&#x17f;&#x17f;b" horiz-adv-x="1099" 
d="M901 399q68 0 116 -48.5t48 -137.5q0 -106 -64.5 -166t-150.5 -60q-81 0 -143 46l-84 -39q-3 -1 -5 1t-2 4.5t2 3.5q51 31 51 100l1 526q-40 80 -102 80q-112 0 -112 -270v-358q0 -44 16 -56.5t76 -12.5q3 0 3 -6t-3 -6q-23 0 -67.5 1t-66.5 1q-20 0 -55 -1t-48 -1
q-3 0 -3 6t3 6q40 0 51 12.5t11 56.5v337q0 111 29 181q-42 73 -105 73q-58 0 -92 -58t-34 -175v-358q0 -44 13 -56.5t62 -12.5q3 0 3 -6t-3 -6q-20 0 -59 1t-58 1q-20 0 -55 -1t-48 -1q-3 0 -3 6t3 6q40 0 51.5 12.5t11.5 56.5v337q0 134 65 203.5t175 69.5q68 0 114 -25
q54 60 152 60q85 0 130 -40q15 21 15 44q0 3 6 3t6 -3v-403q72 72 149 72zM874 6q48 0 74 44t27 126q-1 88 -32.5 132.5t-84.5 44.5q-50 0 -106 -45v-207q46 -95 122 -95z" />
    <glyph glyph-name="longs_longs_h.liga" unicode="&#x17f;&#x17f;h" horiz-adv-x="1098" 
d="M1078 12q4 0 4 -6t-4 -6q-11 0 -43.5 1t-53.5 1q-20 0 -52.5 -1t-44.5 -1q-2 0 -2 6t2 6q33 0 45 14.5t12 54.5v149q0 110 -86 110q-57 0 -102 -45v-214q0 -41 11.5 -55t44.5 -14q4 0 4 -6t-4 -6q-11 0 -44 1t-53 1t-52.5 -1t-44.5 -1q-2 0 -2 6t2 6q33 0 45 14.5
t12 54.5v547q-40 81 -102 81q-112 0 -112 -270v-358q0 -44 16 -56.5t76 -12.5q3 0 3 -6t-3 -6q-23 0 -67.5 1t-66.5 1q-20 0 -55 -1t-48 -1q-3 0 -3 6t3 6q40 0 51.5 12.5t11.5 56.5v337q0 108 27 179q-42 75 -106 75q-58 0 -92 -58t-34 -175v-358q0 -44 13 -56.5t62 -12.5
q3 0 3 -6t-3 -6q-20 0 -59 1t-58 1q-20 0 -55 -1t-48 -1q-3 0 -3 6t3 6q40 0 51.5 12.5t11.5 56.5v337q0 134 65 203.5t175 69.5q70 0 115 -26q57 61 153 61q83 0 129 -39q15 19 15 43q0 3 6 3t6 -3v-415q73 82 153 82q54 0 85 -33t31 -90v-193q0 -41 11.5 -55t44.5 -14z
" />
    <glyph glyph-name="longs_longs_i.liga" unicode="&#x17f;&#x17f;i" horiz-adv-x="837" 
d="M571 708q-52 0 -85 -67t-33 -202v-358q0 -44 15 -56.5t73 -12.5q3 0 3 -6t-3 -6q-23 0 -66 1t-65 1q-20 0 -55 -1t-48 -1q-3 0 -3 6t3 6q40 0 51.5 12.5t11.5 56.5v337q0 110 31 183q-42 71 -104 71q-58 0 -92 -58t-34 -175v-358q0 -44 13 -56.5t62 -12.5q3 0 3 -6t-3 -6
q-20 0 -59 1t-58 1q-20 0 -55 -1t-48 -1q-3 0 -3 6t3 6q40 0 51.5 12.5t11.5 56.5v337q0 134 65 203.5t175 69.5q68 0 114 -25q57 60 158 60q61 0 96.5 -19.5t35.5 -50.5q0 -39 -44 -39q-20 0 -34 14t-21.5 31.5t-23.5 31.5t-39 14zM799 12q4 0 4 -6t-4 -6q-12 0 -44.5 1
t-52.5 1t-53 -1t-45 -1q-3 0 -3 6t3 6q34 0 45.5 14t11.5 55v182q0 50 -15 61t-56 -8q-2 -1 -4.5 1.5t-3 6t1.5 4.5l144 67q4 3 10.5 -2t6.5 -9q0 -1 -1.5 -40t-1.5 -80v-183q0 -41 11.5 -55t45.5 -14z" />
    <glyph glyph-name="longs_longs_j.liga" unicode="&#x17f;&#x17f;j" horiz-adv-x="821" 
d="M541 12q3 0 3 -6t-3 -6q-23 0 -66 1t-65 1q-20 0 -55 -1t-48 -1q-3 0 -3 6t3 6q40 0 51.5 12.5t11.5 56.5v337q0 110 31 183q-42 71 -104 71q-58 0 -92 -58t-34 -175v-358q0 -44 13 -56.5t62 -12.5q3 0 3 -6t-3 -6q-20 0 -59 1t-58 1q-20 0 -55 -1t-48 -1q-3 0 -3 6t3 6
q40 0 51.5 12.5t11.5 56.5v337q0 134 65 203.5t175 69.5q68 0 114 -25q57 60 158 60q61 0 96.5 -19.5t35.5 -50.5q0 -39 -44 -39q-20 0 -34 14t-21.5 31.5t-23.5 31.5t-39 14q-52 0 -85 -67t-33 -202v-358q0 -44 15 -56.5t73 -12.5zM727 395q4 3 10 -2t6 -9q0 -1 -1 -40
t-1 -80v-312q0 -100 -36 -150.5t-129 -81.5q-3 -1 -5.5 4.5t0.5 6.5q48 21 68.5 66.5t20.5 131.5v334q0 50 -15 61t-56 -8q-2 -1 -4.5 1.5t-3 6t1.5 4.5z" />
    <glyph glyph-name="longs_longs_k.liga" unicode="&#x17f;&#x17f;k" horiz-adv-x="1083" 
d="M1084 12q3 0 3 -6t-3 -6q-12 0 -44.5 1t-52.5 1q-29 0 -68 -1t-52 -1q-3 0 -3 6t3 6q29 0 37.5 11t-5.5 30l-117 153l-29 -25v-100q0 -41 11.5 -55t44.5 -14q4 0 4 -6t-4 -6q-11 0 -44 1t-53 1t-52.5 -1t-44.5 -1q-2 0 -2 6t2 6q33 0 45 14.5t12 54.5v547q-40 81 -102 81
q-112 0 -112 -270v-358q0 -44 16 -56.5t76 -12.5q3 0 3 -6t-3 -6q-23 0 -67.5 1t-66.5 1q-20 0 -55 -1t-48 -1q-3 0 -3 6t3 6q40 0 51.5 12.5t11.5 56.5v337q0 108 27 179q-42 75 -106 75q-58 0 -92 -58t-34 -175v-358q0 -44 13 -56.5t62 -12.5q3 0 3 -6t-3 -6q-20 0 -59 1
t-58 1q-20 0 -55 -1t-48 -1q-3 0 -3 6t3 6q40 0 51.5 12.5t11.5 56.5v337q0 134 65 203.5t175 69.5q70 0 115 -26q57 61 153 61q83 0 129 -39q15 19 15 43q0 3 6 3t6 -3v-528l106 96q33 28 28 52t-44 24q-2 0 -2 6t2 6q14 0 51.5 -1t69.5 -1q29 0 63 1t46 1q2 0 2 -6t-2 -6
q-41 0 -93.5 -20.5t-96.5 -59.5l-43 -38l134 -175q52 -69 110 -69z" />
    <glyph glyph-name="longs_longs_l.liga" unicode="&#x17f;&#x17f;l" horiz-adv-x="837" 
d="M811 12q3 0 3 -6t-3 -6q-11 0 -44 1t-54 1q-20 0 -53 -1t-45 -1q-2 0 -2 6t2 6q34 0 45.5 14t11.5 55v547q-40 81 -102 81q-112 0 -112 -270v-358q0 -44 16 -56.5t76 -12.5q3 0 3 -6t-3 -6q-23 0 -67.5 1t-66.5 1q-20 0 -55 -1t-48 -1q-3 0 -3 6t3 6q40 0 51.5 12.5
t11.5 56.5v337q0 108 27 179q-42 75 -106 75q-58 0 -92 -58t-34 -175v-358q0 -44 13 -56.5t62 -12.5q3 0 3 -6t-3 -6q-20 0 -59 1t-58 1q-20 0 -55 -1t-48 -1q-3 0 -3 6t3 6q40 0 51.5 12.5t11.5 56.5v337q0 134 65 203.5t175 69.5q70 0 115 -26q57 61 153 61q85 0 130 -40
q15 21 15 44q0 3 6 3t6 -3v-649q0 -41 11.5 -55t45.5 -14z" />
    <glyph glyph-name="longs_longs_thorn.liga" unicode="&#x17f;&#x17f;&#xfe;" horiz-adv-x="1094" 
d="M842 -13q-51 0 -91 15v-196q0 -43 16.5 -56t75.5 -13q2 0 2 -6t-2 -6q-17 0 -62 1t-72 1q-21 0 -54 -1t-45 -1q-3 0 -3 6t3 6q37 0 48 13t11 56v828q-40 75 -99 75q-112 0 -112 -270v-358q0 -44 16 -56.5t76 -12.5q3 0 3 -6t-3 -6q-23 0 -67.5 1t-66.5 1q-20 0 -55 -1
t-48 -1q-3 0 -3 6t3 6q40 0 51.5 12.5t11.5 56.5v337q0 108 27 179q-42 75 -106 75q-58 0 -92 -58t-34 -175v-358q0 -44 13 -56.5t62 -12.5q3 0 3 -6t-3 -6q-20 0 -59 1t-58 1q-20 0 -55 -1t-48 -1q-3 0 -3 6t3 6q40 0 51.5 12.5t11.5 56.5v337q0 134 65 203.5t175 69.5
q70 0 115 -26q57 61 153 61q81 0 128 -38q14 20 14 42q0 3 6 3t6 -3v-401q76 70 153 70q65 0 111 -50t46 -134q0 -60 -20.5 -106t-54 -71.5t-70 -38t-74.5 -12.5zM847 349q-49 0 -96 -42v-244q49 -52 114 -52q50 0 79 43.5t29 129.5q0 78 -36 121.5t-90 43.5z" />
    <glyph glyph-name=".notdef" horiz-adv-x="501" 
d="M94 -275v1000h317v-1000h-317zM168 626h65v-38h-66v-32h166v32h-66v38h66v32h-165v-32zM167 426h166v34h-66v69h-100v-103zM200 460v35h33v-35h-33zM167 365h66v-36h-66v-34h100v70h66v33h-166v-33zM301 273h-134v-34h166v99h-32v-65zM233 160h34v24h34v-48h-101v80h-33
v-113h166v113h-100v-56zM167 -70h166v113h-166v-113zM200 -37v48h101v-48h-101zM167 -126h70l-70 -47v-33h166v33h-101l69 47h32v34h-166v-34z" />
    <glyph glyph-name=".null" horiz-adv-x="0" 
 />
    <glyph glyph-name="nonmarkingreturn" horiz-adv-x="333" 
 />
    <glyph glyph-name="space" unicode=" " horiz-adv-x="234" 
 />
    <glyph glyph-name="exclam" unicode="!" horiz-adv-x="258" 
d="M67 617q-2 5 18.5 8.5t43.5 3.5q22 0 43 -3.5t19 -8.5q-30 -121 -51 -428q0 -5 -13.5 -5t-13.5 5q-16 299 -46 428zM123 -11q-25 0 -40 15t-15 40q0 24 15 38.5t40 14.5q26 0 40 -14.5t14 -38.5q0 -26 -14 -40.5t-40 -14.5z" />
    <glyph glyph-name="quotedbl" unicode="&#x22;" horiz-adv-x="296" 
d="M56 365l-23 242q-1 16 49 28q47 10 48 -2l-59 -267q-1 -1 -4.5 -2t-7 -1t-3.5 2zM205 365l-23 242q-1 16 49 28q47 10 48 -2l-59 -267q-1 -1 -4.5 -2t-7 -1t-3.5 2z" />
    <glyph glyph-name="numbersign" unicode="#" horiz-adv-x="526" 
d="M463 318q5 0 5 -22t-5 -22h-66l-27 -154h58q4 0 4 -22.5t-4 -22.5h-66l-28 -157q-2 -3 -12.5 -2t-22.5 4t-11 5l27 150h-140l-28 -157q-2 -3 -12.5 -2t-22.5 4t-11 5l27 150h-65q-3 0 -4 11.5t0 22.5t3 11h74l27 154h-65q-3 0 -4 11t0 22t3 11h74l29 164q0 7 32 -3
q14 -4 13 -7l-27 -154h140l29 164q0 7 32 -3q14 -4 13 -7l-27 -154h58zM323 120l27 154h-140l-27 -154h140z" />
    <glyph glyph-name="dollar" unicode="$" horiz-adv-x="418" 
d="M383 128q0 -55 -42 -93.5t-110 -45.5v-91q0 -7 -13.5 -7t-13.5 7v90q-94 2 -137 36q-8 4 -8 21l-7 108q-1 4 4.5 5t7.5 -3q24 -53 60 -94.5t80 -49.5v197l-24 13q-30 16 -45.5 25.5t-36 26.5t-30 37t-9.5 45q0 52 41.5 85t103.5 39v82q0 7 13.5 7t13.5 -7v-81
q60 -2 110 -23q14 -6 15 -19l2 -92q0 -4 -5 -5t-7 2q-10 30 -40.5 67.5t-74.5 47.5v-178q4 -2 11 -5t10 -5q33 -17 49 -26.5t39 -27.5t33 -39.5t10 -48.5zM132 390q0 -55 72 -95v165q-35 -1 -53.5 -20.5t-18.5 -49.5zM231 9q32 3 52.5 21.5t20.5 55.5q0 60 -73 106v-183z
" />
    <glyph glyph-name="percent" unicode="%" horiz-adv-x="574" 
d="M150 303q-56 0 -92.5 37.5t-36.5 92.5q0 53 36.5 90t92.5 37q55 0 91 -37.5t36 -92.5q0 -54 -36 -90.5t-91 -36.5zM109 -7q-1 -2 -8.5 2t-14 9t-5.5 7l370 544q2 2 9.5 -2t14 -10t5.5 -7zM157 317q28 0 37 27t9 79q0 123 -59 123q-50 0 -50 -110q0 -119 63 -119zM427 -5
q-56 0 -92.5 37.5t-36.5 92.5q0 53 37 90.5t92 37.5t91 -38t36 -92t-36 -91t-91 -37zM434 10q28 0 37 26.5t9 79.5q0 122 -59 122q-49 0 -49 -109q0 -119 62 -119z" />
    <glyph glyph-name="ampersand" unicode="&#x26;" horiz-adv-x="710" 
d="M716 12q2 0 3 -3t0 -6t-3 -3h-146q-31 0 -109 56q-77 -68 -195 -68q-98 0 -149.5 42.5t-51.5 102.5q0 36 21.5 70.5t45 55.5t67.5 53q-14 22 -30 50q-29 60 -29 108q0 76 50 126t133 50q58 0 93.5 -25.5t35.5 -74.5q0 -70 -87 -137q-18 -13 -78 -53q74 -112 207 -215
q16 41 16 98q0 51 -17.5 74.5t-60.5 23.5q-2 0 -2.5 6t2.5 6l229 1q3 0 3 -6t-3 -6q-45 0 -59 -14t-26 -56q-26 -90 -60 -144q126 -95 200 -112zM222 541q0 -77 55 -168q84 75 84 154q0 44 -21.5 69t-56.5 25q-61 0 -61 -80zM332 31q67 0 113 38l-35 27q-122 98 -200 201
q-57 -52 -57 -114t49.5 -107t129.5 -45z" />
    <glyph glyph-name="quotesingle" unicode="'" horiz-adv-x="147" 
d="M56 365l-23 242q-1 16 49 28q47 10 48 -2l-59 -267q-1 -1 -4.5 -2t-7 -1t-3.5 2z" />
    <glyph glyph-name="parenleft" unicode="(" horiz-adv-x="309" 
d="M51 304q0 142 59 255t164 166q2 1 4 -1.5t0 -4.5q-129 -136 -129 -415t129 -415q3 -2 -1 -5q-2 -1 -3 -1q-105 54 -164 166.5t-59 254.5z" />
    <glyph glyph-name="parenright" unicode=")" horiz-adv-x="309" 
d="M258 304q0 -142 -59 -255t-164 -166q-2 -1 -4 1.5t0 4.5q129 136 129 415t-129 415q-2 1 0 4t4 2q105 -54 164 -166.5t59 -254.5z" />
    <glyph glyph-name="asterisk" unicode="*" horiz-adv-x="448" 
d="M226 529l-17 128q-1 9 27 18.5t51 12t25 -2.5l-76 -156q-1 -3 -5.5 -3t-4.5 3zM204 511l-128 24q-16 3 -7 70q6 38 12 36l126 -121q1 -1 1 -3.5t-1.5 -4t-2.5 -1.5zM424 480l-174 24q-2 0 -3 4t1 5l116 56q13 5 41 -41q27 -45 19 -48zM152 372q-5 -8 -31.5 0.5t-49.5 21
t-18 15.5l153 82q2 2 6 -0.5t3 -5.5zM264 311l-32 170q-1 2 3 5.5t6 1.5l89 -95q10 -11 -34 -58q-31 -33 -32 -24z" />
    <glyph glyph-name="plus" unicode="+" horiz-adv-x="398" 
d="M364 212q4 0 4 -22.5t-4 -22.5h-142v-142q0 -3 -11.5 -4t-23 -0.5t-11.5 2.5v144h-142q-3 0 -4 11.5t0 22.5t3 11h143v142q0 4 23 4t23 -4v-142h142z" />
    <glyph glyph-name="comma" unicode="," horiz-adv-x="222" 
d="M101 94q71 0 71 -94t-92 -186q-4 -3 -7 0t-1 7q45 56 45 132q0 27 -6 42q-7 -3 -18 -3q-24 0 -37 13.5t-13 36.5q0 52 58 52z" />
    <glyph glyph-name="hyphen" unicode="-" horiz-adv-x="323" 
d="M32 158q-3 0 -4 12t-0.5 25t2.5 13l261 47q3 0 4 -12t0 -25t-4 -13z" />
    <glyph glyph-name="period" unicode="." horiz-adv-x="204" 
d="M103 -11q-25 0 -40 15t-15 40q0 24 15 38.5t40 14.5q26 0 40 -14.5t14 -38.5q0 -26 -14 -40.5t-40 -14.5z" />
    <glyph glyph-name="slash" unicode="/" horiz-adv-x="348" 
d="M71 -164q-2 -4 -24 2t-21 10l252 882q2 4 23.5 -2t20.5 -11z" />
    <glyph glyph-name="zero" unicode="0" horiz-adv-x="477" 
d="M240 -13q-92 0 -151.5 59t-59.5 149t59.5 147t151.5 57t150 -58t58 -148t-58.5 -148t-149.5 -58zM250 6q51 0 77 46t26 128q0 100 -35 150t-87 50q-51 0 -79.5 -47.5t-28.5 -127.5q0 -88 35 -143.5t92 -55.5z" />
    <glyph glyph-name="one" unicode="1" horiz-adv-x="332" 
d="M46 0q-3 0 -3 6t3 6q58 0 75 13t17 56v179q0 53 -17 60.5t-78 -18.5q-2 -1 -4.5 1.5t-2.5 5.5t2 4l172 82q3 2 6.5 -1t3.5 -6v-307q0 -44 15.5 -56.5t74.5 -12.5q3 0 3 -6t-3 -6q-16 0 -60.5 1t-71.5 1t-71.5 -1t-60.5 -1z" />
    <glyph glyph-name="two" unicode="2" horiz-adv-x="402" 
d="M37 23q127 112 168 161t41 95q0 39 -21 65.5t-57 26.5q-38 0 -63.5 -32.5t-46.5 -97.5q0 -1 -3.5 -1.5t-6 1t-2.5 2.5l42 165q1 4 9 1q3 -1 2 -3q-6 -28 14 -28q6 0 41 10.5t66 10.5q54 0 84.5 -26.5t30.5 -69.5q0 -21 -9.5 -43.5t-20 -38t-36.5 -39l-38.5 -34t-48 -37.5
t-45.5 -34q-4 -3 -2.5 -5t6.5 -2q129 0 171.5 8.5t52.5 46.5q1 3 6.5 2t5.5 -3l-19 -113q0 -11 -9 -11h-306q-5 0 -7.5 9t1.5 14z" />
    <glyph glyph-name="three" unicode="3" horiz-adv-x="392" 
d="M219 131q69 -10 104 -49.5t35 -92.5q0 -75 -77 -148t-225 -116q-2 0 -4.5 2t-2.5 5t2 4q113 42 162 108.5t49 132.5q0 57 -29.5 93t-82.5 36q-21 0 -43 -6q-2 0 -4 2.5t-2 5.5t2 4q72 19 104.5 55.5t32.5 100.5q0 105 -69 105q-87 0 -129 -115q-1 -1 -4 -1.5t-5.5 1
t-2.5 3.5l37 146q1 2 4 2t5.5 -1.5t2.5 -2.5q-7 -28 15 -28q7 0 43.5 11t66.5 11q58 0 91 -33.5t33 -80.5q0 -48 -29 -90.5t-80 -63.5z" />
    <glyph glyph-name="four" unicode="4" horiz-adv-x="454" 
d="M418 47q3 0 3.5 -11.5t-1 -23t-4.5 -11.5l-72 3v-145q0 -10 -8 -14l-66 -33q-9 -5 -9 6v189q-61 1 -229 1q-5 0 -7.5 4t0.5 8l304 376q2 3 8.5 1.5t6.5 -5.5v-348zM89 41q124 0 172 1v220l-177 -214q-6 -7 5 -7z" />
    <glyph glyph-name="five" unicode="5" horiz-adv-x="409" 
d="M87 196q139 -1 204.5 -51t65.5 -136q0 -84 -67 -148.5t-222 -135.5q-4 -2 -7 3.5t1 7.5q113 61 158.5 123t45.5 133q0 83 -51 129t-147 46q-12 0 -10 12l32 178q1 7 3 8.5t10 2.5q201 24 224 34q13 5 18 21q0 2 3 2.5t5.5 -1t2.5 -3.5l-20 -98q-3 -12 -8.5 -15t-19.5 -3
l-190 -4q-14 0 -15 -15z" />
    <glyph glyph-name="six" unicode="6" horiz-adv-x="465" 
d="M306 286q65 0 98 -37.5t33 -89.5q0 -71 -60.5 -121.5t-146.5 -50.5q-88 0 -139 58.5t-51 161.5q0 144 97.5 271t262.5 183q4 1 6 -4t-1 -7q-132 -64 -203.5 -183t-71.5 -245q0 -91 34.5 -152t92.5 -61q41 0 65.5 32.5t24.5 89.5q0 53 -22.5 85.5t-66.5 32.5
q-36 0 -80 -34q-3 -3 -8 0.5t-3 6.5q56 64 139 64z" />
    <glyph glyph-name="seven" unicode="7" horiz-adv-x="429" 
d="M172 -214q-6 -17 -21 -24l-71 -37q-3 -1 -5.5 2t-1.5 5l262 572q4 7 -4 7q-89 0 -135.5 -1.5t-82.5 -4t-50.5 -12t-21.5 -19.5t-13 -31q-2 -3 -7.5 -2t-4.5 5l42 167q4 3 12 -1q-4 -17 4.5 -21.5t42.5 -4.5h265q4 0 7.5 -4.5t1.5 -8.5z" />
    <glyph glyph-name="eight" unicode="8" horiz-adv-x="489" 
d="M308 346l45 -27.5t39.5 -28.5t36.5 -35.5t21.5 -40.5t9.5 -51q0 -76 -64 -126t-155 -50q-89 0 -145 48.5t-56 116.5q0 54 36 103t95 79q-71 52 -71 116q0 61 49 92.5t109 31.5q64 0 104 -32.5t40 -71.5q0 -33 -25.5 -66.5t-70.5 -56.5l1 -1h1zM244 555q-30 0 -48.5 -19
t-18.5 -49q0 -41 30 -70.5t87 -62.5q33 51 33 99q0 45 -24 73.5t-59 28.5zM269 8q49 0 79.5 34t30.5 84q0 23 -8.5 44.5t-18 35t-31.5 30.5t-33.5 24.5t-40.5 24.5l-15 9q-33 20 -43 27q-58 -53 -58 -142q0 -70 39 -120.5t99 -50.5z" />
    <glyph glyph-name="nine" unicode="9" horiz-adv-x="465" 
d="M168 106q-70 0 -104.5 41.5t-34.5 95.5q0 69 52 112.5t134 43.5q97 0 153.5 -62t56.5 -167q0 -140 -97 -267t-263 -178q-3 -1 -5.5 4t1.5 7q130 57 202 176t72 239q0 38 -7 75.5t-22 73t-42.5 57.5t-63.5 22q-82 0 -82 -113q0 -57 23.5 -91t68.5 -34q38 0 78 33
q2 2 4.5 1t4.5 -3.5t1 -4.5q-47 -61 -130 -61z" />
    <glyph glyph-name="colon" unicode=":" horiz-adv-x="204" 
d="M103 270q-25 0 -40 15t-15 40q0 24 15 38.5t40 14.5q26 0 40 -14.5t14 -38.5q0 -26 -14 -40.5t-40 -14.5zM103 -11q-25 0 -40 15t-15 40q0 24 15 38.5t40 14.5q26 0 40 -14.5t14 -38.5q0 -26 -14 -40.5t-40 -14.5z" />
    <glyph glyph-name="semicolon" unicode=";" horiz-adv-x="229" 
d="M105 270q-25 0 -40 15t-15 40q0 24 15 38.5t40 14.5q26 0 40 -14.5t14 -38.5q0 -26 -14 -40.5t-40 -14.5zM108 94q71 0 71 -94t-92 -186q-4 -3 -7 0t-1 7q45 56 45 132q0 27 -6 42q-8 -3 -18 -3q-24 0 -37 13.5t-13 36.5q0 52 58 52z" />
    <glyph glyph-name="less" unicode="&#x3c;" horiz-adv-x="407" 
d="M370 71q9 -4 6 -34q-2 -13 -6 -12l-334 148q-5 3 -5 17.5t5 16.5l334 147q4 2 6 -8q3 -27 -6 -37l-278 -119z" />
    <glyph glyph-name="equal" unicode="=" horiz-adv-x="468" 
d="M34 237q-3 0 -4 11.5t0 22.5t3 11h401q4 0 4 -22.5t-4 -22.5h-400zM34 97q-3 0 -4 11t0 22.5t3 11.5h401q4 0 4 -22.5t-4 -22.5h-400z" />
    <glyph glyph-name="greater" unicode="&#x3e;" horiz-adv-x="407" 
d="M371 206q5 -3 5 -17.5t-5 -16.5l-334 -147q-4 -2 -6 8q-3 27 6 37l278 119l-278 119q-9 4 -6 34q2 13 6 12z" />
    <glyph glyph-name="question" unicode="?" horiz-adv-x="336" 
d="M163 608q-29 0 -33 -43q-2 -17 -5 -27.5t-15 -22t-31 -11.5q-23 0 -34 13t-11 30q0 32 37.5 55t92.5 23q63 0 105.5 -31t42.5 -88q0 -19 -4.5 -35.5t-17 -32l-18.5 -22.5t-26.5 -24.5t-23.5 -20.5q-61 -55 -61 -123q0 -20 6 -54q0 -2 -3 -3.5t-7 -1.5t-5 2
q-26 60 -26 120q0 32 14 57.5t30.5 40.5t30.5 43.5t14 65.5q0 40 -14 65t-38 25zM151 -11q-25 0 -40 15t-15 40q0 24 15 38.5t40 14.5q26 0 40 -14.5t14 -38.5q0 -26 -14 -40.5t-40 -14.5z" />
    <glyph glyph-name="at" unicode="@" horiz-adv-x="726" 
d="M467 54q-38 0 -53 23.5t-5 66.5l4 20q-34 -51 -74 -81.5t-75 -30.5q-28 0 -44 21t-10 65q12 82 78.5 151t129.5 69q33 0 49 -23q23 12 29 30q2 2 9.5 1.5t7.5 -2.5l-41 -224q-12 -62 34 -62q40 0 76 42.5t36 115.5q0 101 -71 171t-177 70q-113 0 -180 -80.5t-67 -196.5
q0 -123 75 -196t200 -73q93 0 167 49q4 2 7 -4q1 -3 -1 -4q-90 -75 -207 -75q-128 0 -212.5 74.5t-84.5 202.5q0 141 100.5 233.5t236.5 92.5q117 0 190 -68.5t73 -164.5q0 -87 -58.5 -150t-141.5 -63zM306 108q33 0 74 53.5t53 111.5q4 27 -3.5 45t-26.5 17
q-37 -1 -70.5 -46.5t-45.5 -105.5q-16 -75 19 -75z" />
    <glyph glyph-name="A" unicode="A" horiz-adv-x="711" 
d="M711 12q5 0 5 -6t-5 -6q-19 0 -61 2t-61 2q-23 0 -58 -2t-54 -2q-5 0 -5 6t5 6q45 0 53.5 16t-14.5 63l-108 219h-181l-77 -173q-25 -61 -2 -93t84 -32q4 0 4 -6t-4 -6q-19 0 -55 2t-63 2q-26 0 -60.5 -2t-55.5 -2q-4 0 -4 6t4 6q41 0 66 26.5t61 108.5l215 484q2 3 9 3
t8 -3l245 -494q35 -72 58.5 -98.5t50.5 -26.5zM238 335h158l-83 168z" />
    <glyph glyph-name="B" unicode="B" horiz-adv-x="583" 
d="M351 351q82 -9 131 -55t49 -114q0 -80 -63 -133t-157 -53q-18 0 -70 3t-75 3q-25 0 -67 -1t-57 -1q-3 0 -3 6t3 6q47 0 62 13t15 56v463q0 42 -15 55.5t-61 13.5q-2 0 -2 6t2 6q15 0 56.5 -1.5t66.5 -1.5q18 0 59.5 3t61.5 3q89 0 136.5 -34.5t47.5 -95.5
q0 -47 -31.5 -86t-88.5 -61zM270 608q-32 0 -43.5 -13t-11.5 -53v-190q24 -1 42 -1q59 0 89 38.5t30 99.5q0 57 -27 88t-79 31zM295 19q135 0 135 139q0 76 -39.5 122t-115.5 46q-36 0 -60 -2v-243q0 -35 15.5 -48.5t64.5 -13.5z" />
    <glyph glyph-name="C" unicode="C" horiz-adv-x="669" 
d="M419 636q108 0 170 -30q14 -5 15 -23l12 -130q0 -3 -5 -4t-6 3q-29 78 -87.5 119t-137.5 41q-104 0 -163 -73t-59 -196q0 -141 71.5 -238.5t179.5 -97.5q135 0 205 168q2 4 7 3t5 -4l-15 -128q-2 -12 -4.5 -15.5t-11.5 -7.5q-87 -35 -185 -35q-92 0 -164.5 29.5
t-113.5 78.5t-62 105t-21 115q0 141 110 230.5t260 89.5z" />
    <glyph glyph-name="D" unicode="D" horiz-adv-x="700" 
d="M318 -4q-19 0 -77 3t-85 3q-24 0 -66 -1t-58 -1q-2 0 -2 6t2 6q49 0 63 12.5t14 56.5v463q0 43 -14 56t-62 13q-2 0 -2 6t2 6q16 0 57.5 -1.5t65.5 -1.5q25 0 77.5 2.5t70.5 2.5q155 0 251 -86.5t96 -217.5q0 -146 -96.5 -236.5t-236.5 -90.5zM308 16q106 0 171 75
t65 210q0 131 -63 218.5t-167 87.5q-63 0 -86 -12.5t-23 -52.5v-450q0 -41 21 -58.5t82 -17.5z" />
    <glyph glyph-name="E" unicode="E" horiz-adv-x="547" 
d="M489 156q1 3 6.5 1.5t5.5 -3.5q-10 -76 -10 -139q0 -15 -15 -15h-434q-3 0 -3 6t3 6q49 0 62.5 12.5t13.5 56.5v463q0 43 -14 56t-62 13q-3 0 -3 6t3 6h416q10 0 10 -9l2 -130q0 -2 -5 -3t-7 2q-24 114 -139 114h-40q-36 0 -51 -13t-15 -44v-204h96q110 0 110 74
q0 3 5.5 3t5.5 -3q0 -24 -0.5 -50t-0.5 -37q0 -16 1.5 -48t1.5 -51q0 -2 -6 -2t-6 2q0 86 -112 86h-95v-227q0 -33 12.5 -46t44.5 -13h49q134 0 170 130z" />
    <glyph glyph-name="F" unicode="F" horiz-adv-x="518" 
d="M468 616l2 -130q0 -2 -5 -3t-7 2q-24 114 -139 114h-40q-36 0 -51 -13t-15 -43v-217h82q112 0 112 75q0 2 6 2t6 -2q0 -24 -0.5 -50.5t-0.5 -37.5q0 -15 1 -47t1 -51q0 -3 -6 -3t-6 3q0 85 -115 85h-80v-215q0 -46 20.5 -59.5t91.5 -13.5q2 0 2 -6t-2 -6q-20 0 -72.5 1
t-89.5 1q-25 0 -68 -1t-58 -1q-3 0 -3 6t3 6q52 0 66.5 12.5t14.5 56.5v463q0 43 -14 56t-62 13q-3 0 -3 6t3 6h416q10 0 10 -9z" />
    <glyph glyph-name="G" unicode="G" horiz-adv-x="717" 
d="M408 -12q-166 0 -262.5 90.5t-96.5 227.5q0 146 108 238t272 92q107 0 170 -30q13 -5 14 -23l12 -130q0 -3 -5 -4t-7 3q-30 75 -90 117t-141 42q-110 0 -169 -71.5t-59 -196.5q0 -149 78.5 -243.5t199.5 -94.5q65 0 90 23.5t25 97.5q0 73 -16.5 90t-87.5 17q-4 0 -5.5 4
t0 8t4.5 4q118 -8 237 -2q5 0 5 -7t-5 -7q-28 1 -34.5 -18t-6.5 -99q0 -40 3.5 -63t3.5 -25q0 -8 -12 -12q-126 -28 -225 -28z" />
    <glyph glyph-name="H" unicode="H" horiz-adv-x="762" 
d="M729 12q3 0 3 -6t-3 -6q-15 0 -59 1t-69 1q-32 0 -76 -1t-57 -1q-3 0 -3 6t3 6q54 0 69 12.5t15 56.5v231h-343v-231q0 -44 15.5 -56.5t69.5 -12.5q2 0 2 -6t-2 -6q-16 0 -60.5 1t-75.5 1q-25 0 -68 -1t-58 -1q-2 0 -2 6t2 6q52 0 67 12.5t15 56.5v463q0 43 -15 56
t-66 13q-2 0 -2 6t2 6q16 0 58 -1.5t67 -1.5q31 0 76 1.5t60 1.5q2 0 2 -6t-2 -6q-53 0 -69 -14t-16 -57v-204h343v204q0 44 -15 57.5t-69 13.5q-3 0 -3 6t3 6q13 0 57 -1.5t76 -1.5q25 0 69 1.5t59 1.5q3 0 3 -6t-3 -6q-52 0 -66.5 -13t-14.5 -56v-463q0 -44 14.5 -56.5
t66.5 -12.5z" />
    <glyph glyph-name="I" unicode="I" horiz-adv-x="339" 
d="M218 81q0 -44 13 -56.5t62 -12.5q3 0 3 -6t-3 -6q-15 0 -56.5 1t-68.5 1q-25 0 -67 -1t-57 -1q-3 0 -3 6t3 6q49 0 63 12.5t14 56.5v463q0 43 -14.5 56t-62.5 13q-3 0 -3 6t3 6q15 0 57 -1.5t67 -1.5q27 0 69 1.5t56 1.5q3 0 3 -6t-3 -6q-48 0 -61.5 -13.5t-13.5 -57.5
v-461z" />
    <glyph glyph-name="J" unicode="J" horiz-adv-x="333" 
d="M292 625q3 0 3 -6t-3 -6q-40 0 -52 -13.5t-12 -57.5v-554q0 -108 -52.5 -169.5t-147.5 -61.5q-36 0 -58.5 14.5t-22.5 40.5q0 18 12 31.5t34 13.5q20 0 33.5 -12.5t19 -27t14.5 -27t20 -12.5q51 0 51 156v610q0 43 -16.5 56t-72.5 13q-2 0 -2 6t2 6q19 0 64.5 -1.5
t71.5 -1.5q25 0 63 1.5t51 1.5z" />
    <glyph glyph-name="K" unicode="K" horiz-adv-x="653" 
d="M656 12q3 0 3 -6t-3 -6h-112q-10 0 -25 -1q-30 -1 -43.5 9.5t-62.5 77.5l-44 59l-139 182l-25 -26v-220q0 -44 13 -56.5t62 -12.5q4 0 4 -6t-4 -6q-15 0 -56.5 1t-67.5 1q-24 0 -66 -1t-58 -1q-2 0 -2 6t2 6q49 0 63 12.5t14 56.5v463q0 43 -14 56t-62 13q-2 0 -2 6t2 6
q16 0 57.5 -1.5t65.5 -1.5q26 0 68 1.5t56 1.5q3 0 3 -6t-3 -6q-47 0 -61 -13.5t-14 -57.5v-211l196 198q38 37 29.5 60.5t-59.5 23.5q-2 0 -2 6t2 6q14 0 53 -1.5t72 -1.5t71 1.5t51 1.5q3 0 3 -6t-3 -6q-44 0 -96.5 -24t-95.5 -66l-128 -128l147 -195l82 -109t54 -55.5
t36.5 -20.5t38.5 -3z" />
    <glyph glyph-name="L" unicode="L" horiz-adv-x="541" 
d="M204 543v-458q0 -38 11.5 -48.5t52.5 -10.5h60q71 0 120 39.5t65 106.5q1 3 6 2.5t5 -3.5q-9 -95 -9 -156q0 -15 -15 -15h-468q-2 0 -2 6t2 6q49 0 62.5 12.5t13.5 56.5v463q0 43 -14 56t-62 13q-2 0 -2 6t2 6q14 0 56 -1.5t67 -1.5q27 0 68 1.5t56 1.5q3 0 3 -6t-3 -6
q-48 0 -61.5 -13t-13.5 -57z" />
    <glyph glyph-name="M" unicode="M" horiz-adv-x="850" 
d="M826 12q2 0 2 -6t-2 -6q-15 0 -57.5 1t-67.5 1t-65.5 -1t-55.5 -1q-2 0 -2 6t2 6q48 0 62 13t11 56l-20 424l-213 -498q-2 -4 -8.5 -4t-8.5 4l-250 494l-9 -380q-2 -109 85 -109q3 0 3 -6t-3 -6q-13 0 -45 1t-52 1q-22 0 -55 -1t-46 -1q-3 0 -3 6t3 6q41 0 63.5 28
t23.5 81l9 430q-35 62 -89 62q-3 0 -3 6t3 6q14 0 41 -1t36 -1q17 0 40 1t27 1q13 0 21 -9.5t25 -42.5l220 -429l199 456q11 25 30 25q4 0 19 -1t26 -1q21 0 50.5 1t42.5 1q2 0 2 -6t-2 -6q-48 0 -69.5 -17.5t-19.5 -57.5l23 -457q2 -44 15.5 -56.5t61.5 -12.5z" />
    <glyph glyph-name="N" unicode="N" horiz-adv-x="732" 
d="M717 625q2 0 2 -6t-2 -6q-40 0 -62 -28.5t-22 -81.5v-517q0 -3 -5 -4t-7 1l-469 545v-407q0 -53 21 -81t61 -28q2 0 2 -6t-2 -6q-13 0 -44 1t-50 1q-20 0 -55.5 -1t-49.5 -1q-3 0 -3 6t3 6q43 0 66.5 28t23.5 81v438q-50 54 -97 54q-2 0 -2 6t2 6q13 0 39.5 -1t37.5 -1
q23 0 55 1t38 1t10.5 -3t8 -8l12 -17t18.5 -24l359 -424v354q0 53 -21 81.5t-60 28.5q-2 0 -2 6t2 6q13 0 44 -1.5t50 -1.5q18 0 51.5 1.5t46.5 1.5z" />
    <glyph glyph-name="O" unicode="O" horiz-adv-x="766" 
d="M366 -12q-141 0 -229 94t-88 230q0 78 32 141.5t83.5 102.5t112.5 59.5t124 20.5q142 0 229 -95t87 -222q0 -138 -103.5 -234.5t-247.5 -96.5zM400 12q92 0 151 73.5t59 204.5q0 141 -68 230.5t-182 89.5q-97 0 -150.5 -69.5t-53.5 -192.5q0 -145 69 -240.5t175 -95.5z
" />
    <glyph glyph-name="P" unicode="P" horiz-adv-x="550" 
d="M208 85q0 -46 18.5 -59.5t85.5 -13.5q3 0 3 -6t-3 -6q-20 0 -70 1t-81 1q-25 0 -67 -1t-57 -1q-3 0 -3 6t3 6q48 0 61.5 12.5t13.5 56.5v463q0 43 -13.5 56t-61.5 13q-3 0 -3 6t3 6q15 0 56.5 -1.5t66.5 -1.5q14 0 63 3t74 3q97 0 154 -40t60 -124q2 -65 -32 -112.5
t-83 -68.5t-104 -21q-28 0 -47 5q-2 0 -2.5 3.5t1 6.5t3.5 3q16 -4 35 -4q52 0 88 43t36 123q0 79 -37 122.5t-102 43.5q-36 0 -47.5 -12t-11.5 -54v-457z" />
    <glyph glyph-name="Q" unicode="Q" horiz-adv-x="766" 
d="M745 -173q2 0 3.5 -2t1.5 -4.5t-1 -3.5q-45 -12 -82 -12q-74 0 -154.5 48.5t-138.5 134.5h-8q-141 0 -229 94t-88 230q0 78 32 141.5t83.5 102.5t112.5 59.5t124 20.5q142 0 229 -95t87 -222q0 -108 -65.5 -193t-168.5 -119q40 -79 104.5 -130.5t122.5 -51.5q17 0 35 2z
M156 348q0 -145 69 -240.5t175 -95.5q92 0 151 73.5t59 204.5q0 141 -68 230.5t-182 89.5q-97 0 -150.5 -69.5t-53.5 -192.5z" />
    <glyph glyph-name="R" unicode="R" horiz-adv-x="690" 
d="M699 12q3 0 3 -6t-3 -6h-161q-48 0 -238 317q-16 -3 -33 -3q-37 0 -52 1v-234q0 -44 13.5 -56.5t62.5 -12.5q2 0 2 -6t-2 -6q-16 0 -57 1t-68 1q-25 0 -67 -1t-57 -1q-3 0 -3 6t3 6q49 0 63 12.5t14 56.5v463q0 43 -14 56t-62 13q-2 0 -2 6t2 6q15 0 56.5 -1.5t66.5 -1.5
q19 0 64 3t65 3q89 0 137 -33t48 -93q0 -47 -28 -89t-73 -68q121 -187 190.5 -260t129.5 -73zM215 343q24 -4 58 -4q60 0 84 27t24 99q0 81 -27 112.5t-76 31.5q-36 0 -49.5 -14t-13.5 -53v-199z" />
    <glyph glyph-name="S" unicode="S" horiz-adv-x="507" 
d="M164 519q0 -28 10.5 -51.5t34 -45t41.5 -34t53 -34.5q39 -25 57 -37.5t44.5 -37.5t38 -53t11.5 -62q0 -78 -59 -127t-153 -49q-42 0 -86.5 11t-67.5 27q-9 6 -10 19l-6 152q-1 4 4 5t7 -3q15 -38 29.5 -66t37 -58.5t52.5 -47.5t65 -17q43 0 72 23.5t29 78.5
q0 34 -11 61.5t-36.5 51.5t-43 36.5t-54.5 36.5t-53.5 36t-41 35t-35 49.5t-10.5 58.5q0 76 60.5 117.5t141.5 41.5q74 0 125 -23q15 -6 15 -19l3 -136q0 -3 -5 -4.5t-7 2.5q-52 160 -154 160q-45 0 -71.5 -26t-26.5 -71z" />
    <glyph glyph-name="T" unicode="T" horiz-adv-x="640" 
d="M211 604q-119 0 -161 -151q0 -1 -3 -2t-5.5 0t-2.5 3q14 126 14 193q0 5 5.5 5t5.5 -5q0 -22 56 -22q85 -3 201 -3q52 0 112 1.5t81 1.5q38 0 55.5 5t22.5 20q1 4 6 4t5 -4q-9 -97 -9 -196q0 -3 -5.5 -3t-6.5 3q-20 150 -147 150q-41 0 -52.5 -11.5t-11.5 -50.5v-461
q0 -44 15.5 -56.5t71.5 -12.5q3 0 3 -6t-3 -6q-16 0 -61.5 1t-75.5 1q-27 0 -73 -1t-63 -1q-2 0 -2 6t2 6q56 0 72.5 12.5t16.5 56.5v463q0 37 -12 48.5t-51 11.5z" />
    <glyph glyph-name="U" unicode="U" horiz-adv-x="701" 
d="M571 503q0 52 -23.5 81t-67.5 29q-2 0 -2 6t2 6q15 0 49.5 -1.5t56.5 -1.5q18 0 51 1.5t47 1.5q2 0 2 -6t-2 -6q-39 0 -60.5 -29t-21.5 -81v-280q0 -109 -67 -173t-178 -64q-112 0 -181 63.5t-69 172.5v322q0 43 -14 56t-62 13q-3 0 -3 6t3 6q15 0 56.5 -1.5t66.5 -1.5
q27 0 68.5 1.5t55.5 1.5q3 0 3 -6t-3 -6q-47 0 -61.5 -14t-14.5 -57v-285q0 -119 49.5 -177.5t138.5 -58.5q85 0 133 52.5t48 148.5v281z" />
    <glyph glyph-name="V" unicode="V" horiz-adv-x="662" 
d="M666 625q3 0 3 -6t-3 -6q-36 0 -66 -27t-49 -78l-194 -507q-1 -4 -11 -4t-11 4l-253 541q-18 37 -36 54t-43 17q-3 0 -3 6t3 6q10 0 30.5 -1.5t45.5 -1.5q55 0 107 1.5t60 1.5q3 0 3 -6t-3 -6q-43 0 -57 -21t4 -61l186 -398l146 379q18 45 1.5 73t-66.5 28q-3 0 -3 6t3 6
q16 0 52.5 -1.5t65.5 -1.5q19 0 45.5 1.5t42.5 1.5z" />
    <glyph glyph-name="W" unicode="W" horiz-adv-x="918" 
d="M923 625q2 0 2 -6t-2 -6q-75 0 -116 -105l-194 -507q-1 -4 -11 -4t-11 4l-129 276l-105 -276q-1 -4 -11 -4t-11 4l-253 541q-21 44 -35.5 57.5t-43.5 13.5q-3 0 -3 6t3 6q10 0 30.5 -1.5t45.5 -1.5q45 0 87 1.5t50 1.5q3 0 3 -6t-3 -6q-41 0 -48 -15.5t16 -66.5l191 -407
l72 186l-109 232q-18 37 -33.5 54t-36.5 17q-3 0 -3 6t3 6q9 0 28 -1.5t40 -1.5q37 0 70.5 1.5t38.5 1.5q3 0 3 -6t-3 -6q-15 0 -21.5 -3t-7 -12.5t5 -24.5t18.5 -42l54 -114l36 95q21 52 18 76.5t-30 24.5q-3 0 -3 6t3 6q6 0 20.5 -1.5t44.5 -1.5q17 0 41.5 1.5t39.5 1.5
q2 0 2 -6t-2 -6q-67 0 -107 -105l-48 -124l123 -260l146 381q18 49 4 78.5t-57 29.5q-3 0 -3 6t3 6q15 0 49 -1.5t60 -1.5q19 0 45.5 1.5t43.5 1.5z" />
    <glyph glyph-name="X" unicode="X" horiz-adv-x="649" 
d="M641 12q3 0 3 -6t-3 -6q-13 0 -47 1t-55 1q-31 0 -74 -1t-58 -1q-3 0 -3 6t3 6q27 0 35 8t-5 31l-142 218l-100 -142q-38 -54 -33 -84.5t54 -30.5q2 0 2 -6t-2 -6q-17 0 -54 1t-67 1q-19 0 -44.5 -1t-41.5 -1q-3 0 -3 6t3 6q71 0 159 120l115 156l-161 247
q-49 78 -107 78q-3 0 -3 6t3 6q13 0 41 -1.5t41 -1.5q31 0 78 1.5t63 1.5q2 0 2 -6t-2 -6q-28 0 -36 -7.5t5 -32.5l137 -210l93 132q39 55 34.5 86.5t-53.5 31.5q-2 0 -2 6t2 6q17 0 54 -1.5t67 -1.5q19 0 44.5 1.5t41.5 1.5q3 0 3 -6t-3 -6q-72 0 -161 -123l-108 -146
l170 -261q47 -71 115 -71z" />
    <glyph glyph-name="Y" unicode="Y" horiz-adv-x="616" 
d="M621 625q2 0 2 -6t-2 -6q-33 0 -75 -34.5t-75 -88.5l-114 -185v-224q0 -44 13.5 -56.5t62.5 -12.5q3 0 3 -6t-3 -6q-15 0 -56.5 1t-67.5 1q-25 0 -67.5 -1t-57.5 -1q-2 0 -2 6t2 6q49 0 63 12.5t14 56.5v206l-152 232q-34 53 -58.5 73.5t-47.5 20.5q-3 0 -3 6t3 6
q10 0 32 -1.5t33 -1.5q30 0 86.5 1.5t71.5 1.5q2 0 2 -6t-2 -6q-32 0 -39.5 -17.5t10.5 -42.5l145 -223l102 167q32 53 24 84.5t-54 31.5q-2 0 -2 6t2 6q18 0 57.5 -1.5t71.5 -1.5q17 0 40 1.5t38 1.5z" />
    <glyph glyph-name="Z" unicode="Z" horiz-adv-x="602" 
d="M58 13l366 587q3 5 2.5 6.5t-7.5 1.5q-82 0 -127.5 -2t-87 -8.5t-64 -21t-40 -35.5t-33.5 -57q0 -1 -3.5 -1.5t-6 1t-2.5 3.5l40 168q0 1 3.5 1.5t6 -1t2.5 -2.5q-3 -18 7.5 -23t49.5 -5h365q5 0 7.5 -5t-0.5 -8l-360 -585q-4 -5 -3 -6.5t7 -1.5h220q58 0 101 36t53 92
q1 3 6 3t5 -3l-14 -139q0 -10 -9 -10q-149 2 -478 2q-5 0 -7 4.5t1 8.5z" />
    <glyph glyph-name="bracketleft" unicode="[" horiz-adv-x="274" 
d="M74 -106v821q0 7 1.5 8.5t7.5 1.5h153q3 0 3 -6t-3 -6q-49 0 -63 -13.5t-14 -57.5v-676q0 -44 14 -57.5t63 -13.5q3 0 3 -6t-3 -6h-153q-6 0 -7.5 2t-1.5 9z" />
    <glyph glyph-name="backslash" unicode="\" horiz-adv-x="348" 
d="M277 -164l-251 881q-1 3 10 7.5t21 6t13 -0.5l252 -882q1 -4 -21 -10t-24 -2z" />
    <glyph glyph-name="bracketright" unicode="]" horiz-adv-x="274" 
d="M200 -106q0 -7 -1.5 -9t-7.5 -2h-153q-3 0 -3 6t3 6q49 0 63 13.5t14 57.5v676q0 44 -14 57.5t-63 13.5q-3 0 -3 6t3 6h153q6 0 7.5 -1.5t1.5 -8.5v-821z" />
    <glyph glyph-name="asciicircum" unicode="^" horiz-adv-x="392" 
d="M333 380q1 -1 -1 -3t-4.5 -2.5t-3.5 0.5l-128 147l-128 -147q-3 -2 -7 0.5t-3 4.5l127 249q1 5 11 5t11 -5z" />
    <glyph glyph-name="underscore" unicode="_" horiz-adv-x="398" 
d="M34 -79q-3 0 -4 11.5t0 23t3 11.5h331q4 0 4 -23t-4 -23h-330z" />
    <glyph glyph-name="grave" unicode="`" horiz-adv-x="213" 
d="M29 727q-4 9 54 -1q32 -5 33 -10l38 -240q0 -1 -2 -2.5t-5 -1.5t-3 2z" />
    <glyph glyph-name="a" unicode="a" horiz-adv-x="420" 
d="M416 54q5 2 6.5 -3.5t-2.5 -7.5l-103 -49q-4 -2 -9 -2q-14 0 -27 16t-18 43l-52 -28q-58 -30 -99 -30q-32 0 -49.5 16.5t-17.5 45.5q0 31 22 46.5t84 36.5l109 37v80q0 118 -56 118q-54 0 -62 -79q-5 -50 -51 -50q-43 0 -43 37q0 39 68 76.5t125 37.5q45 0 72.5 -27.5
t27.5 -82.5v-177q0 -63 39 -63q15 0 36 9zM231 51l30 16q-1 4 -1 15v77l-71 -26q-48 -18 -48 -50q0 -21 12 -33t31 -12q21 0 47 13z" />
    <glyph glyph-name="b" unicode="b" horiz-adv-x="514" 
d="M316 399q69 0 116.5 -48.5t47.5 -137.5q0 -106 -64.5 -166t-152.5 -60q-78 0 -140 46l-85 -39q-3 -1 -5 1t-2 4.5t2 3.5q52 32 52 100v489q0 35 -7 50.5t-24 15.5q-12 0 -39 -12q-4 -1 -6.5 4.5t-0.5 7.5l139 66q3 1 5 1q4 0 9 -4t5 -7v-389q72 74 150 74zM289 7
q49 0 75 44t26 125q0 88 -31.5 132.5t-84.5 44.5q-51 0 -108 -46v-153q0 -75 39.5 -111t83.5 -36z" />
    <glyph glyph-name="c" unicode="c" horiz-adv-x="420" 
d="M233 -12q-97 0 -148.5 59.5t-51.5 138.5q0 94 71.5 151.5t158.5 57.5q47 0 85 -19t38 -51q0 -17 -13 -29.5t-36 -12.5q-38 0 -55 45q-10 25 -21 35.5t-35 10.5q-47 0 -74.5 -42.5t-27.5 -113.5q0 -83 38.5 -134.5t120.5 -51.5q48 0 98 29q2 2 5.5 -2t1.5 -6
q-71 -65 -155 -65z" />
    <glyph glyph-name="d" unicode="d" horiz-adv-x="511" 
d="M503 62q2 1 4.5 -1.5t3 -5.5t-1.5 -4l-128 -62q-3 -1 -6 -1q-10 0 -18.5 20t-9.5 54q-79 -75 -157 -75q-66 0 -111.5 52.5t-45.5 141.5q0 56 22 100t56.5 68.5t73 37t77.5 12.5q44 0 84 -16v209q0 35 -6.5 50.5t-23.5 15.5q-11 0 -40 -12q-3 -1 -5.5 1.5t-3 5.5t0.5 4
l141 67q2 1 4 1q4 0 9 -4t5 -7v-600q0 -35 7 -49.5t24 -14.5q20 0 45 12zM240 31q53 0 106 50v1v238q-40 55 -103 55q-119 0 -119 -163q0 -84 32.5 -132.5t83.5 -48.5z" />
    <glyph glyph-name="e" unicode="e" horiz-adv-x="415" 
d="M378 62q4 4 7 -4q1 -3 0 -5q-68 -65 -154 -65q-92 0 -145 56.5t-53 136.5q0 90 64.5 152t159.5 62q59 0 91 -26.5t32 -72.5q0 -27 -11 -27h-55l-188 -2q-3 -21 -3 -45q0 -87 40.5 -138.5t112.5 -51.5q57 0 102 30zM221 375q-33 0 -57 -24t-34 -66l156 3q-3 87 -65 87z
" />
    <glyph glyph-name="f" unicode="f" horiz-adv-x="305" 
d="M319 726q55 0 86 -15.5t31 -41.5q0 -20 -13.5 -31.5t-31.5 -11.5q-20 0 -30.5 9t-19.5 28q-12 21 -24.5 31.5t-35.5 10.5q-50 0 -79 -65t-29 -201v-62q52 1 116 9q7 0 7 -24q0 -6 -1.5 -12.5t-4 -10.5t-4.5 -3q-61 14 -113 15v-270q0 -44 16.5 -56.5t75.5 -12.5q4 0 4 -6
t-4 -6q-23 0 -67 1t-67 1q-20 0 -54.5 -1t-47.5 -1q-4 0 -4 6t4 6q39 0 51 13t12 56v225q0 33 -13 42t-54 9q-3 0 -3 8.5t3 8.5q37 0 50.5 9.5t14.5 34.5q5 163 61 235.5t168 72.5z" />
    <glyph glyph-name="g" unicode="g" horiz-adv-x="445" 
d="M245 40q99 -16 132 -33q54 -29 54 -88q0 -78 -75 -139.5t-177 -61.5q-73 0 -119 32.5t-46 84.5q0 76 108 151q-65 19 -65 71q0 56 76 101q-41 15 -64 45.5t-23 66.5q0 56 51 89.5t115 33.5q66 0 108 -32q54 34 109 34q7 0 7 -26q0 -31 -8 -40q-2 -2 -3 -1q-42 16 -72 16
q-9 0 -14 -1q27 -30 27 -70q0 -54 -50 -89.5t-116 -35.5q-28 0 -51 6q-26 -20 -26 -48q0 -17 9 -28.5t30 -18.5t36 -10.5t47 -8.5zM182 375q-51 0 -51 -80q0 -54 27 -92t67 -38q23 0 39 21t16 65q0 53 -29 88.5t-69 35.5zM228 -251q59 0 94.5 33t35.5 85q0 24 -10.5 41.5
t-23 27.5t-39 17.5t-42.5 10.5t-49 7q-48 8 -50 9q-44 -40 -44 -102q0 -61 35 -95t93 -34z" />
    <glyph glyph-name="h" unicode="h" horiz-adv-x="506" 
d="M486 12q4 0 4 -6t-4 -6q-12 0 -44.5 1t-52.5 1t-52.5 -1t-44.5 -1q-3 0 -3 6t3 6q33 0 45 14.5t12 54.5v149q0 110 -86 110q-59 0 -103 -46v-213q0 -41 11.5 -55t45.5 -14q4 0 4 -6t-4 -6q-12 0 -44.5 1t-52.5 1t-52.5 -1t-44.5 -1q-3 0 -3 6t3 6q33 0 45 14.5t12 54.5
v511q0 66 -30 66q-16 0 -41 -12q-2 -1 -4.5 1.5t-3 6t1.5 4.5l139 66q3 1 5 1q4 0 8.5 -4t4.5 -7v-400q72 83 153 83q55 0 85.5 -33t30.5 -90v-193q0 -41 11.5 -55t45.5 -14z" />
    <glyph glyph-name="i" unicode="i" horiz-adv-x="266" 
d="M136 501q-55 0 -55 54q0 52 55 52q53 0 53 -52q0 -54 -53 -54zM44 0q-3 0 -3 6t3 6q34 0 45 14t11 55v182q0 65 -31 65q-15 0 -39 -12q-3 -1 -5 1.5t-2.5 6t1.5 4.5l144 67q2 1 3 1q4 0 8.5 -4.5t4.5 -7.5q0 -1 -1 -40t-1 -80v-183q0 -41 11.5 -55t45.5 -14q3 0 3 -6
t-3 -6q-11 0 -44 1t-54 1q-20 0 -53 -1t-44 -1z" />
    <glyph glyph-name="j" unicode="j" horiz-adv-x="261" 
d="M131 501q-55 0 -55 54q0 52 55 52q53 0 53 -52q0 -54 -53 -54zM181 384q0 -1 -1 -40t-1 -80v-312q0 -100 -36 -151.5t-130 -82.5q-2 -1 -4.5 4.5t0.5 6.5q48 21 68 67t20 133v334q0 35 -6.5 50t-22.5 15t-40 -12q-3 -1 -5.5 1.5t-3 6t1.5 4.5l144 67q2 1 3 1
q4 0 8.5 -4.5t4.5 -7.5z" />
    <glyph glyph-name="k" unicode="k" horiz-adv-x="491" 
d="M492 12q3 0 3 -6t-3 -6q-12 0 -44.5 1t-52.5 1q-29 0 -68 -1t-53 -1q-2 0 -2 6t2 6q30 0 38.5 11t-5.5 30l-117 154l-30 -26v-100q0 -41 11.5 -55t45.5 -14q4 0 4 -6t-4 -6q-12 0 -44.5 1t-52.5 1t-52.5 -1t-44.5 -1q-3 0 -3 6t3 6q33 0 45 14.5t12 54.5v511q0 66 -30 66
q-16 0 -41 -12q-2 -1 -4.5 1.5t-3 6t1.5 4.5l139 66q3 1 5 1q4 0 8.5 -4t4.5 -7v-512l107 96q32 28 27.5 52t-43.5 24q-3 0 -3 6t3 6q14 0 51 -1t69 -1q30 0 64 1t45 1q3 0 3 -6t-3 -6q-41 0 -93 -20.5t-96 -59.5l-43 -37l133 -176q54 -69 111 -69z" />
    <glyph glyph-name="l" unicode="l" horiz-adv-x="265" 
d="M37 0q-3 0 -3 6t3 6q33 0 45 14.5t12 54.5v511q0 35 -6.5 50.5t-23.5 15.5q-14 0 -40 -12q-4 -1 -6.5 4.5t-0.5 7.5l141 66q2 1 4 1q4 0 9.5 -4t5.5 -7v-633q0 -41 11 -55t45 -14q3 0 3 -6t-3 -6q-11 0 -44 1t-54 1t-54 -1t-44 -1z" />
    <glyph glyph-name="m" unicode="m" horiz-adv-x="772" 
d="M753 12q4 0 4 -6t-4 -6q-12 0 -44.5 1t-52.5 1t-52.5 -1t-44.5 -1q-3 0 -3 6t3 6q33 0 45 14.5t12 54.5v149q0 110 -79 110q-58 0 -101 -48v-10v-201q0 -41 11.5 -55t45.5 -14q3 0 3 -6t-3 -6q-11 0 -44 1t-54 1q-20 0 -52.5 -1t-44.5 -1q-3 0 -3 6t3 6q34 0 45.5 14
t11.5 55v149q0 110 -79 110q-53 0 -97 -44v-215q0 -41 11 -55t45 -14q3 0 3 -6t-3 -6q-11 0 -44 1t-53 1t-53 -1t-44 -1q-3 0 -3 6t3 6q34 0 45 14t11 55v191q0 62 -32 62q-15 0 -50 -15q-6 -2 -7 7q-1 3 1 4l131 64q6 2 7 2q10 0 20.5 -22.5t11.5 -58.5q67 82 146 82
q95 0 109 -88q71 88 152 88q110 0 110 -123v-193q0 -41 11.5 -55t45.5 -14z" />
    <glyph glyph-name="n" unicode="n" horiz-adv-x="523" 
d="M504 12q3 0 3 -6t-3 -6q-11 0 -44 1t-53 1t-52.5 -1t-44.5 -1q-3 0 -3 6t3 6q34 0 45 14t11 55v150q0 56 -20.5 82.5t-64.5 26.5q-55 0 -102 -44v-215q0 -41 11 -55t45 -14q3 0 3 -6t-3 -6q-11 0 -44 1t-53 1t-53 -1t-44 -1q-3 0 -3 6t3 6q34 0 45 14t11 55v191
q0 62 -32 62q-15 0 -50 -15q-6 -2 -7 7q-1 3 1 4l131 64q6 2 7 2q10 0 20.5 -22.5t11.5 -58.5q70 83 152 83q55 0 86 -33.5t31 -90.5v-193q0 -41 11 -55t45 -14z" />
    <glyph glyph-name="o" unicode="o" horiz-adv-x="486" 
d="M235 -13q-90 0 -146 61.5t-56 149.5q0 96 67 148.5t152 52.5q90 0 145 -62t55 -145q0 -91 -63.5 -148t-153.5 -57zM265 7q91 0 91 153q0 100 -40 159.5t-97 59.5q-91 0 -91 -146q0 -99 39 -162.5t98 -63.5z" />
    <glyph glyph-name="p" unicode="p" horiz-adv-x="512" 
d="M260 -13q-48 0 -93 15v-196q0 -43 17 -56t76 -13q2 0 2 -6t-2 -6q-17 0 -62 1t-72 1q-20 0 -53 -1t-45 -1q-3 0 -3 6t3 6q37 0 47.5 13t10.5 56v465q0 33 -7.5 48t-25.5 15q-17 0 -48 -14q-3 -1 -5.5 1.5t-3 5.5t0.5 4l132 63q2 1 6 1q11 0 20 -18.5t11 -50.5
q77 73 156 73q65 0 111 -50t46 -134q0 -60 -20.5 -106t-54 -71.5t-70 -38t-74.5 -12.5zM264 349q-51 0 -97 -43v-2v-239q49 -54 115 -54q50 0 79 43.5t29 129.5q0 79 -36 122t-90 43z" />
    <glyph glyph-name="q" unicode="q" horiz-adv-x="497" 
d="M485 -263q3 0 3 -6t-3 -6q-11 0 -45 1t-54 1q-23 0 -63 -1t-56 -1q-2 0 -2 6t2 6q49 0 64 13t15 56v255q-74 -74 -150 -74q-69 0 -116 49t-47 136q0 109 67 168t155 59q79 0 140 -39l76 28q5 3 6 -5q1 -4 -2 -5q-49 -26 -49 -83v-489q0 -43 11 -56t48 -13zM238 33
q52 0 108 47v185q0 55 -35.5 84.5t-79.5 29.5q-107 0 -107 -170q0 -87 30.5 -131.5t83.5 -44.5z" />
    <glyph glyph-name="r" unicode="r" horiz-adv-x="374" 
d="M291 396q23 0 44 -15t21 -36q0 -19 -11.5 -31t-31.5 -12q-19 0 -38 19.5t-34 19.5q-19 0 -62 -44v-216q0 -41 18.5 -55t72.5 -14q4 0 4 -6t-4 -6q-15 0 -59.5 1t-72.5 1q-20 0 -53 -1t-44 -1q-3 0 -3 6t3 6q34 0 45 14t11 55v191q0 62 -32 62q-15 0 -50 -15q-6 -2 -7 7
q-1 3 1 4l131 64q6 2 7 2q10 0 20 -21.5t12 -56.5q70 78 112 78z" />
    <glyph glyph-name="s" unicode="s" horiz-adv-x="337" 
d="M112 334q0 -31 21.5 -52t62.5 -44q61 -34 80 -56q24 -27 24 -65q0 -52 -39 -90t-108 -38q-55 0 -101 28q-6 6 -6 12l-2 92q0 3 5.5 3.5t6.5 -1.5q17 -50 51.5 -82t73.5 -32q54 0 53 55q0 26 -14.5 46.5t-29 30.5t-42.5 25q-26 14 -37 20.5t-29 21t-25.5 33t-7.5 43.5
q0 57 41.5 85t100.5 28q39 0 80 -15q9 -4 9 -11q0 -11 -1 -39t-1 -45q0 -3 -6 -3t-6 3q0 31 -34.5 61t-73.5 30q-46 0 -46 -44z" />
    <glyph glyph-name="t" unicode="t" horiz-adv-x="337" 
d="M318 63q2 2 5 0.5t3.5 -4.5t-1.5 -5q-70 -66 -140 -66q-43 0 -72.5 20.5t-29.5 68.5v226q0 33 -10.5 44t-40.5 11q-4 0 -4 8t4 8q94 4 118 81q2 4 8.5 4t6.5 -4v-79q47 1 133 10q7 0 7 -24q0 -6 -1.5 -12.5t-4.5 -10.5t-5 -3q-56 13 -129 16v-242q0 -76 74 -76
q42 0 79 29z" />
    <glyph glyph-name="u" unicode="u" horiz-adv-x="501" 
d="M493 62q2 1 4.5 -1t3 -5t-1.5 -5l-131 -63q-2 -1 -4 -1q-10 0 -18 22.5t-9 60.5q-70 -81 -148 -81q-54 0 -84 33.5t-30 91.5v149q0 68 -31 68q-10 0 -28 -8q-2 -1 -4.5 1.5t-3 6t1.5 4.5l127 59q2 1 4 1q4 0 9 -4t5 -7v-227q0 -111 84 -111q53 0 98 45v172q0 68 -31 68
q-9 0 -28 -8q-2 -1 -4.5 2t-2.5 6t2 4l126 59q2 1 5 1q4 0 9 -4t5 -7v-271q0 -35 7 -49t23 -14q12 0 45 12z" />
    <glyph glyph-name="v" unicode="v" horiz-adv-x="438" 
d="M446 386q2 0 2 -6t-2 -6q-28 0 -48.5 -20t-39.5 -64l-124 -290q-2 -4 -10.5 -4t-11.5 4l-148 303q-21 44 -36 57.5t-37 13.5q-3 0 -3 6t3 6q8 0 36 -1t51 -1q29 0 67 1t51 1q3 0 3 -6t-3 -6q-35 0 -50 -8.5t-4 -30.5l115 -226l76 183q16 39 -1 60.5t-61 21.5q-2 0 -2 6
t2 6q14 0 45 -1t56 -1q16 0 38 1t36 1z" />
    <glyph glyph-name="w" unicode="w" horiz-adv-x="680" 
d="M688 386q3 0 3 -6t-3 -6q-27 0 -47.5 -20t-39.5 -64l-124 -289q-1 -4 -10.5 -4t-11.5 4l-118 240l-103 -240q-1 -4 -10.5 -4t-11.5 4l-148 302q-22 43 -37 57t-36 14q-3 0 -3 6t3 6q8 0 36 -1t51 -1q26 0 61.5 1t47.5 1q3 0 3 -6t-3 -6q-31 0 -45.5 -9t-2.5 -30l118 -225
l66 158l-17 35q-22 44 -34 57.5t-31 13.5q-2 0 -2 6t2 6q8 0 33.5 -1t46.5 -1q27 0 62 1t47 1q2 0 2 -6t-2 -6q-29 0 -42.5 -10t-2.5 -29l115 -226l75 183q16 39 -0.5 60.5t-60.5 21.5q-3 0 -3 6t3 6q14 0 45 -1t55 -1q16 0 38 1t36 1z" />
    <glyph glyph-name="x" unicode="x" horiz-adv-x="440" 
d="M433 12q3 0 3 -6t-3 -6q-11 0 -35 1t-35 1q-26 0 -62.5 -1t-48.5 -1q-3 0 -3 6t3 6q41 0 15 39l-69 104l-43 -63q-55 -80 26 -80q3 0 3 -6t-3 -6q-14 0 -45 1t-55 1q-17 0 -39 -1t-35 -1q-3 0 -3 6t3 6q62 0 126 87l53 73l-87 131q-46 71 -84 71q-2 0 -2 6t2 6
q10 0 31 -1t31 -1q25 0 61.5 1t49.5 1q2 0 2 -6t-2 -6q-42 0 -15 -39l62 -94l35 53q55 80 -26 80q-2 0 -2 6t2 6q14 0 45 -1t56 -1q17 0 38.5 1t35.5 1q3 0 3 -6t-3 -6q-63 0 -126 -87l-47 -63l94 -141q48 -71 93 -71z" />
    <glyph glyph-name="y" unicode="y" horiz-adv-x="430" 
d="M438 386q2 0 2 -6t-2 -6q-55 0 -91 -97l-115 -305q-53 -141 -101.5 -197t-109.5 -56q-59 0 -59 46q0 20 12.5 30.5t30.5 10.5t38 -12.5t36 -12.5q33 0 61.5 43t73.5 159l-158 320q-22 43 -34.5 57t-30.5 14q-3 0 -3 6t3 6q12 0 39.5 -1t39.5 -1q26 0 61.5 1t47.5 1
q3 0 3 -6t-3 -6q-36 0 -47 -8.5t0 -30.5l122 -252l67 194q34 97 -58 97q-2 0 -2 6t2 6q14 0 45 -1t56 -1q16 0 38 1t36 1z" />
    <glyph glyph-name="z" unicode="z" horiz-adv-x="405" 
d="M36 12l229 353q3 7 -5 7q-93 0 -144.5 -23.5t-69.5 -77.5q0 -1 -3.5 -1.5t-6 1t-1.5 3.5l40 148q0 1 3.5 1.5t6 -1t1.5 -3.5q-5 -19 6.5 -26t42.5 -7h224q4 0 7 -4t1 -8l-231 -350q-3 -7 5 -7q111 0 159 23.5t64 85.5q1 3 6.5 3t5.5 -3l-2 -115q0 -11 -10 -11h-321
q-4 0 -6.5 4t-0.5 8z" />
    <glyph glyph-name="braceleft" unicode="{" horiz-adv-x="289" 
d="M32 298q-3 0 -3 6.5t3 6.5q39 6 52 65t13 153q0 86 13 126.5t43.5 55t96.5 14.5q4 0 4 -6t-4 -6q-60 0 -62 -106q-1 -65 -2 -94.5t-5.5 -67.5t-10.5 -53t-19.5 -34.5t-31.5 -30t-46 -22.5q21 -9 36 -17.5t27.5 -21t20 -22t13.5 -31t9 -36t5 -47.5t2.5 -57l1.5 -72
q2 -106 62 -106q4 0 4 -6t-4 -6q-96 0 -124.5 36t-28.5 161q0 95 -13 153.5t-52 64.5z" />
    <glyph glyph-name="bar" unicode="|" horiz-adv-x="168" 
d="M63 -154v885q0 7 22.5 7t22.5 -7v-885q0 -8 -22.5 -8t-22.5 8z" />
    <glyph glyph-name="braceright" unicode="}" horiz-adv-x="283" 
d="M251 298q-39 -6 -52 -64.5t-13 -153.5q0 -125 -28.5 -161t-124.5 -36q-4 0 -4 6t4 6q60 0 62 106l1.5 72t2.5 57t5 47.5t9 36t13.5 31t20 22t27.5 21t36 17.5q-28 12 -46 22.5t-31.5 30t-19.5 34.5t-10.5 53t-5.5 67.5t-2 94.5q-2 106 -62 106q-4 0 -4 6t4 6
q66 0 96.5 -14.5t43.5 -55t13 -126.5q0 -94 13 -153t52 -65q3 0 3 -6.5t-3 -6.5z" />
    <glyph glyph-name="asciitilde" unicode="~" horiz-adv-x="443" 
d="M314 207q19 0 35 7t22.5 13t17.5 18q1 1 3.5 0t3.5 -3t0 -4q-37 -56 -61 -75t-52 -19q-26 0 -75 18t-79 18q-10 0 -18 -1.5t-13 -3t-12 -6.5t-9.5 -7t-11 -10l-10.5 -10q-1 -1 -3 0t-3.5 3t-0.5 4q61 94 120 94q19 0 68 -18t78 -18z" />
    <glyph glyph-name="uni00A0" unicode="&#xa0;" horiz-adv-x="234" 
 />
    <glyph glyph-name="exclamdown" unicode="&#xa1;" horiz-adv-x="258" 
d="M135 365q25 0 40 -15t15 -40q0 -24 -15 -38.5t-40 -14.5q-26 0 -40 14.5t-14 38.5q0 26 14 40.5t40 14.5zM191 -263q2 -5 -18.5 -8.5t-43.5 -3.5q-22 0 -43 3.5t-19 8.5q30 121 51 428q0 5 13.5 5t13.5 -5q16 -299 46 -428z" />
    <glyph glyph-name="cent" unicode="&#xa2;" horiz-adv-x="533" 
d="M477 140q1 4 6 3t5 -4l-10 -106q-1 -13 -14 -18q-77 -27 -160 -27h-3v-90q0 -7 -13.5 -7t-13.5 7v91q-65 5 -114 30t-75.5 62t-39.5 76t-13 79q0 95 68.5 163t173.5 79v83q0 7 13.5 7t13.5 -7v-81h8q92 0 152 -29q11 -5 11 -17l7 -103q0 -3 -5.5 -4t-6.5 3
q-59 126 -166 130v-452q6 -1 17 -1q55 0 92.5 32t66.5 101zM135 251q0 -85 35.5 -153t103.5 -86v447q-65 -8 -102 -64.5t-37 -143.5z" />
    <glyph glyph-name="sterling" unicode="&#xa3;" horiz-adv-x="432" 
d="M368 127q0 1 3 1.5t6 -0.5t3 -2q-9 -52 -9 -111q0 -15 -15 -15h-337q-3 0 -3 5.5t3 6.5q54 12 72 38t16 65q-3 55 -18 101h-43q-7 0 -7 13.5t7 13.5h34q-17 51 -17 86q0 77 52.5 114t131.5 37q47 0 89 -14q15 -6 16 -19l7 -103q0 -4 -5 -4t-7 4q-25 57 -51.5 87.5
t-67.5 30.5t-59.5 -28.5t-18.5 -70.5q0 -37 24 -120h100q7 0 7 -13.5t-7 -13.5h-92q9 -40 9 -68q0 -64 -47 -102h107q63 0 84.5 15t32.5 66z" />
    <glyph glyph-name="currency" unicode="&#xa4;" horiz-adv-x="414" 
d="M365 66l-34 -33l-49 55q-40 -23 -86 -23q-40 0 -70 19l-45 -51l-29 29l44 46q-35 40 -35 94t36 88l-50 50l34 31l51 -55q37 19 79 19t74 -20l51 53l28 -28l-49 -50q34 -37 34 -89q0 -50 -33 -86zM215 87q30 0 47.5 24.5t17.5 68.5q0 54 -25 93.5t-67 39.5
q-28 0 -44.5 -23t-16.5 -67q0 -53 23 -94.5t65 -41.5z" />
    <glyph glyph-name="yen" unicode="&#xa5;" horiz-adv-x="492" 
d="M488 468q3 0 3 -6t-3 -6q-62 0 -113 -90l-78 -136v-17h95q7 0 7 -12t-7 -12h-283q-7 0 -7 12t7 12h98v1l-111 171q-46 71 -93 71q-3 0 -3 6t3 6q9 0 36.5 -1.5t36.5 -1.5q26 0 80 1.5t67 1.5q2 0 2 -6t-2 -6q-71 0 -36 -52l98 -151l64 114q22 37 13.5 63t-45.5 26
q-3 0 -3 6t3 6q16 0 51 -1.5t64 -1.5q13 0 29.5 1.5t26.5 1.5zM392 146q7 0 7 -12.5t-7 -12.5h-95v-40q0 -44 13.5 -56.5t64.5 -12.5q2 0 2 -6t-2 -6q-16 0 -56.5 1t-67.5 1q-23 0 -65 -1t-58 -1q-3 0 -3 6t3 6q50 0 64.5 13t14.5 56v40h-98q-7 0 -7 12.5t7 12.5h283z" />
    <glyph glyph-name="brokenbar" unicode="&#xa6;" horiz-adv-x="168" 
d="M63 360v371q0 7 22.5 7t22.5 -7v-371q0 -7 -22.5 -7t-22.5 7zM63 -154v370q0 8 22.5 8t22.5 -8v-370q0 -8 -22.5 -8t-22.5 8z" />
    <glyph glyph-name="section" unicode="&#xa7;" horiz-adv-x="472" 
d="M344 33q41 -41 41 -90q0 -64 -48 -97.5t-115 -33.5q-51 0 -87 18q-11 7 -11 17l-8 111q0 2 5.5 2t6.5 -2q15 -40 49.5 -81.5t78.5 -41.5q25 0 40.5 17.5t15.5 51.5q0 41 -24 72.5t-58 53.5l-68.5 45t-58.5 60t-24 86q0 35 15.5 64.5t57.5 65.5q-40 40 -40 90
q0 63 48.5 97t115.5 34q51 0 86 -19q11 -5 11 -16l8 -111q0 -3 -5.5 -3t-6.5 3q-15 40 -49.5 81.5t-78.5 41.5q-25 0 -40.5 -17.5t-15.5 -51.5q0 -41 24 -72.5t58 -53.5l68 -45.5t58 -60t24 -85.5q0 -35 -15.5 -64.5t-57.5 -65.5zM145 265q0 -36 12 -65.5t34 -51t43 -37
t51 -35t46 -32.5q20 29 20 75q0 44 -21 80.5t-44.5 55t-63.5 45t-57 40.5q-20 -29 -20 -75z" />
    <glyph glyph-name="dieresis" unicode="&#xa8;" horiz-adv-x="322" 
d="M75 469q-51 0 -51 50q0 23 13.5 35.5t37.5 12.5q23 0 35.5 -12.5t12.5 -35.5q0 -50 -48 -50zM249 469q-23 0 -36.5 13t-13.5 37q0 22 13.5 35t36.5 13t36 -12.5t13 -35.5q0 -50 -49 -50z" />
    <glyph glyph-name="copyright" unicode="&#xa9;" horiz-adv-x="724" 
d="M377 -105q-126 0 -218 78.5t-92 214.5q0 135 102.5 224t237.5 89q116 0 187.5 -68t71.5 -164q0 -93 -74 -161.5t-184 -68.5q-92 0 -137 46t-45 110q0 77 53 123t122 46q40 0 71.5 -15t31.5 -42q0 -38 -38 -38q-24 0 -41 33q-8 13 -13 20t-16.5 13.5t-25.5 6.5
q-36 0 -49.5 -28t-13.5 -87q0 -70 36 -115.5t111 -45.5q63 0 108.5 46.5t45.5 125.5q0 101 -67 170.5t-167 69.5q-113 0 -177.5 -76t-64.5 -189q0 -131 79.5 -207.5t199.5 -76.5q104 0 188 49q4 2 7 -3q1 -3 -1 -4q-98 -76 -228 -76z" />
    <glyph glyph-name="ordfeminine" unicode="&#xaa;" horiz-adv-x="285" 
d="M273 407q2 1 4.5 -1t2.5 -4.5t-1 -3.5l-68 -32q-12 -5 -23 5t-14 32l-34 -18q-36 -20 -63 -20q-22 0 -35 11t-13 28q0 33 48 50l96 34v50q0 46 -10 60t-29 14q-15 0 -25.5 -14.5t-12.5 -36.5q-7 -33 -34 -33q-15 0 -24 8t-9 22q0 25 47 48.5t85 23.5q30 0 48.5 -18
t18.5 -54v-117q0 -34 9.5 -40.5t35.5 6.5zM143 399l30 16v4v58l-52 -21q-28 -12 -28 -33q0 -29 27 -29q11 0 23 5zM262 317q4 0 4 -16.5t-4 -16.5h-224q-3 0 -4 8t0 16.5t3 8.5h225z" />
    <glyph glyph-name="guillemotleft" unicode="&#xab;" horiz-adv-x="469" 
d="M239 40l-184 149q-11 11 0 23l184 149q1 2 3 1.5t3.5 -3t0.5 -3.5l-102 -155l102 -155q1 -3 -3 -6q-3 -2 -4 0zM404 40l-185 149q-10 11 0 23l185 149q1 2 3 1.5t3.5 -3t0.5 -3.5l-103 -155l103 -155q1 -3 -3 -6q-3 -2 -4 0z" />
    <glyph glyph-name="logicalnot" unicode="&#xac;" horiz-adv-x="395" 
d="M364 270v-193q0 -3 -11 -4t-22.5 0t-11.5 3v150h-285q-3 0 -4 11t0 22t3 11h331z" />
    <glyph glyph-name="uni00AD" unicode="&#xad;" horiz-adv-x="323" 
d="M32 158q-3 0 -4 12t-0.5 25t2.5 13l261 47q3 0 4 -12t0 -25t-4 -13z" />
    <glyph glyph-name="registered" unicode="&#xae;" horiz-adv-x="743" 
d="M397 725q129 0 208.5 -78t79.5 -196q0 -131 -93 -222t-227 -91q-118 0 -208 78.5t-90 205.5q0 134 97.5 218.5t232.5 84.5zM400 165q109 0 168 70t59 184q0 129 -74 205.5t-193 76.5q-116 0 -176.5 -70.5t-60.5 -175.5q0 -129 81.5 -209.5t195.5 -80.5zM562 281q2 0 2 -4
t-2 -4h-92q-16 0 -93 161q-21 -3 -43 -3v-102q0 -30 8 -37.5t37 -7.5q1 0 1 -5.5t-1 -5.5q-9 0 -33 0.5t-40 0.5q-12 0 -38 -0.5t-33 -0.5q-1 0 -1 5.5t1 5.5q25 0 31.5 7.5t6.5 37.5v215q0 28 -6.5 36t-31.5 8q-1 0 -1 6t1 6q10 0 34.5 -0.5t36.5 -0.5q13 0 42 2t40 2
q98 0 98 -68q0 -57 -56 -85q40 -82 67.5 -118t64.5 -51zM334 447q49 -5 68.5 10t19.5 57q0 76 -50 76q-23 0 -30.5 -8t-7.5 -40v-95z" />
    <glyph glyph-name="macron" unicode="&#xaf;" horiz-adv-x="345" 
d="M47 477q-8 0 -8 17t8 17h251q9 0 9 -17t-9 -17h-251z" />
    <glyph glyph-name="degree" unicode="&#xb0;" horiz-adv-x="332" 
d="M167 373q-61 0 -99.5 37t-38.5 93q0 53 38.5 90t99.5 37t98.5 -37t37.5 -92t-37.5 -91.5t-98.5 -36.5zM174 386q37 0 48 26.5t11 81.5q0 123 -72 123q-35 0 -48 -28.5t-13 -82.5q0 -120 74 -120z" />
    <glyph glyph-name="plusminus" unicode="&#xb1;" horiz-adv-x="398" 
d="M34 230q-3 0 -4 11.5t0 22.5t3 11h143v143q0 4 23 4t23 -4v-143h142q4 0 4 -22.5t-4 -22.5h-142v-142q0 -3 -11.5 -4t-23 0t-11.5 3v143h-142zM364 42q4 0 4 -20.5t-4 -20.5h-330q-3 0 -4 10.5t0 20.5t3 10h331z" />
    <glyph glyph-name="uni00B2" unicode="&#xb2;" horiz-adv-x="252" 
d="M24 409q12 50 43 91.5l54.5 74.5t23.5 71q0 58 -44 58q-22 0 -39 -15t-24 -38q-1 -5 -8 -1q-4 1 -3 4q24 76 99 76q42 0 63.5 -20.5t21.5 -52.5q0 -29 -20 -57t-45 -47.5t-50 -45t-33 -47.5q0 -4 3 -4q92 0 117.5 7.5t28.5 37.5q0 1 5.5 1t5.5 -1l-2 -93q0 -5 -4 -5h-190
q-5 0 -3 6z" />
    <glyph glyph-name="uni00B3" unicode="&#xb3;" horiz-adv-x="251" 
d="M150 574q75 -16 75 -77q0 -39 -29 -70t-80 -31q-73 0 -94 69q0 2 2.5 4t6 1.5t3.5 -2.5q20 -48 68 -48q56 0 56 71q0 73 -75 73q-4 0 -3.5 6t3.5 6q30 0 46 19.5t16 49.5q0 56 -45 56q-22 0 -39 -15.5t-21 -35.5q-2 -3 -7.5 -2t-4.5 5q19 76 98 76q41 0 63.5 -20.5
t22.5 -52.5q0 -27 -17.5 -49.5t-44.5 -32.5z" />
    <glyph glyph-name="acute" unicode="&#xb4;" horiz-adv-x="212" 
d="M69 474q0 -2 -3 -2t-5.5 1.5t-2.5 2.5l39 240q4 9 60 14q29 3 26 -3z" />
    <glyph glyph-name="paragraph" unicode="&#xb6;" horiz-adv-x="651" 
d="M346 -193q-38 0 -60 14.5t-22 39.5q0 42 44 42q22 0 32.5 -12t11.5 -26t7 -26t19 -12q23 0 31.5 39.5t8.5 141.5v117q-24 -3 -56 -3q-57 0 -109 14t-98 43t-73.5 82.5t-27.5 124.5q0 118 75 180t207 62q20 0 68.5 -3t79.5 -3q19 0 56.5 1.5t53.5 1.5q3 0 3 -6t-3 -6
q-43 0 -66 -21t-23 -60l1 -477q0 -129 -38 -188.5t-122 -59.5z" />
    <glyph glyph-name="periodcentered" unicode="&#xb7;" horiz-adv-x="195" 
d="M97 146q-25 0 -40 15t-15 40q0 24 15 38.5t40 14.5q26 0 40 -14.5t14 -38.5q0 -26 -14 -40.5t-40 -14.5z" />
    <glyph glyph-name="cedilla" unicode="&#xb8;" horiz-adv-x="232" 
d="M118 -2q-11 -39 -4 -57t38 -36q55 -33 55 -78q0 -40 -29 -71t-87 -31q-71 0 -71 45q0 14 10.5 25t25.5 11q17 0 25.5 -9t11 -20t11 -20t24.5 -9q26 0 26 28q0 26 -18.5 47t-65.5 47q-6 3 -8.5 6t-2 8t4.5 15q14 33 38 100z" />
    <glyph glyph-name="uni00B9" unicode="&#xb9;" horiz-adv-x="262" 
d="M40 403q-2 0 -2 6t2 6q45 0 55.5 11t10.5 58v118q0 62 -10 70.5t-61 -13.5q-5 -2 -7 7q-1 3 1 4l129 58q3 2 6.5 -1t3.5 -6v-237q0 -47 9.5 -58t52.5 -11q2 0 2 -6t-2 -6q-12 0 -42.5 1.5t-49.5 1.5t-52.5 -1.5t-45.5 -1.5z" />
    <glyph glyph-name="ordmasculine" unicode="&#xba;" horiz-adv-x="322" 
d="M156 359q-57 0 -92 40.5t-35 98.5q0 63 43 97.5t96 34.5q57 0 91.5 -40t34.5 -95q0 -56 -41 -96t-97 -40zM171 374q28 0 44 27.5t16 75.5q0 58 -23 97.5t-59 39.5q-27 0 -42 -25.5t-15 -71.5q0 -58 22.5 -100.5t56.5 -42.5zM40 284q-3 0 -4 8t0 16.5t3 8.5h243
q4 0 4 -16.5t-4 -16.5h-242z" />
    <glyph glyph-name="guillemotright" unicode="&#xbb;" horiz-adv-x="469" 
d="M65 361l184 -149q11 -12 0 -23l-184 -149q-2 -4 -6 1q-2 3 -1 5l102 154l-102 156q-1 2 3 5q3 2 4 0zM229 361l185 -149q10 -12 0 -23l-185 -149q-2 -4 -6 1q-2 3 -1 5l102 154l-102 156q-1 2 3 5q3 2 4 0z" />
    <glyph glyph-name="onequarter" unicode="&#xbc;" 
d="M230 320q2 0 2 -5.5t-2 -5.5q-12 0 -42.5 1t-49.5 1t-52.5 -1t-45.5 -1q-2 0 -2 5.5t2 5.5q45 0 55.5 11t10.5 58v119q0 62 -10 70.5t-61 -13.5q-5 -3 -7 5q-1 4 1 5l129 59q3 1 6.5 -1.5t3.5 -5.5v-238q0 -47 9.5 -58t52.5 -11zM437 629q2 3 16.5 -3t13.5 -9l-280 -618
q0 -2 -7.5 1t-14.5 7.5t-7 5.5zM581 88q-7 1 -20 1.5t-20 0.5v-49q0 -20 6 -25t34 -5q1 0 1 -6t-1 -6q-9 0 -30.5 0.5t-36.5 0.5q-17 0 -45 -0.5t-39 -0.5q-2 0 -2 6t2 6q34 0 42.5 5t8.5 25v51q-70 2 -126 2q-3 0 -5 3.5t1 5.5l163 218q3 4 15 3.5t12 -4.5v-207q7 1 20 1.5
t20 0.5q3 0 3 -13.5t-3 -13.5zM389 109q21 0 51 0.5t41 0.5v136l-94 -134q-3 -3 2 -3z" />
    <glyph glyph-name="onehalf" unicode="&#xbd;" horiz-adv-x="611" 
d="M40 309q-2 0 -2 5.5t2 5.5q45 0 55.5 11t10.5 58v119q0 62 -10 70.5t-61 -13.5q-5 -3 -7 5q-1 4 1 5l129 59q3 1 6.5 -1.5t3.5 -5.5v-238q0 -47 9.5 -58t52.5 -11q2 0 2 -5.5t-2 -5.5q-12 0 -42.5 1t-49.5 1t-52.5 -1t-45.5 -1zM187 -1q0 -2 -7.5 1t-14.5 7.5t-7 5.5
l279 616q2 3 16.5 -3t13.5 -9zM383 6q10 40 31.5 75t40.5 55t34 48t15 59q0 57 -44 57q-22 0 -39 -14.5t-24 -37.5q0 -2 -3 -2.5t-5.5 1t-2.5 3.5q24 76 99 76q42 0 63.5 -20t21.5 -52q0 -29 -20 -57t-45 -47.5t-50 -45t-33 -48.5q0 -3 3 -3q91 0 117 8t29 37q0 2 5.5 2
t5.5 -2l-2 -93q0 -5 -4 -5h-190q-4 0 -3 6z" />
    <glyph glyph-name="threequarters" unicode="&#xbe;" horiz-adv-x="594" 
d="M225 403q0 -39 -29 -70t-80 -31q-73 0 -94 69q0 2 2.5 3.5t6 1t3.5 -2.5q20 -47 68 -47q56 0 56 70q0 74 -75 74q-4 0 -3.5 6t3.5 6q30 0 46 19.5t16 49.5q0 56 -45 56q-22 0 -39 -15.5t-21 -35.5q-2 -6 -10 -2q-2 2 -2 4q19 76 98 76q41 0 63.5 -20.5t22.5 -52.5
q0 -27 -17.5 -49t-44.5 -32q34 -7 54.5 -26.5t20.5 -50.5zM426 629q2 3 16.5 -3t13.5 -9l-280 -618q0 -2 -7.5 1t-14.5 7.5t-7 5.5zM570 88q-7 1 -20 1.5t-20 0.5v-49q0 -20 6 -25t34 -5q1 0 1 -6t-1 -6q-9 0 -30.5 0.5t-36.5 0.5q-17 0 -45 -0.5t-39 -0.5q-1 0 -1 6t1 6
q34 0 42.5 5t8.5 25v51q-70 2 -126 2q-3 0 -5 3.5t1 5.5l163 218q3 4 15 3.5t12 -4.5v-207q7 1 20 1.5t20 0.5q3 0 3 -13.5t-3 -13.5zM378 109q21 0 51 0.5t41 0.5v136l-94 -134q-3 -3 2 -3z" />
    <glyph glyph-name="questiondown" unicode="&#xbf;" horiz-adv-x="327" 
d="M176 361q25 0 40 -15t15 -40q0 -24 -15 -38.5t-40 -14.5q-26 0 -40 14.5t-14 38.5q0 26 14 40.5t40 14.5zM164 -258q29 0 33 43q2 17 5 27.5t15 22t31 11.5q23 0 34 -13t11 -30q0 -32 -37.5 -55t-92.5 -23q-63 0 -105.5 31t-42.5 88q0 19 4.5 35.5t17 32l18.5 22.5
t26.5 24.5t23.5 20.5q61 55 61 123q0 20 -6 54q0 2 3 3.5t7 1.5t5 -2q26 -60 26 -120q0 -32 -14 -57.5t-30.5 -40.5t-30.5 -43.5t-14 -65.5q0 -40 14 -65t38 -25z" />
    <glyph glyph-name="Agrave" unicode="&#xc0;" horiz-adv-x="711" 
d="M227 756q-11 2 13 13q47 23 72 22q3 0 4 -1l41.5 -31.5l50 -37.5t46.5 -32q5 -2 1 -8q-2 -4 -5 -2q-113 50 -223 77zM711 12q5 0 5 -6t-5 -6q-19 0 -61 2t-61 2q-23 0 -58 -2t-54 -2q-5 0 -5 6t5 6q45 0 53.5 16t-14.5 63l-108 219h-181l-77 -173q-25 -61 -2 -93t84 -32
q4 0 4 -6t-4 -6q-19 0 -55 2t-63 2q-26 0 -60.5 -2t-55.5 -2q-4 0 -4 6t4 6q41 0 66 26.5t61 108.5l215 484q2 3 9 3t8 -3l245 -494q35 -72 58.5 -98.5t50.5 -26.5zM238 335h158l-83 168z" />
    <glyph glyph-name="Aacute" unicode="&#xc1;" horiz-adv-x="711" 
d="M253 679q-4 -2 -6 3t1 7q31 19 78 55.5t60 45.5q10 7 66 -16q27 -11 26 -16q0 -1 -3 -2q-108 -27 -222 -77zM711 12q5 0 5 -6t-5 -6q-19 0 -61 2t-61 2q-23 0 -58 -2t-54 -2q-5 0 -5 6t5 6q45 0 53.5 16t-14.5 63l-108 219h-181l-77 -173q-25 -61 -2 -93t84 -32q4 0 4 -6
t-4 -6q-19 0 -55 2t-63 2q-26 0 -60.5 -2t-55.5 -2q-4 0 -4 6t4 6q41 0 66 26.5t61 108.5l215 484q2 3 9 3t8 -3l245 -494q35 -72 58.5 -98.5t50.5 -26.5zM238 335h158l-83 168z" />
    <glyph glyph-name="Acircumflex" unicode="&#xc2;" horiz-adv-x="711" 
d="M241 648q-1 0 -3 1t-3 3t0 3l103 110q12 11 23 0l102 -110q2 -1 1.5 -3t-3 -3.5t-3.5 -0.5l-108 45zM711 12q5 0 5 -6t-5 -6q-19 0 -61 2t-61 2q-23 0 -58 -2t-54 -2q-5 0 -5 6t5 6q45 0 53.5 16t-14.5 63l-108 219h-181l-77 -173q-25 -61 -2 -93t84 -32q4 0 4 -6t-4 -6
q-19 0 -55 2t-63 2q-26 0 -60.5 -2t-55.5 -2q-4 0 -4 6t4 6q41 0 66 26.5t61 108.5l215 484q2 3 9 3t8 -3l245 -494q35 -72 58.5 -98.5t50.5 -26.5zM238 335h158l-83 168z" />
    <glyph glyph-name="Atilde" unicode="&#xc3;" horiz-adv-x="711" 
d="M228 697q-2 -2 -5.5 1.5t-1.5 5.5q43 75 87 75q12 0 54.5 -12t67.5 -12q29 0 50 27q2 2 5.5 -1.5t1.5 -5.5q-26 -45 -43 -60t-38 -15q-19 0 -61 12t-66 12q-7 0 -13 -1t-9.5 -2t-8 -4.5l-6.5 -5t-7 -7t-7 -7.5zM711 12q5 0 5 -6t-5 -6q-19 0 -61 2t-61 2q-23 0 -58 -2
t-54 -2q-5 0 -5 6t5 6q45 0 53.5 16t-14.5 63l-108 219h-181l-77 -173q-25 -61 -2 -93t84 -32q4 0 4 -6t-4 -6q-19 0 -55 2t-63 2q-26 0 -60.5 -2t-55.5 -2q-4 0 -4 6t4 6q41 0 66 26.5t61 108.5l215 484q2 3 9 3t8 -3l245 -494q35 -72 58.5 -98.5t50.5 -26.5zM238 335h158
l-83 168z" />
    <glyph glyph-name="Adieresis" unicode="&#xc4;" horiz-adv-x="711" 
d="M264 708q-51 0 -51 50q0 23 13.5 35.5t37.5 12.5q22 0 35 -13t13 -35q0 -50 -48 -50zM438 708q-23 0 -36.5 13t-13.5 37q0 22 13.5 35t36.5 13t36 -12.5t13 -35.5q0 -50 -49 -50zM711 12q5 0 5 -6t-5 -6q-19 0 -61 2t-61 2q-23 0 -58 -2t-54 -2q-5 0 -5 6t5 6
q45 0 53.5 16t-14.5 63l-108 219h-181l-77 -173q-25 -61 -2 -93t84 -32q4 0 4 -6t-4 -6q-19 0 -55 2t-63 2q-26 0 -60.5 -2t-55.5 -2q-4 0 -4 6t4 6q41 0 66 26.5t61 108.5l215 484q2 3 9 3t8 -3l245 -494q35 -72 58.5 -98.5t50.5 -26.5zM238 335h158l-83 168z" />
    <glyph glyph-name="Aring" unicode="&#xc5;" horiz-adv-x="711" 
d="M343 661q-46 0 -73.5 23.5t-27.5 56.5q0 36 34 56.5t76 20.5q41 0 70.5 -23t29.5 -56q0 -35 -33 -56.5t-76 -21.5zM332 805q-26 0 -26 -44q0 -34 14 -60.5t38 -26.5q30 0 30 47q0 34 -16.5 59t-39.5 25zM711 12q5 0 5 -6t-5 -6q-19 0 -61 2t-61 2q-23 0 -58 -2t-54 -2
q-5 0 -5 6t5 6q45 0 53.5 16t-14.5 63l-108 219h-181l-77 -173q-25 -61 -2 -93t84 -32q4 0 4 -6t-4 -6q-19 0 -55 2t-63 2q-26 0 -60.5 -2t-55.5 -2q-4 0 -4 6t4 6q41 0 66 26.5t61 108.5l215 484q2 3 9 3t8 -3l245 -494q35 -72 58.5 -98.5t50.5 -26.5zM238 335h158l-83 168
z" />
    <glyph glyph-name="AE" unicode="&#xc6;" horiz-adv-x="883" 
d="M826 156q0 2 3 2t5.5 -1.5t2.5 -2.5q-9 -86 -9 -139q0 -15 -15 -15h-428q-2 0 -2 6t2 6q49 0 63 12.5t14 56.5v231h-158l-116 -178q-37 -58 -24.5 -90t72.5 -32q4 0 4 -6t-4 -6q-21 0 -62.5 2t-72.5 2q-24 0 -55 -2t-50 -2q-4 0 -4 6t4 6q38 0 74 28.5t78 91.5l293 442
q19 27 8 33t-72 6q-3 0 -3 6t3 6h418q10 0 10 -9l2 -130q0 -2 -5.5 -3t-6.5 2q-7 41 -45 77.5t-86 36.5h-46q-36 0 -50.5 -12.5t-14.5 -43.5v-205h93q109 0 109 74q0 3 6 3t6 -3q0 -24 -0.5 -50t-0.5 -37q0 -16 1 -48t1 -51q0 -2 -5.5 -2t-5.5 2q0 86 -113 86h-91v-227
q0 -33 12.5 -46t44.5 -13h53q53 0 100.5 38t62.5 92zM321 338h141v217z" />
    <glyph glyph-name="Ccedilla" unicode="&#xc7;" horiz-adv-x="669" 
d="M614 175q2 4 7 3t5 -4l-15 -128q-2 -12 -4.5 -15.5t-11.5 -7.5q-87 -35 -185 -35h-18q-8 -33 -0.5 -49.5t36.5 -33.5q55 -33 55 -78q0 -40 -29 -71t-87 -31q-71 0 -71 45q0 14 10.5 25t25.5 11q17 0 25.5 -9t11 -20t11 -20t24.5 -9q26 0 26 28q0 26 -18.5 47t-65.5 47
q-6 3 -8.5 6t-2 8t4.5 15q16 40 34 90q-83 6 -148 37.5t-102 78.5t-56 101t-19 110q0 141 110 230.5t260 89.5q108 0 170 -30q14 -5 15 -23l12 -130q0 -3 -5 -4t-6 3q-29 78 -87.5 119t-137.5 41q-104 0 -163 -73t-59 -196q0 -141 71.5 -238.5t179.5 -97.5q135 0 205 168z
" />
    <glyph glyph-name="Egrave" unicode="&#xc8;" horiz-adv-x="547" 
d="M173 756q-11 2 13 13q47 23 72 22q3 0 4 -1l41.5 -31.5l50 -37.5t46.5 -32q5 -2 1 -8q-2 -4 -5 -2q-113 50 -223 77zM489 156q1 3 6.5 1.5t5.5 -3.5q-10 -76 -10 -139q0 -15 -15 -15h-434q-3 0 -3 6t3 6q49 0 62.5 12.5t13.5 56.5v463q0 43 -14 56t-62 13q-3 0 -3 6t3 6
h416q10 0 10 -9l2 -130q0 -2 -5 -3t-7 2q-24 114 -139 114h-40q-36 0 -51 -13t-15 -44v-204h96q110 0 110 74q0 3 5.5 3t5.5 -3q0 -24 -0.5 -50t-0.5 -37q0 -16 1.5 -48t1.5 -51q0 -2 -6 -2t-6 2q0 86 -112 86h-95v-227q0 -33 12.5 -46t44.5 -13h49q134 0 170 130z" />
    <glyph glyph-name="Eacute" unicode="&#xc9;" horiz-adv-x="547" 
d="M199 679q-4 -2 -6 3t1 7q31 19 78 55.5t60 45.5q10 7 66 -16q27 -11 26 -16q0 -1 -3 -2q-108 -27 -222 -77zM489 156q1 3 6.5 1.5t5.5 -3.5q-10 -76 -10 -139q0 -15 -15 -15h-434q-3 0 -3 6t3 6q49 0 62.5 12.5t13.5 56.5v463q0 43 -14 56t-62 13q-3 0 -3 6t3 6h416
q10 0 10 -9l2 -130q0 -2 -5 -3t-7 2q-24 114 -139 114h-40q-36 0 -51 -13t-15 -44v-204h96q110 0 110 74q0 3 5.5 3t5.5 -3q0 -24 -0.5 -50t-0.5 -37q0 -16 1.5 -48t1.5 -51q0 -2 -6 -2t-6 2q0 86 -112 86h-95v-227q0 -33 12.5 -46t44.5 -13h49q134 0 170 130z" />
    <glyph glyph-name="Ecircumflex" unicode="&#xca;" horiz-adv-x="547" 
d="M188 692q-1 0 -3 1t-3 3t0 3l103 110q11 11 23 0l102 -110q2 -1 1.5 -3t-3 -3.5t-3.5 -0.5l-108 45zM489 156q1 3 6.5 1.5t5.5 -3.5q-10 -76 -10 -139q0 -15 -15 -15h-434q-3 0 -3 6t3 6q49 0 62.5 12.5t13.5 56.5v463q0 43 -14 56t-62 13q-3 0 -3 6t3 6h416q10 0 10 -9
l2 -130q0 -2 -5 -3t-7 2q-24 114 -139 114h-40q-36 0 -51 -13t-15 -44v-204h96q110 0 110 74q0 3 5.5 3t5.5 -3q0 -24 -0.5 -50t-0.5 -37q0 -16 1.5 -48t1.5 -51q0 -2 -6 -2t-6 2q0 86 -112 86h-95v-227q0 -33 12.5 -46t44.5 -13h49q134 0 170 130z" />
    <glyph glyph-name="Edieresis" unicode="&#xcb;" horiz-adv-x="547" 
d="M210 708q-51 0 -51 50q0 23 13.5 35.5t37.5 12.5q22 0 35 -13t13 -35q0 -50 -48 -50zM384 708q-23 0 -36.5 13t-13.5 37q0 22 13.5 35t36.5 13t36 -12.5t13 -35.5q0 -50 -49 -50zM489 156q1 3 6.5 1.5t5.5 -3.5q-10 -76 -10 -139q0 -15 -15 -15h-434q-3 0 -3 6t3 6
q49 0 62.5 12.5t13.5 56.5v463q0 43 -14 56t-62 13q-3 0 -3 6t3 6h416q10 0 10 -9l2 -130q0 -2 -5 -3t-7 2q-24 114 -139 114h-40q-36 0 -51 -13t-15 -44v-204h96q110 0 110 74q0 3 5.5 3t5.5 -3q0 -24 -0.5 -50t-0.5 -37q0 -16 1.5 -48t1.5 -51q0 -2 -6 -2t-6 2
q0 86 -112 86h-95v-227q0 -33 12.5 -46t44.5 -13h49q134 0 170 130z" />
    <glyph glyph-name="Igrave" unicode="&#xcc;" horiz-adv-x="339" 
d="M269 679q-113 50 -223 77q-11 2 13 13q47 23 72 22q3 0 4 -1l41.5 -31.5l50 -37.5t46.5 -32q5 -2 1 -8q-2 -4 -5 -2zM218 81q0 -44 13 -56.5t62 -12.5q3 0 3 -6t-3 -6q-15 0 -56.5 1t-68.5 1q-25 0 -67 -1t-57 -1q-3 0 -3 6t3 6q49 0 63 12.5t14 56.5v463q0 43 -14.5 56
t-62.5 13q-3 0 -3 6t3 6q15 0 57 -1.5t67 -1.5q27 0 69 1.5t56 1.5q3 0 3 -6t-3 -6q-48 0 -61.5 -13.5t-13.5 -57.5v-461z" />
    <glyph glyph-name="Iacute" unicode="&#xcd;" horiz-adv-x="339" 
d="M72 679q-4 -2 -6 3t1 7q31 19 78 55.5t60 45.5q10 7 66 -16q27 -11 26 -16q0 -1 -3 -2q-108 -27 -222 -77zM218 81q0 -44 13 -56.5t62 -12.5q3 0 3 -6t-3 -6q-15 0 -56.5 1t-68.5 1q-25 0 -67 -1t-57 -1q-3 0 -3 6t3 6q49 0 63 12.5t14 56.5v463q0 43 -14.5 56t-62.5 13
q-3 0 -3 6t3 6q15 0 57 -1.5t67 -1.5q27 0 69 1.5t56 1.5q3 0 3 -6t-3 -6q-48 0 -61.5 -13.5t-13.5 -57.5v-461z" />
    <glyph glyph-name="Icircumflex" unicode="&#xce;" horiz-adv-x="339" 
d="M55 699l103 110q12 11 23 0l102 -110q2 -1 1.5 -3t-3 -3.5t-3.5 -0.5l-108 45l-109 -45q-1 0 -3 1t-3 3t0 3zM218 81q0 -44 13 -56.5t62 -12.5q3 0 3 -6t-3 -6q-15 0 -56.5 1t-68.5 1q-25 0 -67 -1t-57 -1q-3 0 -3 6t3 6q49 0 63 12.5t14 56.5v463q0 43 -14.5 56
t-62.5 13q-3 0 -3 6t3 6q15 0 57 -1.5t67 -1.5q27 0 69 1.5t56 1.5q3 0 3 -6t-3 -6q-48 0 -61.5 -13.5t-13.5 -57.5v-461z" />
    <glyph glyph-name="Idieresis" unicode="&#xcf;" horiz-adv-x="339" 
d="M95 708q-51 0 -51 50q0 23 13.5 35.5t37.5 12.5q23 0 36 -13t13 -35q0 -24 -13 -37t-36 -13zM244 708q-23 0 -36.5 13t-13.5 37q0 22 13.5 35t36.5 13q22 0 35 -13t13 -35q0 -50 -48 -50zM218 81q0 -44 13 -56.5t62 -12.5q3 0 3 -6t-3 -6q-15 0 -56.5 1t-68.5 1
q-25 0 -67 -1t-57 -1q-3 0 -3 6t3 6q49 0 63 12.5t14 56.5v463q0 43 -14.5 56t-62.5 13q-3 0 -3 6t3 6q15 0 57 -1.5t67 -1.5q27 0 69 1.5t56 1.5q3 0 3 -6t-3 -6q-48 0 -61.5 -13.5t-13.5 -57.5v-461z" />
    <glyph glyph-name="Eth" unicode="&#xd0;" horiz-adv-x="700" 
d="M304 627q155 0 251 -86.5t96 -217.5q0 -146 -96.5 -236.5t-236.5 -90.5q-19 0 -77 3t-85 3q-24 0 -66 -1t-58 -1q-2 0 -2 6t2 6q49 0 63 12.5t14 56.5v217h-56q-5 0 -5 13t5 13h56v220q0 43 -14 56t-62 13q-2 0 -2 6t2 6q16 0 57.5 -1.5t65.5 -1.5q25 0 77.5 2.5
t70.5 2.5zM308 16q106 0 171 75t65 210q0 131 -63 218.5t-167 87.5q-63 0 -86 -12.5t-23 -52.5v-218h136q4 0 4 -13t-4 -13h-136v-206q0 -41 21 -58.5t82 -17.5z" />
    <glyph glyph-name="Ntilde" unicode="&#xd1;" horiz-adv-x="732" 
d="M258 697q-2 -2 -5.5 1.5t-1.5 5.5q43 75 87 75q12 0 54.5 -12t67.5 -12q29 0 50 27q2 2 5.5 -1.5t1.5 -5.5q-26 -45 -43 -60t-38 -15q-19 0 -61 12t-66 12q-7 0 -13 -1t-9.5 -2t-8 -4.5l-6.5 -5t-7 -7t-7 -7.5zM717 625q2 0 2 -6t-2 -6q-40 0 -62 -28.5t-22 -81.5v-517
q0 -3 -5 -4t-7 1l-469 545v-407q0 -53 21 -81t61 -28q2 0 2 -6t-2 -6q-13 0 -44 1t-50 1q-20 0 -55.5 -1t-49.5 -1q-3 0 -3 6t3 6q43 0 66.5 28t23.5 81v438q-50 54 -97 54q-2 0 -2 6t2 6q13 0 39.5 -1t37.5 -1q23 0 55 1t38 1t10.5 -3t8 -8l12 -17t18.5 -24l359 -424v354
q0 53 -21 81.5t-60 28.5q-2 0 -2 6t2 6q13 0 44 -1.5t50 -1.5q18 0 51.5 1.5t46.5 1.5z" />
    <glyph glyph-name="Ograve" unicode="&#xd2;" horiz-adv-x="766" 
d="M487 679q-113 50 -223 77q-11 2 13 13q47 23 72 22q3 0 4 -1l41.5 -31.5l50 -37.5t46.5 -32q5 -2 1 -8q-2 -4 -5 -2zM366 -12q-141 0 -229 94t-88 230q0 78 32 141.5t83.5 102.5t112.5 59.5t124 20.5q142 0 229 -95t87 -222q0 -138 -103.5 -234.5t-247.5 -96.5zM400 12
q92 0 151 73.5t59 204.5q0 141 -68 230.5t-182 89.5q-97 0 -150.5 -69.5t-53.5 -192.5q0 -145 69 -240.5t175 -95.5z" />
    <glyph glyph-name="Oacute" unicode="&#xd3;" horiz-adv-x="766" 
d="M290 679q-4 -2 -6 3t1 7q31 19 78 55.5t60 45.5q10 7 66 -16q27 -11 26 -16q0 -1 -3 -2q-108 -27 -222 -77zM366 -12q-141 0 -229 94t-88 230q0 78 32 141.5t83.5 102.5t112.5 59.5t124 20.5q142 0 229 -95t87 -222q0 -138 -103.5 -234.5t-247.5 -96.5zM400 12
q92 0 151 73.5t59 204.5q0 141 -68 230.5t-182 89.5q-97 0 -150.5 -69.5t-53.5 -192.5q0 -145 69 -240.5t175 -95.5z" />
    <glyph glyph-name="Ocircumflex" unicode="&#xd4;" horiz-adv-x="766" 
d="M273 699l103 110q12 11 23 0l102 -110q2 -1 1.5 -3t-3 -3.5t-3.5 -0.5l-108 45l-109 -45q-1 0 -3 1t-3 3t0 3zM366 -12q-141 0 -229 94t-88 230q0 78 32 141.5t83.5 102.5t112.5 59.5t124 20.5q142 0 229 -95t87 -222q0 -138 -103.5 -234.5t-247.5 -96.5zM400 12
q92 0 151 73.5t59 204.5q0 141 -68 230.5t-182 89.5q-97 0 -150.5 -69.5t-53.5 -192.5q0 -145 69 -240.5t175 -95.5z" />
    <glyph glyph-name="Otilde" unicode="&#xd5;" horiz-adv-x="766" 
d="M467 755q29 0 50 27q2 2 5.5 -1.5t1.5 -5.5q-26 -45 -43 -60t-38 -15q-19 0 -61 12t-66 12q-7 0 -13 -1t-9.5 -2t-8 -4.5l-6.5 -5t-7 -7t-7 -7.5t-5.5 1.5t-1.5 5.5q43 75 87 75q12 0 54.5 -12t67.5 -12zM366 -12q-141 0 -229 94t-88 230q0 78 32 141.5t83.5 102.5
t112.5 59.5t124 20.5q142 0 229 -95t87 -222q0 -138 -103.5 -234.5t-247.5 -96.5zM400 12q92 0 151 73.5t59 204.5q0 141 -68 230.5t-182 89.5q-97 0 -150.5 -69.5t-53.5 -192.5q0 -145 69 -240.5t175 -95.5z" />
    <glyph glyph-name="Odieresis" unicode="&#xd6;" horiz-adv-x="766" 
d="M301 708q-51 0 -51 50q0 23 13.5 35.5t37.5 12.5q23 0 35.5 -13t12.5 -35q0 -50 -48 -50zM475 708q-23 0 -36.5 13t-13.5 37q0 22 13.5 35t36.5 13t36 -12.5t13 -35.5q0 -50 -49 -50zM366 -12q-141 0 -229 94t-88 230q0 78 32 141.5t83.5 102.5t112.5 59.5t124 20.5
q142 0 229 -95t87 -222q0 -138 -103.5 -234.5t-247.5 -96.5zM400 12q92 0 151 73.5t59 204.5q0 141 -68 230.5t-182 89.5q-97 0 -150.5 -69.5t-53.5 -192.5q0 -145 69 -240.5t175 -95.5z" />
    <glyph glyph-name="multiply" unicode="&#xd7;" horiz-adv-x="393" 
d="M329 90q2 -2 -5 -11t-16 -16.5t-11 -5.5l-100 100l-100 -101q-4 -3 -20.5 13t-14.5 19l102 102l-100 100q-3 3 12.5 19.5t18.5 14.5l102 -101l99 99q2 2 11.5 -5.5t16.5 -16.5t5 -10l-100 -100z" />
    <glyph glyph-name="Oslash" unicode="&#xd8;" horiz-adv-x="783" 
d="M629 542q88 -93 88 -223q0 -138 -103.5 -234.5t-247.5 -96.5q-123 0 -209 75l-70 -71q-1 -2 -6.5 1.5t-9.5 9t-2 7.5l70 71q-90 92 -90 231q0 78 32 141.5t83.5 102.5t112.5 59.5t124 20.5q122 0 210 -76l71 72q2 1 7.5 -2t9.5 -8t2 -7zM156 348q0 -116 46 -203l352 358
q-69 107 -194 107q-97 0 -150.5 -69.5t-53.5 -192.5zM400 12q92 0 151 73.5t59 204.5q0 109 -42 190l-353 -358q70 -110 185 -110z" />
    <glyph glyph-name="Ugrave" unicode="&#xd9;" horiz-adv-x="701" 
d="M473 679q-113 50 -223 77q-11 2 13 13q47 23 72 22q3 0 4 -1l41.5 -31.5l50 -37.5t46.5 -32q5 -2 1 -8q-2 -4 -5 -2zM571 503q0 52 -23.5 81t-67.5 29q-2 0 -2 6t2 6q15 0 49.5 -1.5t56.5 -1.5q18 0 51 1.5t47 1.5q2 0 2 -6t-2 -6q-39 0 -60.5 -29t-21.5 -81v-280
q0 -109 -67 -173t-178 -64q-112 0 -181 63.5t-69 172.5v322q0 43 -14 56t-62 13q-3 0 -3 6t3 6q15 0 56.5 -1.5t66.5 -1.5q27 0 68.5 1.5t55.5 1.5q3 0 3 -6t-3 -6q-47 0 -61.5 -14t-14.5 -57v-285q0 -119 49.5 -177.5t138.5 -58.5q85 0 133 52.5t48 148.5v281z" />
    <glyph glyph-name="Uacute" unicode="&#xda;" horiz-adv-x="701" 
d="M276 679q-4 -2 -6 3t1 7q31 19 78 55.5t60 45.5q10 7 66 -16q27 -11 26 -16q0 -1 -3 -2q-108 -27 -222 -77zM571 503q0 52 -23.5 81t-67.5 29q-2 0 -2 6t2 6q15 0 49.5 -1.5t56.5 -1.5q18 0 51 1.5t47 1.5q2 0 2 -6t-2 -6q-39 0 -60.5 -29t-21.5 -81v-280
q0 -109 -67 -173t-178 -64q-112 0 -181 63.5t-69 172.5v322q0 43 -14 56t-62 13q-3 0 -3 6t3 6q15 0 56.5 -1.5t66.5 -1.5q27 0 68.5 1.5t55.5 1.5q3 0 3 -6t-3 -6q-47 0 -61.5 -14t-14.5 -57v-285q0 -119 49.5 -177.5t138.5 -58.5q85 0 133 52.5t48 148.5v281z" />
    <glyph glyph-name="Ucircumflex" unicode="&#xdb;" horiz-adv-x="701" 
d="M259 699l103 110q12 11 23 0l102 -110q2 -1 1.5 -3t-3 -3.5t-3.5 -0.5l-108 45l-109 -45q-1 0 -3 1t-3 3t0 3zM571 503q0 52 -23.5 81t-67.5 29q-2 0 -2 6t2 6q15 0 49.5 -1.5t56.5 -1.5q18 0 51 1.5t47 1.5q2 0 2 -6t-2 -6q-39 0 -60.5 -29t-21.5 -81v-280
q0 -109 -67 -173t-178 -64q-112 0 -181 63.5t-69 172.5v322q0 43 -14 56t-62 13q-3 0 -3 6t3 6q15 0 56.5 -1.5t66.5 -1.5q27 0 68.5 1.5t55.5 1.5q3 0 3 -6t-3 -6q-47 0 -61.5 -14t-14.5 -57v-285q0 -119 49.5 -177.5t138.5 -58.5q85 0 133 52.5t48 148.5v281z" />
    <glyph glyph-name="Udieresis" unicode="&#xdc;" horiz-adv-x="701" 
d="M287 708q-51 0 -51 50q0 23 13.5 35.5t37.5 12.5q23 0 35.5 -13t12.5 -35q0 -50 -48 -50zM461 708q-23 0 -36.5 13t-13.5 37q0 22 13.5 35t36.5 13t36 -12.5t13 -35.5q0 -50 -49 -50zM571 503q0 52 -23.5 81t-67.5 29q-2 0 -2 6t2 6q15 0 49.5 -1.5t56.5 -1.5
q18 0 51 1.5t47 1.5q2 0 2 -6t-2 -6q-39 0 -60.5 -29t-21.5 -81v-280q0 -109 -67 -173t-178 -64q-112 0 -181 63.5t-69 172.5v322q0 43 -14 56t-62 13q-3 0 -3 6t3 6q15 0 56.5 -1.5t66.5 -1.5q27 0 68.5 1.5t55.5 1.5q3 0 3 -6t-3 -6q-47 0 -61.5 -14t-14.5 -57v-285
q0 -119 49.5 -177.5t138.5 -58.5q85 0 133 52.5t48 148.5v281z" />
    <glyph glyph-name="Yacute" unicode="&#xdd;" horiz-adv-x="616" 
d="M225 679q-4 -2 -6 3t1 7q31 19 78 55.5t60 45.5q10 7 66 -16q27 -11 26 -16q0 -1 -3 -2q-108 -27 -222 -77zM621 625q2 0 2 -6t-2 -6q-33 0 -75 -34.5t-75 -88.5l-114 -185v-224q0 -44 13.5 -56.5t62.5 -12.5q3 0 3 -6t-3 -6q-15 0 -56.5 1t-67.5 1q-25 0 -67.5 -1
t-57.5 -1q-2 0 -2 6t2 6q49 0 63 12.5t14 56.5v206l-152 232q-34 53 -58.5 73.5t-47.5 20.5q-3 0 -3 6t3 6q10 0 32 -1.5t33 -1.5q30 0 86.5 1.5t71.5 1.5q2 0 2 -6t-2 -6q-32 0 -39.5 -17.5t10.5 -42.5l145 -223l102 167q32 53 24 84.5t-54 31.5q-2 0 -2 6t2 6
q18 0 57.5 -1.5t71.5 -1.5q17 0 40 1.5t38 1.5z" />
    <glyph glyph-name="Thorn" unicode="&#xde;" horiz-adv-x="545" 
d="M288 147q50 0 84 43.5t34 125.5q0 80 -36.5 122t-98.5 42q-35 0 -66 -6v-389q0 -46 18.5 -59.5t85.5 -13.5q2 0 2 -6t-2 -6q-20 0 -70 1t-81 1q-24 0 -62.5 -1t-53.5 -1q-3 0 -3 6t3 6q43 0 55.5 13t12.5 56v463q0 43 -12.5 56t-55.5 13q-3 0 -3 6t3 6q15 0 53.5 -1.5
t62.5 -1.5q31 0 81 1.5t70 1.5q2 0 2 -6t-2 -6q-67 0 -85.5 -14t-18.5 -60v-46q49 6 91 6q96 0 154.5 -38.5t61.5 -124.5q2 -98 -64 -150.5t-149 -52.5q-24 0 -49 5q-2 0 -2.5 3.5t1 6.5t3.5 3q24 -4 36 -4z" />
    <glyph glyph-name="germandbls" unicode="&#xdf;" horiz-adv-x="549" 
d="M369 -11q-53 0 -96 28q-6 6 -6 12l-2 104q0 3 5.5 3.5t6.5 -2.5q21 -53 55.5 -88.5t63.5 -35.5q25 0 37.5 22.5t9.5 52.5q-2 24 -17.5 50t-27 38t-42.5 42q-29 28 -44 44t-30 44t-15 56q0 34 22.5 69.5t45 75.5t22.5 85q0 48 -21.5 84t-64.5 36q-108 0 -108 -263v-365
q0 -44 10.5 -56.5t47.5 -12.5q2 0 2 -6t-2 -6q-18 0 -49.5 0.5t-48.5 0.5q-21 0 -56.5 -0.5t-47.5 -0.5q-3 0 -3 6t3 6q38 0 50 13t12 56l-1 367q0 134 58.5 206t170.5 72q66 0 102.5 -26.5t36.5 -70.5q0 -33 -20.5 -62t-44.5 -47t-44.5 -43t-20.5 -51q0 -21 15.5 -46.5
t31 -42t46.5 -46.5q28 -27 40 -39.5t32 -36.5t28 -45t8 -43q0 -53 -43.5 -95.5t-106.5 -42.5z" />
    <glyph glyph-name="agrave" unicode="&#xe0;" horiz-adv-x="420" 
d="M218 474l-115 253q-4 9 54 -1q32 -5 33 -10l38 -240q0 -1 -2 -2.5t-5 -1.5t-3 2zM416 54q5 2 6.5 -3.5t-2.5 -7.5l-103 -49q-4 -2 -9 -2q-14 0 -27 16t-18 43l-52 -28q-58 -30 -99 -30q-32 0 -49.5 16.5t-17.5 45.5q0 31 22 46.5t84 36.5l109 37v80q0 118 -56 118
q-54 0 -62 -79q-5 -50 -51 -50q-43 0 -43 37q0 39 68 76.5t125 37.5q45 0 72.5 -27.5t27.5 -82.5v-177q0 -63 39 -63q15 0 36 9zM231 51l30 16q-1 4 -1 15v77l-71 -26q-48 -18 -48 -50q0 -21 12 -33t31 -12q21 0 47 13z" />
    <glyph glyph-name="aacute" unicode="&#xe1;" horiz-adv-x="420" 
d="M210 474q0 -2 -3 -2t-5.5 1.5t-2.5 2.5l39 240q4 9 60 14q29 3 26 -3zM416 54q5 2 6.5 -3.5t-2.5 -7.5l-103 -49q-4 -2 -9 -2q-14 0 -27 16t-18 43l-52 -28q-58 -30 -99 -30q-32 0 -49.5 16.5t-17.5 45.5q0 31 22 46.5t84 36.5l109 37v80q0 118 -56 118q-54 0 -62 -79
q-5 -50 -51 -50q-43 0 -43 37q0 39 68 76.5t125 37.5q45 0 72.5 -27.5t27.5 -82.5v-177q0 -63 39 -63q15 0 36 9zM231 51l30 16q-1 4 -1 15v77l-71 -26q-48 -18 -48 -50q0 -21 12 -33t31 -12q21 0 47 13z" />
    <glyph glyph-name="acircumflex" unicode="&#xe2;" horiz-adv-x="420" 
d="M144 474q-1 -2 -4 -2t-5 1.5t-2 2.5l68 249q1 5 11 5t12 -5l67 -249q2 -2 -3.5 -3.5t-6.5 1.5l-68 127zM416 54q5 2 6.5 -3.5t-2.5 -7.5l-103 -49q-4 -2 -9 -2q-14 0 -27 16t-18 43l-52 -28q-58 -30 -99 -30q-32 0 -49.5 16.5t-17.5 45.5q0 31 22 46.5t84 36.5l109 37v80
q0 118 -56 118q-54 0 -62 -79q-5 -50 -51 -50q-43 0 -43 37q0 39 68 76.5t125 37.5q45 0 72.5 -27.5t27.5 -82.5v-177q0 -63 39 -63q15 0 36 9zM231 51l30 16q-1 4 -1 15v77l-71 -26q-48 -18 -48 -50q0 -21 12 -33t31 -12q21 0 47 13z" />
    <glyph glyph-name="atilde" unicode="&#xe3;" horiz-adv-x="420" 
d="M86 473q-2 -2 -5.5 1.5t-1.5 5.5q44 75 86 75q12 0 55.5 -12.5t67.5 -12.5q28 0 50 27q3 3 6 -2q3 -3 1 -5q-26 -44 -43 -59t-39 -15q-18 0 -60 12t-67 12q-5 0 -9.5 -0.5t-8 -1t-7 -2.5t-5.5 -3t-5.5 -4.5l-4.5 -4.5t-5 -5.5t-5 -5.5zM416 54q5 2 6.5 -3.5t-2.5 -7.5
l-103 -49q-4 -2 -9 -2q-14 0 -27 16t-18 43l-52 -28q-58 -30 -99 -30q-32 0 -49.5 16.5t-17.5 45.5q0 31 22 46.5t84 36.5l109 37v80q0 118 -56 118q-54 0 -62 -79q-5 -50 -51 -50q-43 0 -43 37q0 39 68 76.5t125 37.5q45 0 72.5 -27.5t27.5 -82.5v-177q0 -63 39 -63
q15 0 36 9zM231 51l30 16q-1 4 -1 15v77l-71 -26q-48 -18 -48 -50q0 -21 12 -33t31 -12q21 0 47 13z" />
    <glyph glyph-name="adieresis" unicode="&#xe4;" horiz-adv-x="420" 
d="M126 469q-51 0 -51 50q0 23 13.5 35.5t37.5 12.5q22 0 35 -12.5t13 -35.5q0 -50 -48 -50zM300 469q-23 0 -36.5 13t-13.5 37q0 22 13.5 35t36.5 13t36 -12.5t13 -35.5q0 -50 -49 -50zM416 54q5 2 6.5 -3.5t-2.5 -7.5l-103 -49q-4 -2 -9 -2q-14 0 -27 16t-18 43l-52 -28
q-58 -30 -99 -30q-32 0 -49.5 16.5t-17.5 45.5q0 31 22 46.5t84 36.5l109 37v80q0 118 -56 118q-54 0 -62 -79q-5 -50 -51 -50q-43 0 -43 37q0 39 68 76.5t125 37.5q45 0 72.5 -27.5t27.5 -82.5v-177q0 -63 39 -63q15 0 36 9zM231 51l30 16q-1 4 -1 15v77l-71 -26
q-48 -18 -48 -50q0 -21 12 -33t31 -12q21 0 47 13z" />
    <glyph glyph-name="aring" unicode="&#xe5;" horiz-adv-x="420" 
d="M203 468q-45 0 -72.5 23.5t-27.5 55.5q0 36 34 57t76 21q41 0 70.5 -23.5t29.5 -56.5q0 -35 -33.5 -56t-76.5 -21zM193 612q-27 0 -27 -45q0 -33 14.5 -59.5t38.5 -26.5q29 0 29 46q0 35 -16 60t-39 25zM416 54q5 2 6.5 -3.5t-2.5 -7.5l-103 -49q-4 -2 -9 -2
q-14 0 -27 16t-18 43l-52 -28q-58 -30 -99 -30q-32 0 -49.5 16.5t-17.5 45.5q0 31 22 46.5t84 36.5l109 37v80q0 118 -56 118q-54 0 -62 -79q-5 -50 -51 -50q-43 0 -43 37q0 39 68 76.5t125 37.5q45 0 72.5 -27.5t27.5 -82.5v-177q0 -63 39 -63q15 0 36 9zM231 51l30 16
q-1 4 -1 15v77l-71 -26q-48 -18 -48 -50q0 -21 12 -33t31 -12q21 0 47 13z" />
    <glyph glyph-name="ae" unicode="&#xe6;" horiz-adv-x="589" 
d="M565 62q4 4 7 -4q1 -3 0 -5q-68 -65 -152 -65q-103 0 -147 70l-68 -36q-56 -29 -98 -29q-32 0 -50.5 16.5t-18.5 45.5q0 31 22 46t85 37l97 32q-4 121 -14 163t-47 42q-52 0 -55 -84q0 -45 -45 -45q-47 0 -47 40q0 34 57.5 71.5t111.5 37.5q72 0 101 -59q61 59 147 59
q56 0 86 -27.5t30 -78.5q0 -20 -14 -20h-70l-149 -2q-4 -21 -4 -52q2 -185 129 -185q65 0 106 32zM418 375q-62 0 -81 -90l135 4q-2 86 -54 86zM225 50l40 20q-18 37 -22 84l-61 -22q-43 -17 -43 -49q0 -20 12 -32t32 -12q19 0 42 11z" />
    <glyph glyph-name="ccedilla" unicode="&#xe7;" horiz-adv-x="420" 
d="M233 -12h-6q-7 -33 0.5 -49.5t36.5 -33.5q55 -33 55 -78q0 -40 -29 -71t-87 -31q-71 0 -71 45q0 14 10.5 25t25.5 11q17 0 25.5 -9t11 -20t11 -20t24.5 -9q26 0 26 28q0 26 -18.5 47t-65.5 47q-6 3 -8.5 6t-2 8t4.5 15q16 40 34 90q-86 8 -131.5 65.5t-45.5 131.5
q0 94 71.5 151.5t158.5 57.5q47 0 85 -19t38 -51q0 -17 -13 -29.5t-36 -12.5q-38 0 -55 45q-10 25 -21 35.5t-35 10.5q-47 0 -74.5 -42.5t-27.5 -113.5q0 -83 38.5 -134.5t120.5 -51.5q48 0 98 29q2 2 5.5 -2t1.5 -6q-71 -65 -155 -65z" />
    <glyph glyph-name="egrave" unicode="&#xe8;" horiz-adv-x="415" 
d="M238 474l-115 253q-4 9 54 -1q32 -5 33 -10l38 -240q0 -1 -2 -2.5t-5 -1.5t-3 2zM378 62q4 4 7 -4q1 -3 0 -5q-68 -65 -154 -65q-92 0 -145 56.5t-53 136.5q0 90 64.5 152t159.5 62q59 0 91 -26.5t32 -72.5q0 -27 -11 -27h-55l-188 -2q-3 -21 -3 -45q0 -87 40.5 -138.5
t112.5 -51.5q57 0 102 30zM221 375q-33 0 -57 -24t-34 -66l156 3q-3 87 -65 87z" />
    <glyph glyph-name="eacute" unicode="&#xe9;" horiz-adv-x="415" 
d="M230 474q0 -2 -3 -2t-5.5 1.5t-2.5 2.5l39 240q4 9 60 14q29 3 26 -3zM378 62q4 4 7 -4q1 -3 0 -5q-68 -65 -154 -65q-92 0 -145 56.5t-53 136.5q0 90 64.5 152t159.5 62q59 0 91 -26.5t32 -72.5q0 -27 -11 -27h-55l-188 -2q-3 -21 -3 -45q0 -87 40.5 -138.5t112.5 -51.5
q57 0 102 30zM221 375q-33 0 -57 -24t-34 -66l156 3q-3 87 -65 87z" />
    <glyph glyph-name="ecircumflex" unicode="&#xea;" horiz-adv-x="415" 
d="M164 474q-1 -2 -4 -2t-5 1.5t-2 2.5l68 249q1 5 11 5t12 -5l67 -249q2 -2 -3.5 -3.5t-6.5 1.5l-68 127zM378 62q4 4 7 -4q1 -3 0 -5q-68 -65 -154 -65q-92 0 -145 56.5t-53 136.5q0 90 64.5 152t159.5 62q59 0 91 -26.5t32 -72.5q0 -27 -11 -27h-55l-188 -2
q-3 -21 -3 -45q0 -87 40.5 -138.5t112.5 -51.5q57 0 102 30zM221 375q-33 0 -57 -24t-34 -66l156 3q-3 87 -65 87z" />
    <glyph glyph-name="edieresis" unicode="&#xeb;" horiz-adv-x="415" 
d="M146 469q-51 0 -51 50q0 23 13.5 35.5t37.5 12.5q22 0 35 -12.5t13 -35.5q0 -50 -48 -50zM320 469q-23 0 -36.5 13t-13.5 37q0 22 13.5 35t36.5 13t36 -12.5t13 -35.5q0 -50 -49 -50zM378 62q4 4 7 -4q1 -3 0 -5q-68 -65 -154 -65q-92 0 -145 56.5t-53 136.5
q0 90 64.5 152t159.5 62q59 0 91 -26.5t32 -72.5q0 -27 -11 -27h-55l-188 -2q-3 -21 -3 -45q0 -87 40.5 -138.5t112.5 -51.5q57 0 102 30zM221 375q-33 0 -57 -24t-34 -66l156 3q-3 87 -65 87z" />
    <glyph glyph-name="igrave" unicode="&#xec;" horiz-adv-x="266" 
d="M27 727q-4 9 54 -1q32 -5 33 -10l38 -240q0 -1 -2 -2.5t-5 -1.5t-3 2zM44 0q-3 0 -3 6t3 6q34 0 45 14t11 55v182q0 65 -31 65q-15 0 -39 -12q-3 -1 -5 1.5t-2.5 6t1.5 4.5l144 67q2 1 3 1q4 0 8.5 -4.5t4.5 -7.5q0 -1 -1 -40t-1 -80v-183q0 -41 11.5 -55t45.5 -14
q3 0 3 -6t-3 -6q-11 0 -44 1t-54 1q-20 0 -53 -1t-44 -1z" />
    <glyph glyph-name="iacute" unicode="&#xed;" horiz-adv-x="266" 
d="M134 474q0 -2 -3 -2t-5.5 1.5t-2.5 2.5l39 240q4 9 60 14q29 3 26 -3zM44 0q-3 0 -3 6t3 6q34 0 45 14t11 55v182q0 65 -31 65q-15 0 -39 -12q-3 -1 -5 1.5t-2.5 6t1.5 4.5l144 67q2 1 3 1q4 0 8.5 -4.5t4.5 -7.5q0 -1 -1 -40t-1 -80v-183q0 -41 11.5 -55t45.5 -14
q3 0 3 -6t-3 -6q-11 0 -44 1t-54 1q-20 0 -53 -1t-44 -1z" />
    <glyph glyph-name="icircumflex" unicode="&#xee;" horiz-adv-x="266" 
d="M215 476q2 -2 -3.5 -3.5t-6.5 1.5l-68 127l-69 -127q-1 -2 -4 -2t-5 1.5t-2 2.5l68 249q1 5 11 5t12 -5zM44 0q-3 0 -3 6t3 6q34 0 45 14t11 55v182q0 65 -31 65q-15 0 -39 -12q-3 -1 -5 1.5t-2.5 6t1.5 4.5l144 67q2 1 3 1q4 0 8.5 -4.5t4.5 -7.5q0 -1 -1 -40t-1 -80
v-183q0 -41 11.5 -55t45.5 -14q3 0 3 -6t-3 -6q-11 0 -44 1t-54 1q-20 0 -53 -1t-44 -1z" />
    <glyph glyph-name="idieresis" unicode="&#xef;" horiz-adv-x="266" 
d="M62 469q-51 0 -51 50q0 23 13.5 35.5t37.5 12.5q23 0 36 -13t13 -35q0 -24 -13 -37t-36 -13zM211 469q-23 0 -36.5 13t-13.5 37q0 22 13.5 35t36.5 13t35.5 -12.5t12.5 -35.5q0 -50 -48 -50zM44 0q-3 0 -3 6t3 6q34 0 45 14t11 55v182q0 65 -31 65q-15 0 -39 -12
q-3 -1 -5 1.5t-2.5 6t1.5 4.5l144 67q2 1 3 1q4 0 8.5 -4.5t4.5 -7.5q0 -1 -1 -40t-1 -80v-183q0 -41 11.5 -55t45.5 -14q3 0 3 -6t-3 -6q-11 0 -44 1t-54 1q-20 0 -53 -1t-44 -1z" />
    <glyph glyph-name="eth" unicode="&#xf0;" horiz-adv-x="470" 
d="M308 571q68 -75 105 -164.5t37 -179.5q0 -121 -63.5 -180.5t-163.5 -59.5q-91 0 -147 58.5t-56 140.5q0 69 36 119t84.5 72t99.5 22q50 0 90 -24q-28 94 -77 170l-128 -61q-3 -1 -7.5 5.5t-6 13.5t1.5 10l123 58q-66 92 -146 145q-6 2 1 8q3 2 5 1q110 -50 189 -130
l102 48q3 1 8 -5.5t6 -13.5t-2 -10zM251 8q52 0 79.5 41t27.5 142q0 56 -11 116q-43 71 -116 71q-53 0 -86.5 -42.5t-33.5 -120.5q0 -87 39 -147t101 -60z" />
    <glyph glyph-name="ntilde" unicode="&#xf1;" horiz-adv-x="523" 
d="M149 473q-2 -2 -5.5 1.5t-1.5 5.5q44 75 86 75q12 0 55 -12.5t68 -12.5q27 0 50 27q3 3 6 -2q3 -3 1 -5q-26 -44 -43 -59t-39 -15q-18 0 -60 12t-67 12q-5 0 -9.5 -0.5t-8 -1t-7 -2.5t-5.5 -3t-5.5 -4.5l-4.5 -4.5t-5 -5.5t-5 -5.5zM504 12q3 0 3 -6t-3 -6q-11 0 -44 1
t-53 1t-52.5 -1t-44.5 -1q-3 0 -3 6t3 6q34 0 45 14t11 55v150q0 56 -20.5 82.5t-64.5 26.5q-55 0 -102 -44v-215q0 -41 11 -55t45 -14q3 0 3 -6t-3 -6q-11 0 -44 1t-53 1t-53 -1t-44 -1q-3 0 -3 6t3 6q34 0 45 14t11 55v191q0 62 -32 62q-15 0 -50 -15q-6 -2 -7 7q-1 3 1 4
l131 64q6 2 7 2q10 0 20.5 -22.5t11.5 -58.5q70 83 152 83q55 0 86 -33.5t31 -90.5v-193q0 -41 11 -55t45 -14z" />
    <glyph glyph-name="ograve" unicode="&#xf2;" horiz-adv-x="486" 
d="M135 727q-4 9 54 -1q32 -5 33 -10l38 -240q0 -1 -2 -2.5t-5 -1.5t-3 2zM235 -13q-90 0 -146 61.5t-56 149.5q0 96 67 148.5t152 52.5q90 0 145 -62t55 -145q0 -91 -63.5 -148t-153.5 -57zM265 7q91 0 91 153q0 100 -40 159.5t-97 59.5q-91 0 -91 -146q0 -99 39 -162.5
t98 -63.5z" />
    <glyph glyph-name="oacute" unicode="&#xf3;" horiz-adv-x="486" 
d="M242 474q0 -2 -3 -2t-5.5 1.5t-2.5 2.5l39 240q4 9 60 14q29 3 26 -3zM235 -13q-90 0 -146 61.5t-56 149.5q0 96 67 148.5t152 52.5q90 0 145 -62t55 -145q0 -91 -63.5 -148t-153.5 -57zM265 7q91 0 91 153q0 100 -40 159.5t-97 59.5q-91 0 -91 -146q0 -99 39 -162.5
t98 -63.5z" />
    <glyph glyph-name="ocircumflex" unicode="&#xf4;" horiz-adv-x="486" 
d="M323 476q2 -2 -3.5 -3.5t-6.5 1.5l-68 127l-69 -127q-1 -2 -4 -2t-5 1.5t-2 2.5l68 249q1 5 11 5t12 -5zM235 -13q-90 0 -146 61.5t-56 149.5q0 96 67 148.5t152 52.5q90 0 145 -62t55 -145q0 -91 -63.5 -148t-153.5 -57zM265 7q91 0 91 153q0 100 -40 159.5t-97 59.5
q-91 0 -91 -146q0 -99 39 -162.5t98 -63.5z" />
    <glyph glyph-name="otilde" unicode="&#xf5;" horiz-adv-x="486" 
d="M320 530q28 0 50 27q3 3 6 -2q3 -3 1 -5q-26 -44 -43 -59t-39 -15q-18 0 -60 12t-67 12q-5 0 -9.5 -0.5t-8 -1t-7 -2.5t-5.5 -3t-5.5 -4.5l-4.5 -4.5t-5 -5.5t-5 -5.5q-2 -2 -5.5 1.5t-1.5 5.5q44 75 86 75q13 0 56 -12.5t67 -12.5zM235 -13q-90 0 -146 61.5t-56 149.5
q0 96 67 148.5t152 52.5q90 0 145 -62t55 -145q0 -91 -63.5 -148t-153.5 -57zM265 7q91 0 91 153q0 100 -40 159.5t-97 59.5q-91 0 -91 -146q0 -99 39 -162.5t98 -63.5z" />
    <glyph glyph-name="odieresis" unicode="&#xf6;" horiz-adv-x="486" 
d="M158 469q-51 0 -51 50q0 23 13.5 35.5t37.5 12.5q22 0 35 -12.5t13 -35.5q0 -50 -48 -50zM332 469q-23 0 -36.5 13t-13.5 37q0 22 13.5 35t36.5 13t36 -12.5t13 -35.5q0 -50 -49 -50zM235 -13q-90 0 -146 61.5t-56 149.5q0 96 67 148.5t152 52.5q90 0 145 -62t55 -145
q0 -91 -63.5 -148t-153.5 -57zM265 7q91 0 91 153q0 100 -40 159.5t-97 59.5q-91 0 -91 -146q0 -99 39 -162.5t98 -63.5z" />
    <glyph glyph-name="divide" unicode="&#xf7;" horiz-adv-x="398" 
d="M199 286q-26 0 -41 14.5t-15 40.5q0 24 15 38t41 14q25 0 38.5 -14t13.5 -38q0 -55 -52 -55zM34 167q-3 0 -4 11.5t0 22.5t3 11h331q4 0 4 -22.5t-4 -22.5h-330zM199 -11q-26 0 -41 14.5t-15 40.5q0 24 15 38.5t41 14.5q24 0 38 -14.5t14 -38.5q0 -26 -13.5 -40.5
t-38.5 -14.5z" />
    <glyph glyph-name="oslash" unicode="&#xf8;" horiz-adv-x="477" 
d="M397 338q55 -60 55 -146q0 -91 -63.5 -148t-153.5 -57q-78 0 -132 48l-48 -50q-1 -2 -6.5 1.5t-9.5 9t-2 7.5l48 50q-52 60 -52 145q0 96 67 148.5t152 52.5q73 0 127 -44l44 45q2 2 7.5 -1.5t9 -8.5t1.5 -7zM128 233q0 -62 18 -118l181 186q-40 78 -108 78
q-91 0 -91 -146zM265 7q91 0 91 153q0 64 -18 116l-181 -186q38 -83 108 -83z" />
    <glyph glyph-name="ugrave" unicode="&#xf9;" horiz-adv-x="501" 
d="M257 474l-115 253q-4 9 54 -1q32 -5 33 -10l38 -240q0 -1 -2 -2.5t-5 -1.5t-3 2zM493 62q2 1 4.5 -1t3 -5t-1.5 -5l-131 -63q-2 -1 -4 -1q-10 0 -18 22.5t-9 60.5q-70 -81 -148 -81q-54 0 -84 33.5t-30 91.5v149q0 68 -31 68q-10 0 -28 -8q-2 -1 -4.5 1.5t-3 6t1.5 4.5
l127 59q2 1 4 1q4 0 9 -4t5 -7v-227q0 -111 84 -111q53 0 98 45v172q0 68 -31 68q-9 0 -28 -8q-2 -1 -4.5 2t-2.5 6t2 4l126 59q2 1 5 1q4 0 9 -4t5 -7v-271q0 -35 7 -49t23 -14q12 0 45 12z" />
    <glyph glyph-name="uacute" unicode="&#xfa;" horiz-adv-x="501" 
d="M249 474q0 -2 -3 -2t-5.5 1.5t-2.5 2.5l39 240q4 9 60 14q29 3 26 -3zM493 62q2 1 4.5 -1t3 -5t-1.5 -5l-131 -63q-2 -1 -4 -1q-10 0 -18 22.5t-9 60.5q-70 -81 -148 -81q-54 0 -84 33.5t-30 91.5v149q0 68 -31 68q-10 0 -28 -8q-2 -1 -4.5 1.5t-3 6t1.5 4.5l127 59
q2 1 4 1q4 0 9 -4t5 -7v-227q0 -111 84 -111q53 0 98 45v172q0 68 -31 68q-9 0 -28 -8q-2 -1 -4.5 2t-2.5 6t2 4l126 59q2 1 5 1q4 0 9 -4t5 -7v-271q0 -35 7 -49t23 -14q12 0 45 12z" />
    <glyph glyph-name="ucircumflex" unicode="&#xfb;" horiz-adv-x="501" 
d="M183 474q-1 -2 -4 -2t-5 1.5t-2 2.5l68 249q1 5 11 5t12 -5l67 -249q2 -2 -3.5 -3.5t-6.5 1.5l-68 127zM493 62q2 1 4.5 -1t3 -5t-1.5 -5l-131 -63q-2 -1 -4 -1q-10 0 -18 22.5t-9 60.5q-70 -81 -148 -81q-54 0 -84 33.5t-30 91.5v149q0 68 -31 68q-10 0 -28 -8
q-2 -1 -4.5 1.5t-3 6t1.5 4.5l127 59q2 1 4 1q4 0 9 -4t5 -7v-227q0 -111 84 -111q53 0 98 45v172q0 68 -31 68q-9 0 -28 -8q-2 -1 -4.5 2t-2.5 6t2 4l126 59q2 1 5 1q4 0 9 -4t5 -7v-271q0 -35 7 -49t23 -14q12 0 45 12z" />
    <glyph glyph-name="udieresis" unicode="&#xfc;" horiz-adv-x="501" 
d="M165 469q-51 0 -51 50q0 23 13.5 35.5t37.5 12.5q23 0 35.5 -12.5t12.5 -35.5q0 -50 -48 -50zM339 469q-23 0 -36.5 13t-13.5 37q0 22 13.5 35t36.5 13t36 -12.5t13 -35.5q0 -50 -49 -50zM493 62q2 1 4.5 -1t3 -5t-1.5 -5l-131 -63q-2 -1 -4 -1q-10 0 -18 22.5t-9 60.5
q-70 -81 -148 -81q-54 0 -84 33.5t-30 91.5v149q0 68 -31 68q-10 0 -28 -8q-2 -1 -4.5 1.5t-3 6t1.5 4.5l127 59q2 1 4 1q4 0 9 -4t5 -7v-227q0 -111 84 -111q53 0 98 45v172q0 68 -31 68q-9 0 -28 -8q-2 -1 -4.5 2t-2.5 6t2 4l126 59q2 1 5 1q4 0 9 -4t5 -7v-271
q0 -35 7 -49t23 -14q12 0 45 12z" />
    <glyph glyph-name="yacute" unicode="&#xfd;" horiz-adv-x="430" 
d="M221 474q0 -2 -3 -2t-5.5 1.5t-2.5 2.5l39 240q4 9 60 14q29 3 26 -3zM438 386q2 0 2 -6t-2 -6q-55 0 -91 -97l-115 -305q-53 -141 -101.5 -197t-109.5 -56q-59 0 -59 46q0 20 12.5 30.5t30.5 10.5t38 -12.5t36 -12.5q33 0 61.5 43t73.5 159l-158 320q-22 43 -34.5 57
t-30.5 14q-3 0 -3 6t3 6q12 0 39.5 -1t39.5 -1q26 0 61.5 1t47.5 1q3 0 3 -6t-3 -6q-36 0 -47 -8.5t0 -30.5l122 -252l67 194q34 97 -58 97q-2 0 -2 6t2 6q14 0 45 -1t56 -1q16 0 38 1t36 1z" />
    <glyph glyph-name="thorn" unicode="&#xfe;" horiz-adv-x="494" 
d="M242 -13q-47 0 -92 15v-196q0 -43 17 -56t75 -13q3 0 3 -6t-3 -6q-17 0 -61.5 1t-71.5 1q-21 0 -54.5 -1t-44.5 -1q-2 0 -2 6t2 6q37 0 48 13t11 56v786q0 66 -31 66q-15 0 -39 -12q-3 -1 -5.5 1.5t-3 6t1.5 4.5l139 66q2 1 5 1q4 0 9 -4t5 -7v-386q77 71 154 71
q65 0 111 -50t46 -134q0 -60 -20.5 -106t-54 -71.5t-70 -38t-74.5 -12.5zM246 349q-49 0 -96 -42v-243q48 -53 114 -53q51 0 80 43.5t29 129.5q0 78 -36 121.5t-91 43.5z" />
    <glyph glyph-name="ydieresis" unicode="&#xff;" horiz-adv-x="430" 
d="M137 469q-51 0 -51 50q0 23 13.5 35.5t37.5 12.5q23 0 35.5 -12.5t12.5 -35.5q0 -50 -48 -50zM311 469q-23 0 -36.5 13t-13.5 37q0 22 13.5 35t36.5 13t36 -12.5t13 -35.5q0 -50 -49 -50zM438 386q2 0 2 -6t-2 -6q-55 0 -91 -97l-115 -305q-53 -141 -101.5 -197
t-109.5 -56q-59 0 -59 46q0 20 12.5 30.5t30.5 10.5t38 -12.5t36 -12.5q33 0 61.5 43t73.5 159l-158 320q-22 43 -34.5 57t-30.5 14q-3 0 -3 6t3 6q12 0 39.5 -1t39.5 -1q26 0 61.5 1t47.5 1q3 0 3 -6t-3 -6q-36 0 -47 -8.5t0 -30.5l122 -252l67 194q34 97 -58 97q-2 0 -2 6
t2 6q14 0 45 -1t56 -1q16 0 38 1t36 1z" />
    <glyph glyph-name="Amacron" unicode="&#x100;" horiz-adv-x="711" 
d="M224 716q-8 0 -8 17t8 17h251q9 0 9 -17t-9 -17h-251zM711 12q5 0 5 -6t-5 -6q-19 0 -61 2t-61 2q-23 0 -58 -2t-54 -2q-5 0 -5 6t5 6q45 0 53.5 16t-14.5 63l-108 219h-181l-77 -173q-25 -61 -2 -93t84 -32q4 0 4 -6t-4 -6q-19 0 -55 2t-63 2q-26 0 -60.5 -2t-55.5 -2
q-4 0 -4 6t4 6q41 0 66 26.5t61 108.5l215 484q2 3 9 3t8 -3l245 -494q35 -72 58.5 -98.5t50.5 -26.5zM238 335h158l-83 168z" />
    <glyph glyph-name="amacron" unicode="&#x101;" horiz-adv-x="420" 
d="M86 477q-8 0 -8 17t8 17h251q9 0 9 -17t-9 -17h-251zM416 54q5 2 6.5 -3.5t-2.5 -7.5l-103 -49q-4 -2 -9 -2q-14 0 -27 16t-18 43l-52 -28q-58 -30 -99 -30q-32 0 -49.5 16.5t-17.5 45.5q0 31 22 46.5t84 36.5l109 37v80q0 118 -56 118q-54 0 -62 -79q-5 -50 -51 -50
q-43 0 -43 37q0 39 68 76.5t125 37.5q45 0 72.5 -27.5t27.5 -82.5v-177q0 -63 39 -63q15 0 36 9zM231 51l30 16q-1 4 -1 15v77l-71 -26q-48 -18 -48 -50q0 -21 12 -33t31 -12q21 0 47 13z" />
    <glyph glyph-name="Abreve" unicode="&#x102;" horiz-adv-x="711" 
d="M350 690q-48 0 -74.5 31t-28.5 89q0 4 5 4t6 -2q2 -21 29 -38.5t63 -17.5q35 0 62 17.5t29 38.5q0 4 8 2q3 -1 3 -4q-5 -120 -102 -120zM711 12q5 0 5 -6t-5 -6q-19 0 -61 2t-61 2q-23 0 -58 -2t-54 -2q-5 0 -5 6t5 6q45 0 53.5 16t-14.5 63l-108 219h-181l-77 -173
q-25 -61 -2 -93t84 -32q4 0 4 -6t-4 -6q-19 0 -55 2t-63 2q-26 0 -60.5 -2t-55.5 -2q-4 0 -4 6t4 6q41 0 66 26.5t61 108.5l215 484q2 3 9 3t8 -3l245 -494q35 -72 58.5 -98.5t50.5 -26.5zM238 335h158l-83 168z" />
    <glyph glyph-name="abreve" unicode="&#x103;" horiz-adv-x="420" 
d="M212 466q-50 0 -76.5 40.5t-26.5 117.5q0 2 2.5 3t5.5 0.5t3 -1.5q0 -36 26.5 -62t65.5 -26q38 0 64.5 26t26.5 62q0 4 8 2q3 -1 3 -4q0 -158 -102 -158zM416 54q5 2 6.5 -3.5t-2.5 -7.5l-103 -49q-4 -2 -9 -2q-14 0 -27 16t-18 43l-52 -28q-58 -30 -99 -30
q-32 0 -49.5 16.5t-17.5 45.5q0 31 22 46.5t84 36.5l109 37v80q0 118 -56 118q-54 0 -62 -79q-5 -50 -51 -50q-43 0 -43 37q0 39 68 76.5t125 37.5q45 0 72.5 -27.5t27.5 -82.5v-177q0 -63 39 -63q15 0 36 9zM231 51l30 16q-1 4 -1 15v77l-71 -26q-48 -18 -48 -50
q0 -21 12 -33t31 -12q21 0 47 13z" />
    <glyph glyph-name="Aogonek" unicode="&#x104;" horiz-adv-x="712" 
d="M711 9q5 0 5 -5.5t-5 -5.5q-23 0 -57 1.5t-50 1.5q-51 0 -80.5 -32.5t-29.5 -88.5q0 -53 25.5 -85t67.5 -32q25 0 47 12q2 2 5.5 -2t1.5 -6q-49 -42 -109 -42q-56 0 -88 29.5t-32 78.5q0 33 17 61.5t38 45.5t40 40.5t23 46.5t-14 64l-109 219h-180l-77 -173
q-24 -61 -1.5 -93t83.5 -32q4 0 4 -6t-4 -6q-19 0 -55 2t-63 2q-26 0 -60.5 -2t-55.5 -2q-4 0 -4 6t4 6q41 0 66.5 27t60.5 108l215 484q2 3 9 3t8 -3l245 -495q33 -69 57.5 -98t51.5 -29zM238 335h157l-83 166z" />
    <glyph glyph-name="aogonek" unicode="&#x105;" horiz-adv-x="420" 
d="M416 54q5 2 6.5 -3.5t-2.5 -7.5l-103 -49q-1 -1 -2 -1q-2 -1 -3 -1q-56 -56 -56 -118q0 -50 25.5 -80.5t70.5 -30.5q29 0 50 15q2 1 4.5 -0.5t3.5 -3.5t-1 -4q-53 -45 -111 -45q-51 0 -83.5 30t-32.5 76q0 80 112 165q-24 15 -31 55l-52 -28q-58 -30 -99 -30
q-32 0 -49.5 16.5t-17.5 45.5q0 31 22 46.5t84 36.5l109 37v80q0 118 -56 118q-54 0 -62 -79q-5 -50 -51 -50q-43 0 -43 37q0 39 68 76.5t125 37.5q45 0 72.5 -27.5t27.5 -82.5v-177q0 -63 39 -63q15 0 36 9zM231 51l30 16q-1 4 -1 15v77l-71 -26q-48 -18 -48 -50
q0 -21 12 -33t31 -12q21 0 47 13z" />
    <glyph glyph-name="Cacute" unicode="&#x106;" horiz-adv-x="669" 
d="M282 679q-4 -2 -6 3t1 7q31 19 78 55.5t60 45.5q10 7 66 -16q27 -11 26 -16q0 -1 -3 -2q-108 -27 -222 -77zM419 636q108 0 170 -30q14 -5 15 -23l12 -130q0 -3 -5 -4t-6 3q-29 78 -87.5 119t-137.5 41q-104 0 -163 -73t-59 -196q0 -141 71.5 -238.5t179.5 -97.5
q135 0 205 168q2 4 7 3t5 -4l-15 -128q-2 -12 -4.5 -15.5t-11.5 -7.5q-87 -35 -185 -35q-92 0 -164.5 29.5t-113.5 78.5t-62 105t-21 115q0 141 110 230.5t260 89.5z" />
    <glyph glyph-name="cacute" unicode="&#x107;" horiz-adv-x="420" 
d="M238 474q0 -2 -3 -2t-5.5 1.5t-2.5 2.5l39 240q4 9 60 14q29 3 26 -3zM233 -12q-97 0 -148.5 59.5t-51.5 138.5q0 94 71.5 151.5t158.5 57.5q47 0 85 -19t38 -51q0 -17 -13 -29.5t-36 -12.5q-38 0 -55 45q-10 25 -21 35.5t-35 10.5q-47 0 -74.5 -42.5t-27.5 -113.5
q0 -83 38.5 -134.5t120.5 -51.5q48 0 98 29q2 2 5.5 -2t1.5 -6q-71 -65 -155 -65z" />
    <glyph glyph-name="Ccircumflex" unicode="&#x108;" horiz-adv-x="669" 
d="M265 699l103 110q12 11 23 0l102 -110q2 -1 1.5 -3t-3 -3.5t-3.5 -0.5l-108 45l-109 -45q-1 0 -3 1t-3 3t0 3zM419 636q108 0 170 -30q14 -5 15 -23l12 -130q0 -3 -5 -4t-6 3q-29 78 -87.5 119t-137.5 41q-104 0 -163 -73t-59 -196q0 -141 71.5 -238.5t179.5 -97.5
q135 0 205 168q2 4 7 3t5 -4l-15 -128q-2 -12 -4.5 -15.5t-11.5 -7.5q-87 -35 -185 -35q-92 0 -164.5 29.5t-113.5 78.5t-62 105t-21 115q0 141 110 230.5t260 89.5z" />
    <glyph glyph-name="ccircumflex" unicode="&#x109;" horiz-adv-x="420" 
d="M319 476q2 -2 -3.5 -3.5t-6.5 1.5l-68 127l-69 -127q-1 -2 -4 -2t-5 1.5t-2 2.5l68 249q1 5 11 5t12 -5zM233 -12q-97 0 -148.5 59.5t-51.5 138.5q0 94 71.5 151.5t158.5 57.5q47 0 85 -19t38 -51q0 -17 -13 -29.5t-36 -12.5q-38 0 -55 45q-10 25 -21 35.5t-35 10.5
q-47 0 -74.5 -42.5t-27.5 -113.5q0 -83 38.5 -134.5t120.5 -51.5q48 0 98 29q2 2 5.5 -2t1.5 -6q-71 -65 -155 -65z" />
    <glyph glyph-name="Cdotaccent" unicode="&#x10a;" horiz-adv-x="669" 
d="M380 713q-26 0 -40.5 14.5t-14.5 40.5q0 24 14.5 38.5t40.5 14.5q25 0 39 -14.5t14 -38.5q0 -26 -14 -40.5t-39 -14.5zM419 636q108 0 170 -30q14 -5 15 -23l12 -130q0 -3 -5 -4t-6 3q-29 78 -87.5 119t-137.5 41q-104 0 -163 -73t-59 -196q0 -141 71.5 -238.5
t179.5 -97.5q135 0 205 168q2 4 7 3t5 -4l-15 -128q-2 -12 -4.5 -15.5t-11.5 -7.5q-87 -35 -185 -35q-92 0 -164.5 29.5t-113.5 78.5t-62 105t-21 115q0 141 110 230.5t260 89.5z" />
    <glyph glyph-name="cdotaccent" unicode="&#x10b;" horiz-adv-x="420" 
d="M240 501q-55 0 -55 54q0 52 55 52q53 0 53 -52q0 -54 -53 -54zM233 -12q-97 0 -148.5 59.5t-51.5 138.5q0 94 71.5 151.5t158.5 57.5q47 0 85 -19t38 -51q0 -17 -13 -29.5t-36 -12.5q-38 0 -55 45q-10 25 -21 35.5t-35 10.5q-47 0 -74.5 -42.5t-27.5 -113.5
q0 -83 38.5 -134.5t120.5 -51.5q48 0 98 29q2 2 5.5 -2t1.5 -6q-71 -65 -155 -65z" />
    <glyph glyph-name="Ccaron" unicode="&#x10c;" horiz-adv-x="669" 
d="M367 687l-103 109q-1 1 0 3.5t3 3.5t3 0l109 -45l108 46q2 2 4.5 -1.5t0.5 -5.5l-102 -110q-12 -11 -23 0zM419 636q108 0 170 -30q14 -5 15 -23l12 -130q0 -3 -5 -4t-6 3q-29 78 -87.5 119t-137.5 41q-104 0 -163 -73t-59 -196q0 -141 71.5 -238.5t179.5 -97.5
q135 0 205 168q2 4 7 3t5 -4l-15 -128q-2 -12 -4.5 -15.5t-11.5 -7.5q-87 -35 -185 -35q-92 0 -164.5 29.5t-113.5 78.5t-62 105t-21 115q0 141 110 230.5t260 89.5z" />
    <glyph glyph-name="ccaron" unicode="&#x10d;" horiz-adv-x="420" 
d="M160 726q0 2 2 3.5t5 1t4 -1.5l69 -128l68 128q1 1 4 1.5t5 -1t1 -3.5l-67 -249q-1 -5 -11 -5t-12 5zM233 -12q-97 0 -148.5 59.5t-51.5 138.5q0 94 71.5 151.5t158.5 57.5q47 0 85 -19t38 -51q0 -17 -13 -29.5t-36 -12.5q-38 0 -55 45q-10 25 -21 35.5t-35 10.5
q-47 0 -74.5 -42.5t-27.5 -113.5q0 -83 38.5 -134.5t120.5 -51.5q48 0 98 29q2 2 5.5 -2t1.5 -6q-71 -65 -155 -65z" />
    <glyph glyph-name="Dcaron" unicode="&#x10e;" horiz-adv-x="700" 
d="M309 687l-103 109q-1 1 0 3.5t3 3.5t3 0l109 -45l108 46q2 2 4.5 -1.5t0.5 -5.5l-102 -110q-12 -11 -23 0zM318 -4q-19 0 -77 3t-85 3q-24 0 -66 -1t-58 -1q-2 0 -2 6t2 6q49 0 63 12.5t14 56.5v463q0 43 -14 56t-62 13q-2 0 -2 6t2 6q16 0 57.5 -1.5t65.5 -1.5
q25 0 77.5 2.5t70.5 2.5q155 0 251 -86.5t96 -217.5q0 -146 -96.5 -236.5t-236.5 -90.5zM308 16q106 0 171 75t65 210q0 131 -63 218.5t-167 87.5q-63 0 -86 -12.5t-23 -52.5v-450q0 -41 21 -58.5t82 -17.5z" />
    <glyph glyph-name="dcaron" unicode="&#x10f;" horiz-adv-x="511" 
d="M484 722q0 5 18 -1t35 -16.5t16 -17.5l-50 -238q-1 -2 -6 -1.5t-5 2.5zM503 62q2 1 4.5 -1.5t3 -5.5t-1.5 -4l-128 -62q-3 -1 -6 -1q-10 0 -18.5 20t-9.5 54q-79 -75 -157 -75q-66 0 -111.5 52.5t-45.5 141.5q0 56 22 100t56.5 68.5t73 37t77.5 12.5q44 0 84 -16v209
q0 35 -6.5 50.5t-23.5 15.5q-11 0 -40 -12q-3 -1 -5.5 1.5t-3 5.5t0.5 4l141 67q2 1 4 1q4 0 9 -4t5 -7v-600q0 -35 7 -49.5t24 -14.5q20 0 45 12zM240 31q53 0 106 50v1v238q-40 55 -103 55q-119 0 -119 -163q0 -84 32.5 -132.5t83.5 -48.5z" />
    <glyph glyph-name="Dcroat" unicode="&#x110;" horiz-adv-x="700" 
d="M304 627q155 0 251 -86.5t96 -217.5q0 -146 -96.5 -236.5t-236.5 -90.5q-19 0 -77 3t-85 3q-24 0 -66 -1t-58 -1q-2 0 -2 6t2 6q49 0 63 12.5t14 56.5v217h-56q-5 0 -5 13t5 13h56v220q0 43 -14 56t-62 13q-2 0 -2 6t2 6q16 0 57.5 -1.5t65.5 -1.5q25 0 77.5 2.5
t70.5 2.5zM308 16q106 0 171 75t65 210q0 131 -63 218.5t-167 87.5q-63 0 -86 -12.5t-23 -52.5v-218h136q4 0 4 -13t-4 -13h-136v-206q0 -41 21 -58.5t82 -17.5z" />
    <glyph glyph-name="dcroat" unicode="&#x111;" horiz-adv-x="512" 
d="M503 62q2 1 4.5 -1.5t3 -5.5t-1.5 -4l-128 -62q-3 -1 -6 -1q-10 0 -18.5 20t-9.5 54q-79 -75 -157 -75q-66 0 -111.5 52.5t-45.5 141.5q0 56 22 100t56.5 68.5t73 37t77.5 12.5q44 0 84 -16v120h-162q-7 0 -7 13t7 13h162v63q0 35 -6.5 50.5t-23.5 15.5q-11 0 -40 -12
q-3 -1 -5.5 1.5t-3 5.5t0.5 4l141 67q2 1 4 1q4 0 9 -4t5 -7v-185h61q8 0 8 -13t-8 -13h-61v-389q0 -35 7 -49.5t24 -14.5q20 0 45 12zM240 31q53 0 106 50v1v238q-40 55 -103 55q-119 0 -119 -163q0 -84 32.5 -132.5t83.5 -48.5z" />
    <glyph glyph-name="Emacron" unicode="&#x112;" horiz-adv-x="547" 
d="M170 716q-8 0 -8 17t8 17h251q9 0 9 -17t-9 -17h-251zM489 156q1 3 6.5 1.5t5.5 -3.5q-10 -76 -10 -139q0 -15 -15 -15h-434q-3 0 -3 6t3 6q49 0 62.5 12.5t13.5 56.5v463q0 43 -14 56t-62 13q-3 0 -3 6t3 6h416q10 0 10 -9l2 -130q0 -2 -5 -3t-7 2q-24 114 -139 114h-40
q-36 0 -51 -13t-15 -44v-204h96q110 0 110 74q0 3 5.5 3t5.5 -3q0 -24 -0.5 -50t-0.5 -37q0 -16 1.5 -48t1.5 -51q0 -2 -6 -2t-6 2q0 86 -112 86h-95v-227q0 -33 12.5 -46t44.5 -13h49q134 0 170 130z" />
    <glyph glyph-name="emacron" unicode="&#x113;" horiz-adv-x="415" 
d="M106 477q-8 0 -8 17t8 17h251q9 0 9 -17t-9 -17h-251zM378 62q4 4 7 -4q1 -3 0 -5q-68 -65 -154 -65q-92 0 -145 56.5t-53 136.5q0 90 64.5 152t159.5 62q59 0 91 -26.5t32 -72.5q0 -27 -11 -27h-55l-188 -2q-3 -21 -3 -45q0 -87 40.5 -138.5t112.5 -51.5q57 0 102 30z
M221 375q-33 0 -57 -24t-34 -66l156 3q-3 87 -65 87z" />
    <glyph glyph-name="Ebreve" unicode="&#x114;" horiz-adv-x="547" 
d="M296 690q-48 0 -74.5 31t-28.5 89q0 4 5 4t6 -2q2 -21 29 -38.5t63 -17.5q35 0 62 17.5t29 38.5q0 4 8 2q3 -1 3 -4q-5 -120 -102 -120zM489 156q1 3 6.5 1.5t5.5 -3.5q-10 -76 -10 -139q0 -15 -15 -15h-434q-3 0 -3 6t3 6q49 0 62.5 12.5t13.5 56.5v463q0 43 -14 56
t-62 13q-3 0 -3 6t3 6h416q10 0 10 -9l2 -130q0 -2 -5 -3t-7 2q-24 114 -139 114h-40q-36 0 -51 -13t-15 -44v-204h96q110 0 110 74q0 3 5.5 3t5.5 -3q0 -24 -0.5 -50t-0.5 -37q0 -16 1.5 -48t1.5 -51q0 -2 -6 -2t-6 2q0 86 -112 86h-95v-227q0 -33 12.5 -46t44.5 -13h49
q134 0 170 130z" />
    <glyph glyph-name="ebreve" unicode="&#x115;" horiz-adv-x="415" 
d="M232 466q-50 0 -76.5 40.5t-26.5 117.5q0 2 2.5 3t5.5 0.5t3 -1.5q0 -36 26.5 -62t65.5 -26q38 0 64.5 26t26.5 62q0 4 8 2q3 -1 3 -4q0 -158 -102 -158zM378 62q4 4 7 -4q1 -3 0 -5q-68 -65 -154 -65q-92 0 -145 56.5t-53 136.5q0 90 64.5 152t159.5 62q59 0 91 -26.5
t32 -72.5q0 -27 -11 -27h-55l-188 -2q-3 -21 -3 -45q0 -87 40.5 -138.5t112.5 -51.5q57 0 102 30zM221 375q-33 0 -57 -24t-34 -66l156 3q-3 87 -65 87z" />
    <glyph glyph-name="Edotaccent" unicode="&#x116;" horiz-adv-x="547" 
d="M297 713q-26 0 -40.5 14.5t-14.5 40.5q0 24 14.5 38.5t40.5 14.5q25 0 39 -14.5t14 -38.5q0 -26 -14 -40.5t-39 -14.5zM489 156q1 3 6.5 1.5t5.5 -3.5q-10 -76 -10 -139q0 -15 -15 -15h-434q-3 0 -3 6t3 6q49 0 62.5 12.5t13.5 56.5v463q0 43 -14 56t-62 13q-3 0 -3 6
t3 6h416q10 0 10 -9l2 -130q0 -2 -5 -3t-7 2q-24 114 -139 114h-40q-36 0 -51 -13t-15 -44v-204h96q110 0 110 74q0 3 5.5 3t5.5 -3q0 -24 -0.5 -50t-0.5 -37q0 -16 1.5 -48t1.5 -51q0 -2 -6 -2t-6 2q0 86 -112 86h-95v-227q0 -33 12.5 -46t44.5 -13h49q134 0 170 130z" />
    <glyph glyph-name="edotaccent" unicode="&#x117;" horiz-adv-x="415" 
d="M232 501q-55 0 -55 54q0 52 55 52q53 0 53 -52q0 -54 -53 -54zM378 62q4 4 7 -4q1 -3 0 -5q-68 -65 -154 -65q-92 0 -145 56.5t-53 136.5q0 90 64.5 152t159.5 62q59 0 91 -26.5t32 -72.5q0 -27 -11 -27h-55l-188 -2q-3 -21 -3 -45q0 -87 40.5 -138.5t112.5 -51.5
q57 0 102 30zM221 375q-33 0 -57 -24t-34 -66l156 3q-3 87 -65 87z" />
    <glyph glyph-name="Eogonek" unicode="&#x118;" horiz-adv-x="547" 
d="M501 -222q2 1 4.5 -0.5t3.5 -3.5t-1 -4q-53 -45 -111 -45q-51 0 -83.5 30t-32.5 76q0 82 118 169h-357q-3 0 -3 6t3 6q49 0 62.5 12.5t13.5 56.5v463q0 43 -14 56t-62 13q-3 0 -3 6t3 6h416q10 0 10 -9l2 -130q0 -2 -5 -3t-7 2q-24 114 -139 114h-40q-36 0 -51 -13
t-15 -44v-204h96q110 0 110 74q0 3 5.5 3t5.5 -3q0 -24 -0.5 -50t-0.5 -37q0 -16 1.5 -48t1.5 -51q0 -2 -6 -2t-6 2q0 86 -112 86h-95v-227q0 -33 12.5 -46t44.5 -13h49q134 0 170 130q1 3 6.5 1.5t5.5 -3.5q-10 -76 -10 -139q0 -15 -15 -15h-57q-34 -33 -49 -61.5
t-15 -64.5q0 -50 25.5 -80.5t70.5 -30.5q29 0 50 15z" />
    <glyph glyph-name="eogonek" unicode="&#x119;" horiz-adv-x="415" 
d="M378 -222q2 1 4.5 -0.5t3.5 -3.5t-1 -4q-46 -45 -101 -45q-52 0 -81.5 26t-29.5 69q0 86 117 176q-25 -8 -59 -8q-92 0 -145 56.5t-53 136.5q0 90 64.5 152t159.5 62q59 0 91 -26.5t32 -72.5q0 -27 -11 -27h-55l-188 -2q-3 -21 -3 -45q0 -87 40.5 -138.5t112.5 -51.5
q57 0 102 30q4 4 7 -4q1 -3 0 -5q-20 -18 -36 -29q-94 -84 -94 -172q0 -91 73 -91q27 0 50 17zM221 375q-33 0 -57 -24t-34 -66l156 3q-3 87 -65 87z" />
    <glyph glyph-name="Ecaron" unicode="&#x11a;" horiz-adv-x="547" 
d="M284 687l-103 109q-1 1 0 3.5t3 3.5t3 0l109 -45l108 46q2 2 4.5 -1.5t0.5 -5.5l-102 -110q-11 -11 -23 0zM489 156q1 3 6.5 1.5t5.5 -3.5q-10 -76 -10 -139q0 -15 -15 -15h-434q-3 0 -3 6t3 6q49 0 62.5 12.5t13.5 56.5v463q0 43 -14 56t-62 13q-3 0 -3 6t3 6h416
q10 0 10 -9l2 -130q0 -2 -5 -3t-7 2q-24 114 -139 114h-40q-36 0 -51 -13t-15 -44v-204h96q110 0 110 74q0 3 5.5 3t5.5 -3q0 -24 -0.5 -50t-0.5 -37q0 -16 1.5 -48t1.5 -51q0 -2 -6 -2t-6 2q0 86 -112 86h-95v-227q0 -33 12.5 -46t44.5 -13h49q134 0 170 130z" />
    <glyph glyph-name="ecaron" unicode="&#x11b;" horiz-adv-x="415" 
d="M220 477l-68 249q0 2 2 3.5t5 1t4 -1.5l69 -128l68 128q1 1 4 1.5t5 -1t1 -3.5l-67 -249q-1 -5 -11 -5t-12 5zM378 62q4 4 7 -4q1 -3 0 -5q-68 -65 -154 -65q-92 0 -145 56.5t-53 136.5q0 90 64.5 152t159.5 62q59 0 91 -26.5t32 -72.5q0 -27 -11 -27h-55l-188 -2
q-3 -21 -3 -45q0 -87 40.5 -138.5t112.5 -51.5q57 0 102 30zM221 375q-33 0 -57 -24t-34 -66l156 3q-3 87 -65 87z" />
    <glyph glyph-name="Gcircumflex" unicode="&#x11c;" horiz-adv-x="717" 
d="M280 699l103 110q11 11 23 0l102 -110q2 -1 1.5 -3t-3 -3.5t-3.5 -0.5l-108 45l-109 -45q-1 0 -3 1t-3 3t0 3zM408 -12q-166 0 -262.5 90.5t-96.5 227.5q0 146 108 238t272 92q107 0 170 -30q13 -5 14 -23l12 -130q0 -3 -5 -4t-7 3q-30 75 -90 117t-141 42
q-110 0 -169 -71.5t-59 -196.5q0 -149 78.5 -243.5t199.5 -94.5q65 0 90 23.5t25 97.5q0 73 -16.5 90t-87.5 17q-4 0 -5.5 4t0 8t4.5 4q118 -8 237 -2q5 0 5 -7t-5 -7q-28 1 -34.5 -18t-6.5 -99q0 -40 3.5 -63t3.5 -25q0 -8 -12 -12q-126 -28 -225 -28z" />
    <glyph glyph-name="gcircumflex" unicode="&#x11d;" horiz-adv-x="445" 
d="M151 474q-1 -2 -4 -2t-5 1.5t-2 2.5l68 249q1 5 11 5t12 -5l67 -249q2 -2 -3.5 -3.5t-6.5 1.5l-68 127zM245 40q99 -16 132 -33q54 -29 54 -88q0 -78 -75 -139.5t-177 -61.5q-73 0 -119 32.5t-46 84.5q0 76 108 151q-65 19 -65 71q0 56 76 101q-41 15 -64 45.5t-23 66.5
q0 56 51 89.5t115 33.5q66 0 108 -32q54 34 109 34q7 0 7 -26q0 -31 -8 -40q-2 -2 -3 -1q-42 16 -72 16q-9 0 -14 -1q27 -30 27 -70q0 -54 -50 -89.5t-116 -35.5q-28 0 -51 6q-26 -20 -26 -48q0 -17 9 -28.5t30 -18.5t36 -10.5t47 -8.5zM182 375q-51 0 -51 -80q0 -54 27 -92
t67 -38q23 0 39 21t16 65q0 53 -29 88.5t-69 35.5zM228 -251q59 0 94.5 33t35.5 85q0 24 -10.5 41.5t-23 27.5t-39 17.5t-42.5 10.5t-49 7q-48 8 -50 9q-44 -40 -44 -102q0 -61 35 -95t93 -34z" />
    <glyph glyph-name="Gbreve" unicode="&#x11e;" horiz-adv-x="717" 
d="M394 690q-48 0 -74.5 31t-28.5 89q0 4 5 4t6 -2q2 -21 29 -38.5t63 -17.5q35 0 62 17.5t29 38.5q0 4 8 2q3 -1 3 -4q-5 -120 -102 -120zM408 -12q-166 0 -262.5 90.5t-96.5 227.5q0 146 108 238t272 92q107 0 170 -30q13 -5 14 -23l12 -130q0 -3 -5 -4t-7 3
q-30 75 -90 117t-141 42q-110 0 -169 -71.5t-59 -196.5q0 -149 78.5 -243.5t199.5 -94.5q65 0 90 23.5t25 97.5q0 73 -16.5 90t-87.5 17q-4 0 -5.5 4t0 8t4.5 4q118 -8 237 -2q5 0 5 -7t-5 -7q-28 1 -34.5 -18t-6.5 -99q0 -40 3.5 -63t3.5 -25q0 -8 -12 -12
q-126 -28 -225 -28z" />
    <glyph glyph-name="gbreve" unicode="&#x11f;" horiz-adv-x="445" 
d="M219 466q-50 0 -76.5 40.5t-26.5 117.5q0 2 3 3t5.5 0.5t2.5 -1.5q0 -36 26.5 -62t65.5 -26q38 0 64.5 26t26.5 62q0 4 8 2q3 -1 3 -4q0 -158 -102 -158zM245 40q99 -16 132 -33q54 -29 54 -88q0 -78 -75 -139.5t-177 -61.5q-73 0 -119 32.5t-46 84.5q0 76 108 151
q-65 19 -65 71q0 56 76 101q-41 15 -64 45.5t-23 66.5q0 56 51 89.5t115 33.5q66 0 108 -32q54 34 109 34q7 0 7 -26q0 -31 -8 -40q-2 -2 -3 -1q-42 16 -72 16q-9 0 -14 -1q27 -30 27 -70q0 -54 -50 -89.5t-116 -35.5q-28 0 -51 6q-26 -20 -26 -48q0 -17 9 -28.5t30 -18.5
t36 -10.5t47 -8.5zM182 375q-51 0 -51 -80q0 -54 27 -92t67 -38q23 0 39 21t16 65q0 53 -29 88.5t-69 35.5zM228 -251q59 0 94.5 33t35.5 85q0 24 -10.5 41.5t-23 27.5t-39 17.5t-42.5 10.5t-49 7q-48 8 -50 9q-44 -40 -44 -102q0 -61 35 -95t93 -34z" />
    <glyph glyph-name="Gdotaccent" unicode="&#x120;" horiz-adv-x="717" 
d="M395 713q-26 0 -40.5 14.5t-14.5 40.5q0 24 14.5 38.5t40.5 14.5q25 0 39 -14.5t14 -38.5q0 -26 -14 -40.5t-39 -14.5zM408 -12q-166 0 -262.5 90.5t-96.5 227.5q0 146 108 238t272 92q107 0 170 -30q13 -5 14 -23l12 -130q0 -3 -5 -4t-7 3q-30 75 -90 117t-141 42
q-110 0 -169 -71.5t-59 -196.5q0 -149 78.5 -243.5t199.5 -94.5q65 0 90 23.5t25 97.5q0 73 -16.5 90t-87.5 17q-4 0 -5.5 4t0 8t4.5 4q118 -8 237 -2q5 0 5 -7t-5 -7q-28 1 -34.5 -18t-6.5 -99q0 -40 3.5 -63t3.5 -25q0 -8 -12 -12q-126 -28 -225 -28z" />
    <glyph glyph-name="gdotaccent" unicode="&#x121;" horiz-adv-x="445" 
d="M219 501q-55 0 -55 54q0 52 55 52q53 0 53 -52q0 -54 -53 -54zM245 40q99 -16 132 -33q54 -29 54 -88q0 -78 -75 -139.5t-177 -61.5q-73 0 -119 32.5t-46 84.5q0 76 108 151q-65 19 -65 71q0 56 76 101q-41 15 -64 45.5t-23 66.5q0 56 51 89.5t115 33.5q66 0 108 -32
q54 34 109 34q7 0 7 -26q0 -31 -8 -40q-2 -2 -3 -1q-42 16 -72 16q-9 0 -14 -1q27 -30 27 -70q0 -54 -50 -89.5t-116 -35.5q-28 0 -51 6q-26 -20 -26 -48q0 -17 9 -28.5t30 -18.5t36 -10.5t47 -8.5zM182 375q-51 0 -51 -80q0 -54 27 -92t67 -38q23 0 39 21t16 65
q0 53 -29 88.5t-69 35.5zM228 -251q59 0 94.5 33t35.5 85q0 24 -10.5 41.5t-23 27.5t-39 17.5t-42.5 10.5t-49 7q-48 8 -50 9q-44 -40 -44 -102q0 -61 35 -95t93 -34z" />
    <glyph glyph-name="Gcommaaccent" unicode="&#x122;" horiz-adv-x="717" 
d="M679 247q5 0 5 -7t-5 -7q-28 1 -34.5 -18t-6.5 -99q0 -40 3.5 -63t3.5 -25q0 -8 -12 -12q-126 -28 -225 -28q-166 0 -262.5 90.5t-96.5 227.5q0 146 108 238t272 92q107 0 170 -30q13 -5 14 -23l12 -130q0 -3 -5 -4t-7 3q-30 75 -90 117t-141 42q-110 0 -169 -71.5
t-59 -196.5q0 -149 78.5 -243.5t199.5 -94.5q65 0 90 23.5t25 97.5q0 73 -16.5 90t-87.5 17q-4 0 -5.5 4t0 8t4.5 4q118 -8 237 -2zM412 -74q32 0 49 -21t17 -58q0 -65 -71 -122q-4 -2 -7.5 2t0.5 7q46 37 46 75q0 21 -8 31q-11 -17 -38 -17q-20 0 -32.5 14t-12.5 37
q0 25 16.5 38.5t40.5 13.5z" />
    <glyph glyph-name="gcommaaccent" unicode="&#x123;" horiz-adv-x="445" 
d="M222 480q-32 0 -49 21t-17 58q0 65 71 122q4 2 7.5 -2t-0.5 -7q-46 -37 -46 -75q0 -21 8 -31q11 17 38 17q20 0 32.5 -14t12.5 -37q0 -25 -16.5 -38.5t-40.5 -13.5zM245 40q99 -16 132 -33q54 -29 54 -88q0 -78 -75 -139.5t-177 -61.5q-73 0 -119 32.5t-46 84.5
q0 76 108 151q-65 19 -65 71q0 56 76 101q-41 15 -64 45.5t-23 66.5q0 56 51 89.5t115 33.5q66 0 108 -32q54 34 109 34q7 0 7 -26q0 -31 -8 -40q-2 -2 -3 -1q-42 16 -72 16q-9 0 -14 -1q27 -30 27 -70q0 -54 -50 -89.5t-116 -35.5q-28 0 -51 6q-26 -20 -26 -48
q0 -17 9 -28.5t30 -18.5t36 -10.5t47 -8.5zM182 375q-51 0 -51 -80q0 -54 27 -92t67 -38q23 0 39 21t16 65q0 53 -29 88.5t-69 35.5zM228 -251q59 0 94.5 33t35.5 85q0 24 -10.5 41.5t-23 27.5t-39 17.5t-42.5 10.5t-49 7q-48 8 -50 9q-44 -40 -44 -102q0 -61 35 -95t93 -34
z" />
    <glyph glyph-name="Hcircumflex" unicode="&#x124;" horiz-adv-x="762" 
d="M275 692q-1 0 -3 1t-3 3t0 3l103 110q12 11 23 0l102 -110q2 -1 1.5 -3t-3 -3.5t-3.5 -0.5l-108 45zM729 12q3 0 3 -6t-3 -6q-15 0 -59 1t-69 1q-32 0 -76 -1t-57 -1q-3 0 -3 6t3 6q54 0 69 12.5t15 56.5v231h-343v-231q0 -44 15.5 -56.5t69.5 -12.5q2 0 2 -6t-2 -6
q-16 0 -60.5 1t-75.5 1q-25 0 -68 -1t-58 -1q-2 0 -2 6t2 6q52 0 67 12.5t15 56.5v463q0 43 -15 56t-66 13q-2 0 -2 6t2 6q16 0 58 -1.5t67 -1.5q31 0 76 1.5t60 1.5q2 0 2 -6t-2 -6q-53 0 -69 -14t-16 -57v-204h343v204q0 44 -15 57.5t-69 13.5q-3 0 -3 6t3 6q13 0 57 -1.5
t76 -1.5q25 0 69 1.5t59 1.5q3 0 3 -6t-3 -6q-52 0 -66.5 -13t-14.5 -56v-463q0 -44 14.5 -56.5t66.5 -12.5z" />
    <glyph glyph-name="hcircumflex" unicode="&#x125;" horiz-adv-x="506" 
d="M20 727q-1 0 -3 1t-3 3t0 3l103 110q5 4 12 4t11 -4l102 -110q2 -1 1.5 -3t-3 -3.5t-3.5 -0.5l-108 45zM486 12q4 0 4 -6t-4 -6q-12 0 -44.5 1t-52.5 1t-52.5 -1t-44.5 -1q-3 0 -3 6t3 6q33 0 45 14.5t12 54.5v149q0 110 -86 110q-59 0 -103 -46v-213q0 -41 11.5 -55
t45.5 -14q4 0 4 -6t-4 -6q-12 0 -44.5 1t-52.5 1t-52.5 -1t-44.5 -1q-3 0 -3 6t3 6q33 0 45 14.5t12 54.5v511q0 66 -30 66q-16 0 -41 -12q-2 -1 -4.5 1.5t-3 6t1.5 4.5l139 66q3 1 5 1q4 0 8.5 -4t4.5 -7v-400q72 83 153 83q55 0 85.5 -33t30.5 -90v-193q0 -41 11.5 -55
t45.5 -14z" />
    <glyph glyph-name="Hbar" unicode="&#x126;" horiz-adv-x="762" 
d="M729 12q3 0 3 -6t-3 -6q-15 0 -59 1t-69 1q-32 0 -76 -1t-57 -1q-3 0 -3 6t3 6q54 0 69 12.5t15 56.5v138h-343v-138q0 -44 15.5 -56.5t69.5 -12.5q2 0 2 -6t-2 -6q-16 0 -60.5 1t-75.5 1q-25 0 -68 -1t-58 -1q-2 0 -2 6t2 6q52 0 67 12.5t15 56.5v463q0 43 -15 56
t-66 13q-2 0 -2 6t2 6q16 0 58 -1.5t67 -1.5q31 0 76 1.5t60 1.5q2 0 2 -6t-2 -6q-53 0 -69 -14t-16 -57v-110h343v110q0 44 -15 57.5t-69 13.5q-3 0 -3 6t3 6q13 0 57 -1.5t76 -1.5q25 0 69 1.5t59 1.5q3 0 3 -6t-3 -6q-52 0 -66.5 -13t-14.5 -56v-463q0 -44 14.5 -56.5
t66.5 -12.5zM209 245h343v161h-343v-161z" />
    <glyph glyph-name="hbar" unicode="&#x127;" horiz-adv-x="506" 
d="M486 12q4 0 4 -6t-4 -6q-12 0 -44.5 1t-52.5 1t-52.5 -1t-44.5 -1q-3 0 -3 6t3 6q33 0 45 14.5t12 54.5v149q0 110 -86 110q-59 0 -103 -46v-213q0 -41 11.5 -55t45.5 -14q4 0 4 -6t-4 -6q-12 0 -44.5 1t-52.5 1t-52.5 -1t-44.5 -1q-3 0 -3 6t3 6q33 0 45 14.5t12 54.5
v422h-72q-8 0 -8 13t8 13h72v63q0 66 -30 66q-16 0 -41 -12q-2 -1 -4.5 1.5t-3 6t1.5 4.5l139 66q3 1 5 1q4 0 8.5 -4t4.5 -7v-185h152q7 0 7 -13t-7 -13h-152v-189q72 83 153 83q55 0 85.5 -33t30.5 -90v-193q0 -41 11.5 -55t45.5 -14z" />
    <glyph glyph-name="Itilde" unicode="&#x128;" horiz-adv-x="339" 
d="M44 697q-3 -3 -7 4q-1 2 0 3q43 75 87 75q13 0 55.5 -12t66.5 -12q18 0 28 6t23 21q3 3 7 -4q1 -2 0 -3q-27 -45 -43.5 -60t-37.5 -15q-19 0 -61.5 12t-66.5 12q-7 0 -13 -1t-9.5 -2t-8 -4.5l-6.5 -5t-7 -7t-7 -7.5zM218 81q0 -44 13 -56.5t62 -12.5q3 0 3 -6t-3 -6
q-15 0 -56.5 1t-68.5 1q-25 0 -67 -1t-57 -1q-3 0 -3 6t3 6q49 0 63 12.5t14 56.5v463q0 43 -14.5 56t-62.5 13q-3 0 -3 6t3 6q15 0 57 -1.5t67 -1.5q27 0 69 1.5t56 1.5q3 0 3 -6t-3 -6q-48 0 -61.5 -13.5t-13.5 -57.5v-461z" />
    <glyph glyph-name="itilde" unicode="&#x129;" horiz-adv-x="266" 
d="M190 530q26 0 49 27q3 3 6 -2q3 -3 1 -5q-26 -43 -43 -58.5t-35 -15.5q-14 0 -41 12t-44 12q-6 0 -10.5 -0.5t-9 -2.5t-7.5 -3.5t-6.5 -4.5t-5.5 -4.5t-6 -6t-5 -5.5t-3 0t-3.5 3.5t-0.5 3.5q47 75 85 75q10 0 36 -12.5t43 -12.5zM44 0q-3 0 -3 6t3 6q34 0 45 14t11 55
v182q0 65 -31 65q-15 0 -39 -12q-3 -1 -5 1.5t-2.5 6t1.5 4.5l144 67q2 1 3 1q4 0 8.5 -4.5t4.5 -7.5q0 -1 -1 -40t-1 -80v-183q0 -41 11.5 -55t45.5 -14q3 0 3 -6t-3 -6q-11 0 -44 1t-54 1q-20 0 -53 -1t-44 -1z" />
    <glyph glyph-name="Imacron" unicode="&#x12a;" horiz-adv-x="339" 
d="M43 716q-8 0 -8 17t8 17h251q9 0 9 -17t-9 -17h-251zM218 81q0 -44 13 -56.5t62 -12.5q3 0 3 -6t-3 -6q-15 0 -56.5 1t-68.5 1q-25 0 -67 -1t-57 -1q-3 0 -3 6t3 6q49 0 63 12.5t14 56.5v463q0 43 -14.5 56t-62.5 13q-3 0 -3 6t3 6q15 0 57 -1.5t67 -1.5q27 0 69 1.5
t56 1.5q3 0 3 -6t-3 -6q-48 0 -61.5 -13.5t-13.5 -57.5v-461z" />
    <glyph glyph-name="imacron" unicode="&#x12b;" horiz-adv-x="266" 
d="M10 477q-8 0 -8 17t8 17h251q9 0 9 -17t-9 -17h-251zM44 0q-3 0 -3 6t3 6q34 0 45 14t11 55v182q0 65 -31 65q-15 0 -39 -12q-3 -1 -5 1.5t-2.5 6t1.5 4.5l144 67q2 1 3 1q4 0 8.5 -4.5t4.5 -7.5q0 -1 -1 -40t-1 -80v-183q0 -41 11.5 -55t45.5 -14q3 0 3 -6t-3 -6
q-11 0 -44 1t-54 1q-20 0 -53 -1t-44 -1z" />
    <glyph glyph-name="Ibreve" unicode="&#x12c;" horiz-adv-x="339" 
d="M169 690q-48 0 -74.5 31t-28.5 89q0 4 5 4t6 -2q2 -21 29 -38.5t63 -17.5q35 0 62 17.5t29 38.5q0 4 8 2q3 -1 3 -4q-5 -120 -102 -120zM218 81q0 -44 13 -56.5t62 -12.5q3 0 3 -6t-3 -6q-15 0 -56.5 1t-68.5 1q-25 0 -67 -1t-57 -1q-3 0 -3 6t3 6q49 0 63 12.5t14 56.5
v463q0 43 -14.5 56t-62.5 13q-3 0 -3 6t3 6q15 0 57 -1.5t67 -1.5q27 0 69 1.5t56 1.5q3 0 3 -6t-3 -6q-48 0 -61.5 -13.5t-13.5 -57.5v-461z" />
    <glyph glyph-name="ibreve" unicode="&#x12d;" horiz-adv-x="266" 
d="M33 624q0 2 2.5 3t5.5 0.5t3 -1.5q0 -36 26.5 -62t65.5 -26q38 0 64.5 26t26.5 62q0 4 8 2q3 -1 3 -4q0 -158 -102 -158q-50 0 -76.5 40.5t-26.5 117.5zM44 0q-3 0 -3 6t3 6q34 0 45 14t11 55v182q0 65 -31 65q-15 0 -39 -12q-3 -1 -5 1.5t-2.5 6t1.5 4.5l144 67q2 1 3 1
q4 0 8.5 -4.5t4.5 -7.5q0 -1 -1 -40t-1 -80v-183q0 -41 11.5 -55t45.5 -14q3 0 3 -6t-3 -6q-11 0 -44 1t-54 1q-20 0 -53 -1t-44 -1z" />
    <glyph glyph-name="Iogonek" unicode="&#x12e;" horiz-adv-x="339" 
d="M293 12q3 0 3 -6t-3 -6q-14 0 -53 1t-64 1q-28 -50 -28 -109q0 -54 24.5 -90.5t60.5 -36.5q20 0 38 12q2 1 4.5 -0.5t3.5 -3.5t-1 -4q-45 -45 -101 -45q-48 0 -75.5 28t-27.5 76q0 83 85 173q-23 0 -61.5 -1t-53.5 -1q-3 0 -3 6t3 6q49 0 63 12.5t14 56.5v463
q0 43 -14.5 56t-62.5 13q-3 0 -3 6t3 6q15 0 57 -1.5t67 -1.5q27 0 69 1.5t56 1.5q3 0 3 -6t-3 -6q-48 0 -61.5 -13.5t-13.5 -57.5v-461q0 -44 13 -56.5t62 -12.5z" />
    <glyph glyph-name="iogonek" unicode="&#x12f;" horiz-adv-x="266" 
d="M136 501q-55 0 -55 54q0 52 55 52q53 0 53 -52q0 -54 -53 -54zM244 -218q2 1 4.5 -0.5t3.5 -3.5t-1 -4q-45 -45 -101 -45q-48 0 -75.5 28t-27.5 76q0 83 81 169q-17 0 -45.5 -1t-38.5 -1q-3 0 -3 6t3 6q34 0 45 14t11 55v182q0 65 -31 65q-15 0 -39 -12q-3 -1 -5 1.5
t-2.5 6t1.5 4.5l144 67q2 1 3 1q4 0 8.5 -4.5t4.5 -7.5q0 -1 -1 -40t-1 -80v-183q0 -41 11.5 -55t45.5 -14q3 0 3 -6t-3 -6q-11 0 -42 1t-50 1q-26 -51 -26 -105t24.5 -90.5t60.5 -36.5q20 0 38 12z" />
    <glyph glyph-name="Idotaccent" unicode="&#x130;" horiz-adv-x="339" 
d="M170 713q-26 0 -40.5 14.5t-14.5 40.5q0 24 14.5 38.5t40.5 14.5q25 0 39 -14.5t14 -38.5q0 -26 -14 -40.5t-39 -14.5zM218 81q0 -44 13 -56.5t62 -12.5q3 0 3 -6t-3 -6q-15 0 -56.5 1t-68.5 1q-25 0 -67 -1t-57 -1q-3 0 -3 6t3 6q49 0 63 12.5t14 56.5v463
q0 43 -14.5 56t-62.5 13q-3 0 -3 6t3 6q15 0 57 -1.5t67 -1.5q27 0 69 1.5t56 1.5q3 0 3 -6t-3 -6q-48 0 -61.5 -13.5t-13.5 -57.5v-461z" />
    <glyph glyph-name="dotlessi" unicode="&#x131;" horiz-adv-x="266" 
d="M44 0q-3 0 -3 6t3 6q34 0 45 14t11 55v182q0 65 -31 65q-15 0 -39 -12q-3 -1 -5 1.5t-2.5 6t1.5 4.5l144 67q2 1 3 1q4 0 8.5 -4.5t4.5 -7.5q0 -1 -1 -40t-1 -80v-183q0 -41 11.5 -55t45.5 -14q3 0 3 -6t-3 -6q-11 0 -44 1t-54 1q-20 0 -53 -1t-44 -1z" />
    <glyph glyph-name="IJ" unicode="&#x132;" horiz-adv-x="696" 
d="M212 350q0 -44 13.5 -56.5t63.5 -12.5q2 0 2 -6t-2 -6q-16 0 -57.5 1t-68.5 1q-24 0 -66 -1t-58 -1q-2 0 -2 6t2 6q49 0 63 12.5t14 56.5v194q0 43 -14.5 56t-62.5 13q-2 0 -2 6t2 6q16 0 58 -1.5t66 -1.5q27 0 69.5 1.5t56.5 1.5q2 0 2 -6t-2 -6q-49 0 -63 -13.5
t-14 -57.5v-192zM665 625q3 0 3 -6t-3 -6q-40 0 -52 -13.5t-12 -57.5v-284q0 -129 -70 -200t-187 -71q-98 0 -167.5 45t-69.5 100q0 22 13.5 36.5t39.5 14.5q27 0 39.5 -18t17.5 -44.5t13.5 -52.5t36 -44t76.5 -18q161 0 161 194v344q0 43 -16 56t-72 13q-3 0 -3 6t3 6
q19 0 64 -1.5t71 -1.5q25 0 63 1.5t51 1.5z" />
    <glyph glyph-name="ij" unicode="&#x133;" horiz-adv-x="530" 
d="M136 501q-55 0 -55 54q0 52 55 52q53 0 53 -52q0 -54 -53 -54zM400 501q-55 0 -55 54q0 52 55 52q53 0 53 -52q0 -54 -53 -54zM44 0q-3 0 -3 6t3 6q34 0 45 14t11 55v182q0 65 -31 65q-15 0 -39 -12q-3 -1 -5 1.5t-2.5 6t1.5 4.5l144 67q2 1 3 1q4 0 8.5 -4.5t4.5 -7.5
q0 -1 -1 -40t-1 -80v-183q0 -41 11.5 -55t45.5 -14q3 0 3 -6t-3 -6q-11 0 -44 1t-54 1q-20 0 -53 -1t-44 -1zM450 384q0 -1 -1 -40t-1 -80v-312q0 -100 -36 -151.5t-130 -82.5q-2 -1 -4.5 4.5t0.5 6.5q48 21 68 67t20 133v334q0 35 -6.5 50t-22.5 15t-40 -12q-3 -1 -5.5 1.5
t-3 6t1.5 4.5l144 67q2 1 3 1q4 0 8.5 -4.5t4.5 -7.5z" />
    <glyph glyph-name="Jcircumflex" unicode="&#x134;" horiz-adv-x="333" 
d="M57 702l103 110q4 4 11 4t12 -4l102 -110q2 -1 1.5 -3t-3 -3.5t-3.5 -0.5l-108 45l-109 -45q-1 0 -3 1t-3 3t0 3zM292 625q3 0 3 -6t-3 -6q-40 0 -52 -13.5t-12 -57.5v-554q0 -108 -52.5 -169.5t-147.5 -61.5q-36 0 -58.5 14.5t-22.5 40.5q0 18 12 31.5t34 13.5
q20 0 33.5 -12.5t19 -27t14.5 -27t20 -12.5q51 0 51 156v610q0 43 -16.5 56t-72.5 13q-2 0 -2 6t2 6q19 0 64.5 -1.5t71.5 -1.5q25 0 63 1.5t51 1.5z" />
    <glyph glyph-name="jcircumflex" unicode="&#x135;" horiz-adv-x="261" 
d="M210 476q2 -2 -3.5 -3.5t-6.5 1.5l-68 127l-69 -127q-1 -2 -4 -2t-5 1.5t-2 2.5l68 249q1 5 11 5t12 -5zM181 384q0 -1 -1 -40t-1 -80v-312q0 -100 -36 -151.5t-130 -82.5q-2 -1 -4.5 4.5t0.5 6.5q48 21 68 67t20 133v334q0 35 -6.5 50t-22.5 15t-40 -12q-3 -1 -5.5 1.5
t-3 6t1.5 4.5l144 67q2 1 3 1q4 0 8.5 -4.5t4.5 -7.5z" />
    <glyph glyph-name="Kcommaaccent" unicode="&#x136;" horiz-adv-x="653" 
d="M656 12q3 0 3 -6t-3 -6h-112q-10 0 -25 -1q-30 -1 -43.5 9.5t-62.5 77.5l-44 59l-139 182l-25 -26v-220q0 -44 13 -56.5t62 -12.5q4 0 4 -6t-4 -6q-15 0 -56.5 1t-67.5 1q-24 0 -66 -1t-58 -1q-2 0 -2 6t2 6q49 0 63 12.5t14 56.5v463q0 43 -14 56t-62 13q-2 0 -2 6t2 6
q16 0 57.5 -1.5t65.5 -1.5q26 0 68 1.5t56 1.5q3 0 3 -6t-3 -6q-47 0 -61 -13.5t-14 -57.5v-211l196 198q38 37 29.5 60.5t-59.5 23.5q-2 0 -2 6t2 6q14 0 53 -1.5t72 -1.5t71 1.5t51 1.5q3 0 3 -6t-3 -6q-44 0 -96.5 -24t-95.5 -66l-128 -128l147 -195l82 -109t54 -55.5
t36.5 -20.5t38.5 -3zM342 -74q32 0 49 -21t17 -58q0 -65 -71 -122q-4 -2 -7.5 2t0.5 7q46 37 46 75q0 21 -8 31q-11 -17 -38 -17q-20 0 -32.5 14t-12.5 37q0 25 16.5 38.5t40.5 13.5z" />
    <glyph glyph-name="kcommaaccent" unicode="&#x137;" horiz-adv-x="491" 
d="M492 12q3 0 3 -6t-3 -6q-12 0 -44.5 1t-52.5 1q-29 0 -68 -1t-53 -1q-2 0 -2 6t2 6q30 0 38.5 11t-5.5 30l-117 154l-30 -26v-100q0 -41 11.5 -55t45.5 -14q4 0 4 -6t-4 -6q-12 0 -44.5 1t-52.5 1t-52.5 -1t-44.5 -1q-3 0 -3 6t3 6q33 0 45 14.5t12 54.5v511q0 66 -30 66
q-16 0 -41 -12q-2 -1 -4.5 1.5t-3 6t1.5 4.5l139 66q3 1 5 1q4 0 8.5 -4t4.5 -7v-512l107 96q32 28 27.5 52t-43.5 24q-3 0 -3 6t3 6q14 0 51 -1t69 -1q30 0 64 1t45 1q3 0 3 -6t-3 -6q-41 0 -93 -20.5t-96 -59.5l-43 -37l133 -176q54 -69 111 -69zM244 -74q32 0 49 -21
t17 -58q0 -65 -71 -122q-4 -2 -7.5 2t0.5 7q46 37 46 75q0 21 -8 31q-11 -17 -38 -17q-20 0 -32.5 14t-12.5 37q0 25 16.5 38.5t40.5 13.5z" />
    <glyph glyph-name="kgreenlandic" unicode="&#x138;" horiz-adv-x="509" 
d="M510 12q2 0 2 -6t-2 -6q-12 0 -45 1t-53 1q-29 0 -68 -1t-52 -1q-3 0 -3 6t3 6q29 0 37.5 11t-5.5 30l-116 154l-30 -26v-100q0 -41 11.5 -55t45.5 -14q3 0 3 -6t-3 -6q-11 0 -44 1t-54 1q-20 0 -52.5 -1t-44.5 -1q-2 0 -2 6t2 6q34 0 45.5 14t11.5 55v191q0 62 -33 62
q-15 0 -50 -15q-2 -1 -4 1.5t-2.5 5.5t1.5 4l131 64q6 2 7 2q11 0 21 -25t10 -65v-104l106 96q21 18 27 36t-5.5 29t-36.5 11q-3 0 -3 6t3 6q14 0 51 -1t69 -1q30 0 64 1t45 1q2 0 2 -6t-2 -6q-41 0 -93 -20.5t-97 -59.5l-43 -38l134 -175q52 -69 111 -69z" />
    <glyph glyph-name="Lacute" unicode="&#x139;" horiz-adv-x="541" 
d="M64 679q-4 -2 -6 3t1 7q31 19 78 55.5t60 45.5q10 7 66 -16q27 -11 26 -16q0 -1 -3 -2q-108 -27 -222 -77zM204 543v-458q0 -38 11.5 -48.5t52.5 -10.5h60q71 0 120 39.5t65 106.5q1 3 6 2.5t5 -3.5q-9 -95 -9 -156q0 -15 -15 -15h-468q-2 0 -2 6t2 6q49 0 62.5 12.5
t13.5 56.5v463q0 43 -14 56t-62 13q-2 0 -2 6t2 6q14 0 56 -1.5t67 -1.5q27 0 68 1.5t56 1.5q3 0 3 -6t-3 -6q-48 0 -61.5 -13t-13.5 -57z" />
    <glyph glyph-name="lacute" unicode="&#x13a;" horiz-adv-x="265" 
d="M32 728q-4 -2 -6 3t1 7q31 19 78 55.5t60 45.5q10 7 66 -16q27 -11 26 -16q0 -1 -3 -2q-108 -27 -222 -77zM37 0q-3 0 -3 6t3 6q33 0 45 14.5t12 54.5v511q0 35 -6.5 50.5t-23.5 15.5q-14 0 -40 -12q-4 -1 -6.5 4.5t-0.5 7.5l141 66q2 1 4 1q4 0 9.5 -4t5.5 -7v-633
q0 -41 11 -55t45 -14q3 0 3 -6t-3 -6q-11 0 -44 1t-54 1t-54 -1t-44 -1z" />
    <glyph glyph-name="Lcommaaccent" unicode="&#x13b;" horiz-adv-x="541" 
d="M513 172q1 3 6 2.5t5 -3.5q-9 -95 -9 -156q0 -15 -15 -15h-468q-2 0 -2 6t2 6q49 0 62.5 12.5t13.5 56.5v463q0 43 -14 56t-62 13q-2 0 -2 6t2 6q14 0 56 -1.5t67 -1.5q27 0 68 1.5t56 1.5q3 0 3 -6t-3 -6q-48 0 -61.5 -13t-13.5 -57v-458q0 -38 11.5 -48.5t52.5 -10.5
h60q71 0 120 39.5t65 106.5zM288 -74q32 0 49 -21t17 -58q0 -65 -71 -122q-4 -2 -7.5 2t0.5 7q46 37 46 75q0 21 -8 31q-11 -17 -38 -17q-20 0 -32.5 14t-12.5 37q0 25 16.5 38.5t40.5 13.5z" />
    <glyph glyph-name="lcommaaccent" unicode="&#x13c;" horiz-adv-x="265" 
d="M233 12q3 0 3 -6t-3 -6q-11 0 -44 1t-54 1t-54 -1t-44 -1q-3 0 -3 6t3 6q33 0 45 14.5t12 54.5v511q0 35 -6.5 50.5t-23.5 15.5q-14 0 -40 -12q-4 -1 -6.5 4.5t-0.5 7.5l141 66q2 1 4 1q4 0 9.5 -4t5.5 -7v-633q0 -41 11 -55t45 -14zM129 -74q32 0 49 -21t17 -58
q0 -65 -71 -122q-4 -2 -7.5 2t0.5 7q46 37 46 75q0 21 -8 31q-11 -17 -38 -17q-20 0 -32.5 14t-12.5 37q0 25 16.5 38.5t40.5 13.5z" />
    <glyph glyph-name="Lcaron" unicode="&#x13d;" horiz-adv-x="541" 
d="M353 625q0 5 18 -1t35 -16.5t16 -17.5l-50 -238q-1 -2 -6 -1.5t-5 2.5zM204 543v-458q0 -38 11.5 -48.5t52.5 -10.5h60q71 0 120 39.5t65 106.5q1 3 6 2.5t5 -3.5q-9 -95 -9 -156q0 -15 -15 -15h-468q-2 0 -2 6t2 6q49 0 62.5 12.5t13.5 56.5v463q0 43 -14 56t-62 13
q-2 0 -2 6t2 6q14 0 56 -1.5t67 -1.5q27 0 68 1.5t56 1.5q3 0 3 -6t-3 -6q-48 0 -61.5 -13t-13.5 -57z" />
    <glyph glyph-name="lcaron" unicode="&#x13e;" horiz-adv-x="265" 
d="M238 725q0 5 18 -1t35 -16.5t16 -17.5l-50 -238q-1 -2 -6 -1.5t-5 2.5zM37 0q-3 0 -3 6t3 6q33 0 45 14.5t12 54.5v511q0 35 -6.5 50.5t-23.5 15.5q-14 0 -40 -12q-4 -1 -6.5 4.5t-0.5 7.5l141 66q2 1 4 1q4 0 9.5 -4t5.5 -7v-633q0 -41 11 -55t45 -14q3 0 3 -6t-3 -6
q-11 0 -44 1t-54 1t-54 -1t-44 -1z" />
    <glyph glyph-name="Ldot" unicode="&#x13f;" horiz-adv-x="541" 
d="M204 543v-458q0 -38 11.5 -48.5t52.5 -10.5h60q71 0 120 39.5t65 106.5q1 3 6 2.5t5 -3.5q-9 -95 -9 -156q0 -15 -15 -15h-468q-2 0 -2 6t2 6q49 0 62.5 12.5t13.5 56.5v463q0 43 -14 56t-62 13q-2 0 -2 6t2 6q14 0 56 -1.5t67 -1.5q27 0 68 1.5t56 1.5q3 0 3 -6t-3 -6
q-48 0 -61.5 -13t-13.5 -57zM428 263q-25 0 -40 15t-15 40q0 24 15 38.5t40 14.5q26 0 40 -14.5t14 -38.5q0 -26 -14 -40.5t-40 -14.5z" />
    <glyph glyph-name="ldot" unicode="&#x140;" horiz-adv-x="260" 
d="M37 0q-3 0 -3 6t3 6q33 0 45 14.5t12 54.5v511q0 35 -6.5 50.5t-23.5 15.5q-14 0 -40 -12q-4 -1 -6.5 4.5t-0.5 7.5l141 66q2 1 4 1q4 0 9.5 -4t5.5 -7v-633q0 -41 11 -55t45 -14q3 0 3 -6t-3 -6q-11 0 -44 1t-54 1t-54 -1t-44 -1zM256 272q-25 0 -40 15t-15 40
q0 24 15 38.5t40 14.5q26 0 40 -14.5t14 -38.5q0 -26 -14 -40.5t-40 -14.5z" />
    <glyph glyph-name="Lslash" unicode="&#x141;" horiz-adv-x="538" 
d="M513 172q1 3 6 2.5t5 -3.5q-9 -95 -9 -156q0 -15 -15 -15h-468q-2 0 -2 6t2 6q49 0 62.5 12.5t13.5 56.5v171l-52 -30q-2 -1 -6.5 4t-6.5 11t0 7l65 37v263q0 43 -14 56t-62 13q-2 0 -2 6t2 6q14 0 56 -1.5t67 -1.5q27 0 68 1.5t56 1.5q3 0 3 -6t-3 -6q-48 0 -61.5 -13
t-13.5 -57v-206l110 63q2 1 6 -4t6 -11t0 -7l-122 -70v-223q0 -38 11.5 -48.5t52.5 -10.5h60q71 0 120 39.5t65 106.5z" />
    <glyph glyph-name="lslash" unicode="&#x142;" horiz-adv-x="268" 
d="M230 431q3 2 9 -4t8 -13.5t-2 -10.5l-64 -38v-284q0 -41 11 -55t45 -14q3 0 3 -6t-3 -6q-11 0 -44 1t-54 1t-53.5 -1t-44.5 -1q-3 0 -3 6t3 6q33 0 45 14.5t12 54.5v234l-51 -31q-4 -2 -9 4.5t-7 13.5t0 10l67 40v240q0 35 -6.5 50.5t-23.5 15.5q-14 0 -40 -12
q-4 -1 -6.5 4.5t-0.5 7.5l141 66q2 1 4 1q4 0 9.5 -4t5.5 -7v-312z" />
    <glyph glyph-name="Nacute" unicode="&#x143;" horiz-adv-x="732" 
d="M283 679q-4 -2 -6 3t1 7q31 19 78 55.5t60 45.5q10 7 66 -16q27 -11 26 -16q0 -1 -3 -2q-108 -27 -222 -77zM717 625q2 0 2 -6t-2 -6q-40 0 -62 -28.5t-22 -81.5v-517q0 -3 -5 -4t-7 1l-469 545v-407q0 -53 21 -81t61 -28q2 0 2 -6t-2 -6q-13 0 -44 1t-50 1
q-20 0 -55.5 -1t-49.5 -1q-3 0 -3 6t3 6q43 0 66.5 28t23.5 81v438q-50 54 -97 54q-2 0 -2 6t2 6q13 0 39.5 -1t37.5 -1q23 0 55 1t38 1t10.5 -3t8 -8l12 -17t18.5 -24l359 -424v354q0 53 -21 81.5t-60 28.5q-2 0 -2 6t2 6q13 0 44 -1.5t50 -1.5q18 0 51.5 1.5t46.5 1.5z
" />
    <glyph glyph-name="nacute" unicode="&#x144;" horiz-adv-x="523" 
d="M273 474q0 -2 -3 -2t-5.5 1.5t-2.5 2.5l39 240q4 9 60 14q29 3 26 -3zM504 12q3 0 3 -6t-3 -6q-11 0 -44 1t-53 1t-52.5 -1t-44.5 -1q-3 0 -3 6t3 6q34 0 45 14t11 55v150q0 56 -20.5 82.5t-64.5 26.5q-55 0 -102 -44v-215q0 -41 11 -55t45 -14q3 0 3 -6t-3 -6
q-11 0 -44 1t-53 1t-53 -1t-44 -1q-3 0 -3 6t3 6q34 0 45 14t11 55v191q0 62 -32 62q-15 0 -50 -15q-6 -2 -7 7q-1 3 1 4l131 64q6 2 7 2q10 0 20.5 -22.5t11.5 -58.5q70 83 152 83q55 0 86 -33.5t31 -90.5v-193q0 -41 11 -55t45 -14z" />
    <glyph glyph-name="Ncommaaccent" unicode="&#x145;" horiz-adv-x="732" 
d="M717 625q2 0 2 -6t-2 -6q-40 0 -62 -28.5t-22 -81.5v-517q0 -3 -5 -4t-7 1l-469 545v-407q0 -53 21 -81t61 -28q2 0 2 -6t-2 -6q-13 0 -44 1t-50 1q-20 0 -55.5 -1t-49.5 -1q-3 0 -3 6t3 6q43 0 66.5 28t23.5 81v438q-50 54 -97 54q-2 0 -2 6t2 6q13 0 39.5 -1t37.5 -1
q23 0 55 1t38 1t10.5 -3t8 -8l12 -17t18.5 -24l359 -424v354q0 53 -21 81.5t-60 28.5q-2 0 -2 6t2 6q13 0 44 -1.5t50 -1.5q18 0 51.5 1.5t46.5 1.5zM368 -74q32 0 49 -21t17 -58q0 -65 -71 -122q-4 -2 -7.5 2t0.5 7q46 37 46 75q0 21 -8 31q-11 -17 -38 -17q-20 0 -32.5 14
t-12.5 37q0 25 16.5 38.5t40.5 13.5z" />
    <glyph glyph-name="ncommaaccent" unicode="&#x146;" horiz-adv-x="523" 
d="M504 12q3 0 3 -6t-3 -6q-11 0 -44 1t-53 1t-52.5 -1t-44.5 -1q-3 0 -3 6t3 6q34 0 45 14t11 55v150q0 56 -20.5 82.5t-64.5 26.5q-55 0 -102 -44v-215q0 -41 11 -55t45 -14q3 0 3 -6t-3 -6q-11 0 -44 1t-53 1t-53 -1t-44 -1q-3 0 -3 6t3 6q34 0 45 14t11 55v191
q0 62 -32 62q-15 0 -50 -15q-6 -2 -7 7q-1 3 1 4l131 64q6 2 7 2q10 0 20.5 -22.5t11.5 -58.5q70 83 152 83q55 0 86 -33.5t31 -90.5v-193q0 -41 11 -55t45 -14zM255 -74q32 0 49 -21t17 -58q0 -65 -71 -122q-4 -2 -7.5 2t0.5 7q46 37 46 75q0 21 -8 31q-11 -17 -38 -17
q-20 0 -32.5 14t-12.5 37q0 25 16.5 38.5t40.5 13.5z" />
    <glyph glyph-name="Ncaron" unicode="&#x147;" horiz-adv-x="732" 
d="M368 687l-103 109q-1 1 0 3.5t3 3.5t3 0l109 -45l108 46q2 2 4.5 -1.5t0.5 -5.5l-102 -110q-11 -11 -23 0zM717 625q2 0 2 -6t-2 -6q-40 0 -62 -28.5t-22 -81.5v-517q0 -3 -5 -4t-7 1l-469 545v-407q0 -53 21 -81t61 -28q2 0 2 -6t-2 -6q-13 0 -44 1t-50 1
q-20 0 -55.5 -1t-49.5 -1q-3 0 -3 6t3 6q43 0 66.5 28t23.5 81v438q-50 54 -97 54q-2 0 -2 6t2 6q13 0 39.5 -1t37.5 -1q23 0 55 1t38 1t10.5 -3t8 -8l12 -17t18.5 -24l359 -424v354q0 53 -21 81.5t-60 28.5q-2 0 -2 6t2 6q13 0 44 -1.5t50 -1.5q18 0 51.5 1.5t46.5 1.5z
" />
    <glyph glyph-name="ncaron" unicode="&#x148;" horiz-adv-x="523" 
d="M263 477l-68 249q0 2 2 3.5t5 1t4 -1.5l69 -128l68 128q1 1 4 1.5t5 -1t1 -3.5l-67 -249q-2 -5 -11.5 -5t-11.5 5zM504 12q3 0 3 -6t-3 -6q-11 0 -44 1t-53 1t-52.5 -1t-44.5 -1q-3 0 -3 6t3 6q34 0 45 14t11 55v150q0 56 -20.5 82.5t-64.5 26.5q-55 0 -102 -44v-215
q0 -41 11 -55t45 -14q3 0 3 -6t-3 -6q-11 0 -44 1t-53 1t-53 -1t-44 -1q-3 0 -3 6t3 6q34 0 45 14t11 55v191q0 62 -32 62q-15 0 -50 -15q-6 -2 -7 7q-1 3 1 4l131 64q6 2 7 2q10 0 20.5 -22.5t11.5 -58.5q70 83 152 83q55 0 86 -33.5t31 -90.5v-193q0 -41 11 -55t45 -14z
" />
    <glyph glyph-name="napostrophe" unicode="&#x149;" horiz-adv-x="523" 
d="M79 551q-24 0 -37 13.5t-13 36.5q0 52 58 52q71 0 71 -94t-92 -186q-4 -3 -7 0t-1 7q45 56 45 132q0 27 -6 42q-7 -3 -18 -3zM504 12q3 0 3 -6t-3 -6q-11 0 -44 1t-53 1t-52.5 -1t-44.5 -1q-3 0 -3 6t3 6q34 0 45 14t11 55v150q0 56 -20.5 82.5t-64.5 26.5
q-55 0 -102 -44v-215q0 -41 11 -55t45 -14q3 0 3 -6t-3 -6q-11 0 -44 1t-53 1t-53 -1t-44 -1q-3 0 -3 6t3 6q34 0 45 14t11 55v191q0 62 -32 62q-15 0 -50 -15q-6 -2 -7 7q-1 3 1 4l131 64q6 2 7 2q10 0 20.5 -22.5t11.5 -58.5q70 83 152 83q55 0 86 -33.5t31 -90.5v-193
q0 -41 11 -55t45 -14z" />
    <glyph glyph-name="Eng" unicode="&#x14a;" horiz-adv-x="732" 
d="M717 625q2 0 2 -6t-2 -6q-40 0 -62 -28.5t-22 -81.5v-517q0 -83 -34.5 -130t-96.5 -47q-44 0 -71 17.5t-27 44.5q0 21 12.5 34.5t33.5 13.5q24 0 34.5 -13.5t11 -29t7.5 -29t24 -13.5q37 0 58 41t21 110v15l-454 528v-407q0 -53 21 -81t61 -28q2 0 2 -6t-2 -6
q-13 0 -44 1t-50 1q-20 0 -55.5 -1t-49.5 -1q-3 0 -3 6t3 6q43 0 66.5 28t23.5 81v438q-50 54 -97 54q-2 0 -2 6t2 6q13 0 39.5 -1t37.5 -1q23 0 55 1t38 1t10.5 -3t8 -8l12 -17t18.5 -24l359 -424v354q0 53 -21 81.5t-60 28.5q-2 0 -2 6t2 6q13 0 44 -1.5t50 -1.5
q18 0 51.5 1.5t46.5 1.5z" />
    <glyph glyph-name="eng" unicode="&#x14b;" horiz-adv-x="507" 
d="M331 398q55 0 85.5 -33t30.5 -91v-322q0 -100 -36 -150.5t-129 -81.5q-2 -1 -4.5 4.5t0.5 6.5q48 21 68 66.5t20 131.5v302q0 109 -85 109q-56 0 -103 -45v-214q0 -41 11.5 -55t45.5 -14q3 0 3 -6t-3 -6q-11 0 -44 1t-54 1q-20 0 -52.5 -1t-44.5 -1q-2 0 -2 6t2 6
q34 0 45.5 14t11.5 55v191q0 62 -33 62q-15 0 -50 -15q-2 -1 -4 1.5t-2.5 5.5t1.5 4l131 64q6 2 7 2q10 0 20 -22.5t11 -58.5q72 83 153 83z" />
    <glyph glyph-name="Omacron" unicode="&#x14c;" horiz-adv-x="766" 
d="M261 716q-8 0 -8 17t8 17h251q9 0 9 -17t-9 -17h-251zM366 -12q-141 0 -229 94t-88 230q0 78 32 141.5t83.5 102.5t112.5 59.5t124 20.5q142 0 229 -95t87 -222q0 -138 -103.5 -234.5t-247.5 -96.5zM400 12q92 0 151 73.5t59 204.5q0 141 -68 230.5t-182 89.5
q-97 0 -150.5 -69.5t-53.5 -192.5q0 -145 69 -240.5t175 -95.5z" />
    <glyph glyph-name="omacron" unicode="&#x14d;" horiz-adv-x="486" 
d="M118 477q-8 0 -8 17t8 17h251q9 0 9 -17t-9 -17h-251zM235 -13q-90 0 -146 61.5t-56 149.5q0 96 67 148.5t152 52.5q90 0 145 -62t55 -145q0 -91 -63.5 -148t-153.5 -57zM265 7q91 0 91 153q0 100 -40 159.5t-97 59.5q-91 0 -91 -146q0 -99 39 -162.5t98 -63.5z" />
    <glyph glyph-name="Obreve" unicode="&#x14e;" horiz-adv-x="766" 
d="M387 690q-48 0 -74.5 31t-28.5 89q0 4 5 4t6 -2q2 -21 29 -38.5t63 -17.5q35 0 62 17.5t29 38.5q0 4 8 2q3 -1 3 -4q-5 -120 -102 -120zM366 -12q-141 0 -229 94t-88 230q0 78 32 141.5t83.5 102.5t112.5 59.5t124 20.5q142 0 229 -95t87 -222q0 -138 -103.5 -234.5
t-247.5 -96.5zM400 12q92 0 151 73.5t59 204.5q0 141 -68 230.5t-182 89.5q-97 0 -150.5 -69.5t-53.5 -192.5q0 -145 69 -240.5t175 -95.5z" />
    <glyph glyph-name="obreve" unicode="&#x14f;" horiz-adv-x="486" 
d="M141 624q0 2 2.5 3t5.5 0.5t3 -1.5q0 -36 26.5 -62t65.5 -26q38 0 64.5 26t26.5 62q0 4 8 2q3 -1 3 -4q0 -158 -102 -158q-50 0 -76.5 40.5t-26.5 117.5zM235 -13q-90 0 -146 61.5t-56 149.5q0 96 67 148.5t152 52.5q90 0 145 -62t55 -145q0 -91 -63.5 -148t-153.5 -57z
M265 7q91 0 91 153q0 100 -40 159.5t-97 59.5q-91 0 -91 -146q0 -99 39 -162.5t98 -63.5z" />
    <glyph glyph-name="Ohungarumlaut" unicode="&#x150;" horiz-adv-x="766" 
d="M278 671q-4 -2 -7 2t0 8q49 57 90 116q5 10 54 -9q33 -14 30 -21q0 -1 -2 -2q-88 -39 -165 -94zM421 671q-4 -2 -6.5 2t-0.5 8q33 36 90 116q4 10 52 -9q33 -14 30 -21q0 -1 -2 -2q-85 -39 -163 -94zM366 -12q-141 0 -229 94t-88 230q0 78 32 141.5t83.5 102.5
t112.5 59.5t124 20.5q142 0 229 -95t87 -222q0 -138 -103.5 -234.5t-247.5 -96.5zM400 12q92 0 151 73.5t59 204.5q0 141 -68 230.5t-182 89.5q-97 0 -150.5 -69.5t-53.5 -192.5q0 -145 69 -240.5t175 -95.5z" />
    <glyph glyph-name="ohungarumlaut" unicode="&#x151;" horiz-adv-x="486" 
d="M146 447q-3 -2 -5.5 0t-3 4.5t1.5 4.5q27 32 81 110q5 10 54 -8q32 -12 29 -19q0 -1 -2 -2q-58 -23 -155 -90zM281 447q-4 -3 -7.5 1.5t-0.5 7.5l23 28.5l20 26.5l20.5 29t18.5 26q4 10 51 -8q34 -12 31 -19q-1 -1 -3 -2q-55 -22 -153 -90zM235 -13q-90 0 -146 61.5
t-56 149.5q0 96 67 148.5t152 52.5q90 0 145 -62t55 -145q0 -91 -63.5 -148t-153.5 -57zM265 7q91 0 91 153q0 100 -40 159.5t-97 59.5q-91 0 -91 -146q0 -99 39 -162.5t98 -63.5z" />
    <glyph glyph-name="OE" unicode="&#x152;" horiz-adv-x="926" 
d="M868 155q1 3 6.5 2t5.5 -3q-10 -76 -10 -139q0 -15 -15 -15h-312q-21 0 -66 -2t-67 -2q-160 0 -260.5 87t-100.5 218q0 146 102 236t248 90q23 0 74 -1t76 -1h289q9 0 9 -9l2 -130q0 -2 -5 -3t-6 2q-7 42 -45 78.5t-86 36.5h-49q-36 0 -50.5 -13t-14.5 -44v-205h96
q109 0 109 74q0 3 6 3t6 -3q0 -24 -1 -50t-1 -37q0 -16 1.5 -48t1.5 -51q0 -2 -6 -2t-6 2q0 86 -112 86h-94v-227q0 -33 12.5 -46t43.5 -13h58q52 0 99.5 38t61.5 91zM497 81v460q0 40 -16.5 53.5t-70.5 13.5q-113 0 -183.5 -75t-70.5 -210q0 -132 68 -219.5t180 -87.5
q57 0 75 12t18 53z" />
    <glyph glyph-name="oe" unicode="&#x153;" horiz-adv-x="686" 
d="M658 62q3 2 6.5 -2t0.5 -7q-68 -65 -150 -65q-103 0 -154 67q-55 -68 -144 -68q-86 0 -140.5 62t-54.5 149q0 65 34.5 112.5t81.5 68t98 20.5q95 0 144 -78q66 74 163 74q57 0 88.5 -26.5t31.5 -72.5q0 -27 -12 -27h-72l-163 -2q-5 -30 -5 -60q0 -81 39.5 -128t104.5 -47
q62 0 103 30zM244 5q37 0 59 43t22 122q0 95 -33.5 152.5t-88.5 57.5q-43 0 -67 -39.5t-24 -113.5q0 -92 38 -157t94 -65zM509 375q-66 0 -89 -90l148 4q0 41 -16 63.5t-43 22.5z" />
    <glyph glyph-name="Racute" unicode="&#x154;" horiz-adv-x="690" 
d="M160 679q-4 -2 -6 3t1 7q31 19 78 55.5t60 45.5q10 7 66 -16q27 -11 26 -16q0 -1 -3 -2q-108 -27 -222 -77zM699 12q3 0 3 -6t-3 -6h-161q-48 0 -238 317q-16 -3 -33 -3q-37 0 -52 1v-234q0 -44 13.5 -56.5t62.5 -12.5q2 0 2 -6t-2 -6q-16 0 -57 1t-68 1q-25 0 -67 -1
t-57 -1q-3 0 -3 6t3 6q49 0 63 12.5t14 56.5v463q0 43 -14 56t-62 13q-2 0 -2 6t2 6q15 0 56.5 -1.5t66.5 -1.5q19 0 64 3t65 3q89 0 137 -33t48 -93q0 -47 -28 -89t-73 -68q121 -187 190.5 -260t129.5 -73zM215 343q24 -4 58 -4q60 0 84 27t24 99q0 81 -27 112.5t-76 31.5
q-36 0 -49.5 -14t-13.5 -53v-199z" />
    <glyph glyph-name="racute" unicode="&#x155;" horiz-adv-x="374" 
d="M194 474q0 -2 -3 -2t-5.5 1.5t-2.5 2.5l39 240q4 9 60 14q29 3 26 -3zM291 396q23 0 44 -15t21 -36q0 -19 -11.5 -31t-31.5 -12q-19 0 -38 19.5t-34 19.5q-19 0 -62 -44v-216q0 -41 18.5 -55t72.5 -14q4 0 4 -6t-4 -6q-15 0 -59.5 1t-72.5 1q-20 0 -53 -1t-44 -1
q-3 0 -3 6t3 6q34 0 45 14t11 55v191q0 62 -32 62q-15 0 -50 -15q-6 -2 -7 7q-1 3 1 4l131 64q6 2 7 2q10 0 20 -21.5t12 -56.5q70 78 112 78z" />
    <glyph glyph-name="Rcommaaccent" unicode="&#x156;" horiz-adv-x="690" 
d="M699 12q3 0 3 -6t-3 -6h-161q-48 0 -238 317q-16 -3 -33 -3q-37 0 -52 1v-234q0 -44 13.5 -56.5t62.5 -12.5q2 0 2 -6t-2 -6q-16 0 -57 1t-68 1q-25 0 -67 -1t-57 -1q-3 0 -3 6t3 6q49 0 63 12.5t14 56.5v463q0 43 -14 56t-62 13q-2 0 -2 6t2 6q15 0 56.5 -1.5t66.5 -1.5
q19 0 64 3t65 3q89 0 137 -33t48 -93q0 -47 -28 -89t-73 -68q121 -187 190.5 -260t129.5 -73zM215 343q24 -4 58 -4q60 0 84 27t24 99q0 81 -27 112.5t-76 31.5q-36 0 -49.5 -14t-13.5 -53v-199zM338 -74q32 0 49 -21t17 -58q0 -65 -71 -122q-4 -2 -7.5 2t0.5 7q46 37 46 75
q0 21 -8 31q-11 -17 -38 -17q-20 0 -32.5 14t-12.5 37q0 25 16.5 38.5t40.5 13.5z" />
    <glyph glyph-name="rcommaaccent" unicode="&#x157;" horiz-adv-x="374" 
d="M291 396q23 0 44 -15t21 -36q0 -19 -11.5 -31t-31.5 -12q-19 0 -38 19.5t-34 19.5q-19 0 -62 -44v-216q0 -41 18.5 -55t72.5 -14q4 0 4 -6t-4 -6q-15 0 -59.5 1t-72.5 1q-20 0 -53 -1t-44 -1q-3 0 -3 6t3 6q34 0 45 14t11 55v191q0 62 -32 62q-15 0 -50 -15q-6 -2 -7 7
q-1 3 1 4l131 64q6 2 7 2q10 0 20 -21.5t12 -56.5q70 78 112 78zM147 -74q32 0 49 -21t17 -58q0 -65 -71 -122q-4 -2 -7.5 2t0.5 7q46 37 46 75q0 21 -8 31q-11 -17 -38 -17q-20 0 -32.5 14t-12.5 37q0 25 16.5 38.5t40.5 13.5z" />
    <glyph glyph-name="Rcaron" unicode="&#x158;" horiz-adv-x="690" 
d="M245 687l-103 109q-1 1 0 3.5t3 3.5t3 0l109 -45l108 46q2 2 4.5 -1.5t0.5 -5.5l-102 -110q-12 -11 -23 0zM699 12q3 0 3 -6t-3 -6h-161q-48 0 -238 317q-16 -3 -33 -3q-37 0 -52 1v-234q0 -44 13.5 -56.5t62.5 -12.5q2 0 2 -6t-2 -6q-16 0 -57 1t-68 1q-25 0 -67 -1
t-57 -1q-3 0 -3 6t3 6q49 0 63 12.5t14 56.5v463q0 43 -14 56t-62 13q-2 0 -2 6t2 6q15 0 56.5 -1.5t66.5 -1.5q19 0 64 3t65 3q89 0 137 -33t48 -93q0 -47 -28 -89t-73 -68q121 -187 190.5 -260t129.5 -73zM215 343q24 -4 58 -4q60 0 84 27t24 99q0 81 -27 112.5t-76 31.5
q-36 0 -49.5 -14t-13.5 -53v-199z" />
    <glyph glyph-name="rcaron" unicode="&#x159;" horiz-adv-x="374" 
d="M184 477l-68 249q0 2 2 3.5t5 1t4 -1.5l69 -128l68 128q1 1 4 1.5t5 -1t1 -3.5l-67 -249q-1 -5 -11 -5t-12 5zM291 396q23 0 44 -15t21 -36q0 -19 -11.5 -31t-31.5 -12q-19 0 -38 19.5t-34 19.5q-19 0 -62 -44v-216q0 -41 18.5 -55t72.5 -14q4 0 4 -6t-4 -6
q-15 0 -59.5 1t-72.5 1q-20 0 -53 -1t-44 -1q-3 0 -3 6t3 6q34 0 45 14t11 55v191q0 62 -32 62q-15 0 -50 -15q-6 -2 -7 7q-1 3 1 4l131 64q6 2 7 2q10 0 20 -21.5t12 -56.5q70 78 112 78z" />
    <glyph glyph-name="Sacute" unicode="&#x15a;" horiz-adv-x="507" 
d="M169 679q-4 -2 -6 3t1 7q31 19 78 55.5t60 45.5q10 7 66 -16q27 -11 26 -16q0 -1 -3 -2q-108 -27 -222 -77zM164 519q0 -28 10.5 -51.5t34 -45t41.5 -34t53 -34.5q39 -25 57 -37.5t44.5 -37.5t38 -53t11.5 -62q0 -78 -59 -127t-153 -49q-42 0 -86.5 11t-67.5 27
q-9 6 -10 19l-6 152q-1 4 4 5t7 -3q15 -38 29.5 -66t37 -58.5t52.5 -47.5t65 -17q43 0 72 23.5t29 78.5q0 34 -11 61.5t-36.5 51.5t-43 36.5t-54.5 36.5t-53.5 36t-41 35t-35 49.5t-10.5 58.5q0 76 60.5 117.5t141.5 41.5q74 0 125 -23q15 -6 15 -19l3 -136q0 -3 -5 -4.5
t-7 2.5q-52 160 -154 160q-45 0 -71.5 -26t-26.5 -71z" />
    <glyph glyph-name="sacute" unicode="&#x15b;" horiz-adv-x="337" 
d="M171 474q0 -2 -3 -2t-5.5 1.5t-2.5 2.5l39 240q4 9 60 14q29 3 26 -3zM112 334q0 -31 21.5 -52t62.5 -44q61 -34 80 -56q24 -27 24 -65q0 -52 -39 -90t-108 -38q-55 0 -101 28q-6 6 -6 12l-2 92q0 3 5.5 3.5t6.5 -1.5q17 -50 51.5 -82t73.5 -32q54 0 53 55
q0 26 -14.5 46.5t-29 30.5t-42.5 25q-26 14 -37 20.5t-29 21t-25.5 33t-7.5 43.5q0 57 41.5 85t100.5 28q39 0 80 -15q9 -4 9 -11q0 -11 -1 -39t-1 -45q0 -3 -6 -3t-6 3q0 31 -34.5 61t-73.5 30q-46 0 -46 -44z" />
    <glyph glyph-name="Scircumflex" unicode="&#x15c;" horiz-adv-x="507" 
d="M152 699l103 110q11 11 23 0l102 -110q2 -1 1.5 -3t-3 -3.5t-3.5 -0.5l-108 45l-109 -45q-1 0 -3 1t-3 3t0 3zM164 519q0 -28 10.5 -51.5t34 -45t41.5 -34t53 -34.5q39 -25 57 -37.5t44.5 -37.5t38 -53t11.5 -62q0 -78 -59 -127t-153 -49q-42 0 -86.5 11t-67.5 27
q-9 6 -10 19l-6 152q-1 4 4 5t7 -3q15 -38 29.5 -66t37 -58.5t52.5 -47.5t65 -17q43 0 72 23.5t29 78.5q0 34 -11 61.5t-36.5 51.5t-43 36.5t-54.5 36.5t-53.5 36t-41 35t-35 49.5t-10.5 58.5q0 76 60.5 117.5t141.5 41.5q74 0 125 -23q15 -6 15 -19l3 -136q0 -3 -5 -4.5
t-7 2.5q-52 160 -154 160q-45 0 -71.5 -26t-26.5 -71z" />
    <glyph glyph-name="scircumflex" unicode="&#x15d;" horiz-adv-x="337" 
d="M252 476q2 -2 -3.5 -3.5t-6.5 1.5l-68 127l-69 -127q-1 -2 -4 -2t-5 1.5t-2 2.5l68 249q1 5 11 5t12 -5zM112 334q0 -31 21.5 -52t62.5 -44q61 -34 80 -56q24 -27 24 -65q0 -52 -39 -90t-108 -38q-55 0 -101 28q-6 6 -6 12l-2 92q0 3 5.5 3.5t6.5 -1.5q17 -50 51.5 -82
t73.5 -32q54 0 53 55q0 26 -14.5 46.5t-29 30.5t-42.5 25q-26 14 -37 20.5t-29 21t-25.5 33t-7.5 43.5q0 57 41.5 85t100.5 28q39 0 80 -15q9 -4 9 -11q0 -11 -1 -39t-1 -45q0 -3 -6 -3t-6 3q0 31 -34.5 61t-73.5 30q-46 0 -46 -44z" />
    <glyph glyph-name="Scedilla" unicode="&#x15e;" horiz-adv-x="507" 
d="M454 164q0 -71 -50 -119t-132 -56q-8 -34 -1 -50.5t37 -33.5q55 -33 55 -78q0 -40 -29 -71t-87 -31q-71 0 -71 45q0 14 10.5 25t25.5 11q17 0 25.5 -9t11 -20t11 -20t24.5 -9q26 0 26 28q0 26 -18.5 47t-65.5 47q-6 3 -8.5 6t-2 8t4.5 15q16 39 34 89h-12q-42 0 -86.5 11
t-67.5 27q-9 6 -10 19l-6 152q-1 4 4 5t7 -3q15 -38 29.5 -66t37 -58.5t52.5 -47.5t65 -17q43 0 72 23.5t29 78.5q0 34 -11 61.5t-36.5 51.5t-43 36.5t-54.5 36.5t-53.5 36t-41 35t-35 49.5t-10.5 58.5q0 76 60.5 117.5t141.5 41.5q74 0 125 -23q15 -6 15 -19l3 -136
q0 -3 -5 -4.5t-7 2.5q-52 160 -154 160q-45 0 -71.5 -26t-26.5 -71q0 -28 10.5 -51.5t34 -45t41.5 -34t53 -34.5q39 -25 57 -37.5t44.5 -37.5t38 -53t11.5 -62z" />
    <glyph glyph-name="scedilla" unicode="&#x15f;" horiz-adv-x="337" 
d="M211 -95q55 -33 55 -78q0 -40 -29 -71t-87 -31q-71 0 -71 45q0 14 10.5 25t25.5 11q17 0 25.5 -9t11 -20t11 -20t24.5 -9q26 0 26 28q0 26 -18.5 47t-65.5 47q-6 3 -8.5 6t-2 8t4.5 15q16 40 34 90h-4q-55 0 -101 28q-6 6 -6 12l-2 92q0 3 5.5 3.5t6.5 -1.5
q17 -50 51.5 -82t73.5 -32q54 0 53 55q0 26 -14.5 46.5t-29 30.5t-42.5 25q-26 14 -37 20.5t-29 21t-25.5 33t-7.5 43.5q0 57 41.5 85t100.5 28q39 0 80 -15q9 -4 9 -11q0 -11 -1 -39t-1 -45q0 -3 -6 -3t-6 3q0 31 -34.5 61t-73.5 30q-46 0 -46 -44q0 -31 21.5 -52t62.5 -44
q61 -34 80 -56q24 -27 24 -65q0 -48 -33 -84.5t-92 -42.5q-8 -35 -1 -51.5t37 -33.5z" />
    <glyph glyph-name="Scaron" unicode="&#x160;" horiz-adv-x="507" 
d="M254 687l-103 109q-1 1 0 3.5t3 3.5t3 0l109 -45l108 46q2 2 4.5 -1.5t0.5 -5.5l-102 -110q-11 -11 -23 0zM164 519q0 -28 10.5 -51.5t34 -45t41.5 -34t53 -34.5q39 -25 57 -37.5t44.5 -37.5t38 -53t11.5 -62q0 -78 -59 -127t-153 -49q-42 0 -86.5 11t-67.5 27
q-9 6 -10 19l-6 152q-1 4 4 5t7 -3q15 -38 29.5 -66t37 -58.5t52.5 -47.5t65 -17q43 0 72 23.5t29 78.5q0 34 -11 61.5t-36.5 51.5t-43 36.5t-54.5 36.5t-53.5 36t-41 35t-35 49.5t-10.5 58.5q0 76 60.5 117.5t141.5 41.5q74 0 125 -23q15 -6 15 -19l3 -136q0 -3 -5 -4.5
t-7 2.5q-52 160 -154 160q-45 0 -71.5 -26t-26.5 -71z" />
    <glyph glyph-name="scaron" unicode="&#x161;" horiz-adv-x="337" 
d="M93 726q0 2 2 3.5t5 1t4 -1.5l69 -128l68 128q1 1 4 1.5t5 -1t1 -3.5l-67 -249q-2 -5 -11.5 -5t-11.5 5zM112 334q0 -31 21.5 -52t62.5 -44q61 -34 80 -56q24 -27 24 -65q0 -52 -39 -90t-108 -38q-55 0 -101 28q-6 6 -6 12l-2 92q0 3 5.5 3.5t6.5 -1.5q17 -50 51.5 -82
t73.5 -32q54 0 53 55q0 26 -14.5 46.5t-29 30.5t-42.5 25q-26 14 -37 20.5t-29 21t-25.5 33t-7.5 43.5q0 57 41.5 85t100.5 28q39 0 80 -15q9 -4 9 -11q0 -11 -1 -39t-1 -45q0 -3 -6 -3t-6 3q0 31 -34.5 61t-73.5 30q-46 0 -46 -44z" />
    <glyph glyph-name="uni0162" unicode="&#x162;" horiz-adv-x="640" 
d="M592 650q1 4 6 4t5 -4q-9 -97 -9 -196q0 -3 -5.5 -3t-6.5 3q-20 150 -147 150q-41 0 -52.5 -11.5t-11.5 -50.5v-461q0 -44 15.5 -56.5t71.5 -12.5q3 0 3 -6t-3 -6q-16 0 -58 1t-70 1q-11 -45 -5.5 -62.5t35.5 -34.5q55 -33 55 -78q0 -40 -29 -71t-87 -31q-71 0 -71 45
q0 14 10.5 25t25.5 11q17 0 25.5 -9t11 -20t11 -20t24.5 -9q26 0 26 28q0 26 -18.5 47t-65.5 47q-6 3 -8.5 6t-2 8t4.5 15q17 38 40 103q-26 0 -68 -1t-59 -1q-2 0 -2 6t2 6q56 0 72.5 12.5t16.5 56.5v463q0 37 -12 48.5t-51 11.5q-119 0 -161 -151q0 -1 -3 -2t-5.5 0
t-2.5 3q14 126 14 193q0 5 5.5 5t5.5 -5q0 -22 56 -22q85 -3 201 -3q52 0 112 1.5t81 1.5q38 0 55.5 5t22.5 20z" />
    <glyph glyph-name="uni0163" unicode="&#x163;" horiz-adv-x="337" 
d="M318 63q2 2 5 0.5t3.5 -4.5t-1.5 -5q-69 -65 -137 -66q-7 -33 0.5 -49.5t36.5 -33.5q55 -33 55 -78q0 -40 -29 -71t-87 -31q-71 0 -71 45q0 14 10.5 25t25.5 11q17 0 25.5 -9t11 -20t11 -20t24.5 -9q26 0 26 28q0 26 -18.5 47t-65.5 47q-6 3 -8.5 6t-2 8t4.5 15
q16 40 34 90q-38 3 -63 23.5t-25 64.5v226q0 33 -10.5 44t-40.5 11q-4 0 -4 8t4 8q94 4 118 81q2 4 8.5 4t6.5 -4v-79q47 1 133 10q7 0 7 -24q0 -6 -1.5 -12.5t-4.5 -10.5t-5 -3q-56 13 -129 16v-242q0 -76 74 -76q42 0 79 29z" />
    <glyph glyph-name="Tcaron" unicode="&#x164;" horiz-adv-x="640" 
d="M308 687l-103 109q-1 1 0 3.5t3 3.5t3 0l109 -45l108 46q2 2 4.5 -1.5t0.5 -5.5l-102 -110q-11 -11 -23 0zM211 604q-119 0 -161 -151q0 -1 -3 -2t-5.5 0t-2.5 3q14 126 14 193q0 5 5.5 5t5.5 -5q0 -22 56 -22q85 -3 201 -3q52 0 112 1.5t81 1.5q38 0 55.5 5t22.5 20
q1 4 6 4t5 -4q-9 -97 -9 -196q0 -3 -5.5 -3t-6.5 3q-20 150 -147 150q-41 0 -52.5 -11.5t-11.5 -50.5v-461q0 -44 15.5 -56.5t71.5 -12.5q3 0 3 -6t-3 -6q-16 0 -61.5 1t-75.5 1q-27 0 -73 -1t-63 -1q-2 0 -2 6t2 6q56 0 72.5 12.5t16.5 56.5v463q0 37 -12 48.5t-51 11.5z
" />
    <glyph glyph-name="tcaron" unicode="&#x165;" horiz-adv-x="337" 
d="M224 426q-1 -2 -6 -1.5t-5 2.5l-8 272q0 5 18 -1t35 -16.5t16 -17.5zM318 63q2 2 5 0.5t3.5 -4.5t-1.5 -5q-70 -66 -140 -66q-43 0 -72.5 20.5t-29.5 68.5v226q0 33 -10.5 44t-40.5 11q-4 0 -4 8t4 8q94 4 118 81q2 4 8.5 4t6.5 -4v-79q47 1 133 10q7 0 7 -24
q0 -6 -1.5 -12.5t-4.5 -10.5t-5 -3q-56 13 -129 16v-242q0 -76 74 -76q42 0 79 29z" />
    <glyph glyph-name="Tbar" unicode="&#x166;" horiz-adv-x="632" 
d="M592 650q1 4 6 4t5 -4q-9 -97 -9 -196q0 -3 -5.5 -3t-6.5 3q-20 150 -147 150q-41 0 -52.5 -11.5t-11.5 -50.5v-206h93q4 0 4 -13t-4 -13h-93v-229q0 -44 15.5 -56.5t71.5 -12.5q3 0 3 -6t-3 -6q-16 0 -61.5 1t-75.5 1q-27 0 -73 -1t-63 -1q-2 0 -2 6t2 6q56 0 72.5 12.5
t16.5 56.5v229h-94q-4 0 -4 13t4 13h94v208q0 37 -12 48.5t-51 11.5q-119 0 -161 -151q0 -1 -3 -2t-5.5 0t-2.5 3q14 126 14 193q0 5 5.5 5t5.5 -5q0 -22 56 -22q85 -3 201 -3q52 0 112 1.5t81 1.5q38 0 55.5 5t22.5 20z" />
    <glyph glyph-name="tbar" unicode="&#x167;" horiz-adv-x="339" 
d="M318 63q2 2 5 0.5t3.5 -4.5t-1.5 -5q-70 -66 -140 -66q-43 0 -72.5 20.5t-29.5 68.5v124h-32q-4 0 -4 13t4 13h32v76q0 33 -10.5 44t-40.5 11q-4 0 -4 8t4 8q94 4 118 81q2 4 8.5 4t6.5 -4v-79q47 1 133 10q7 0 7 -24q0 -6 -1.5 -12.5t-4.5 -10.5t-5 -3q-56 13 -129 16
v-125h115q4 0 4 -13t-4 -13h-115v-91q0 -76 74 -76q42 0 79 29z" />
    <glyph glyph-name="Utilde" unicode="&#x168;" horiz-adv-x="701" 
d="M449 769q28 0 50 27q3 3 6 -2q3 -3 1 -5q-26 -44 -43 -59t-39 -15q-18 0 -60 12t-67 12q-5 0 -9.5 -0.5t-8 -1t-7 -2.5t-5.5 -3t-5.5 -4.5l-4.5 -4.5t-5 -5.5t-5 -5.5q-2 -2 -5.5 1.5t-1.5 5.5q44 75 86 75q12 0 55 -12.5t68 -12.5zM571 503q0 52 -23.5 81t-67.5 29
q-2 0 -2 6t2 6q15 0 49.5 -1.5t56.5 -1.5q18 0 51 1.5t47 1.5q2 0 2 -6t-2 -6q-39 0 -60.5 -29t-21.5 -81v-280q0 -109 -67 -173t-178 -64q-112 0 -181 63.5t-69 172.5v322q0 43 -14 56t-62 13q-3 0 -3 6t3 6q15 0 56.5 -1.5t66.5 -1.5q27 0 68.5 1.5t55.5 1.5q3 0 3 -6
t-3 -6q-47 0 -61.5 -14t-14.5 -57v-285q0 -119 49.5 -177.5t138.5 -58.5q85 0 133 52.5t48 148.5v281z" />
    <glyph glyph-name="utilde" unicode="&#x169;" horiz-adv-x="501" 
d="M125 473q-2 -2 -5.5 1.5t-1.5 5.5q44 75 86 75q12 0 55 -12.5t68 -12.5q27 0 50 27q3 3 6 -2q3 -3 1 -5q-26 -44 -43 -59t-39 -15q-18 0 -60 12t-67 12q-5 0 -9.5 -0.5t-8 -1t-7 -2.5t-5.5 -3t-5.5 -4.5l-4.5 -4.5t-5 -5.5t-5 -5.5zM493 62q2 1 4.5 -1t3 -5t-1.5 -5
l-131 -63q-2 -1 -4 -1q-10 0 -18 22.5t-9 60.5q-70 -81 -148 -81q-54 0 -84 33.5t-30 91.5v149q0 68 -31 68q-10 0 -28 -8q-2 -1 -4.5 1.5t-3 6t1.5 4.5l127 59q2 1 4 1q4 0 9 -4t5 -7v-227q0 -111 84 -111q53 0 98 45v172q0 68 -31 68q-9 0 -28 -8q-2 -1 -4.5 2t-2.5 6t2 4
l126 59q2 1 5 1q4 0 9 -4t5 -7v-271q0 -35 7 -49t23 -14q12 0 45 12z" />
    <glyph glyph-name="Umacron" unicode="&#x16a;" horiz-adv-x="701" 
d="M247 716q-8 0 -8 17t8 17h251q9 0 9 -17t-9 -17h-251zM571 503q0 52 -23.5 81t-67.5 29q-2 0 -2 6t2 6q15 0 49.5 -1.5t56.5 -1.5q18 0 51 1.5t47 1.5q2 0 2 -6t-2 -6q-39 0 -60.5 -29t-21.5 -81v-280q0 -109 -67 -173t-178 -64q-112 0 -181 63.5t-69 172.5v322
q0 43 -14 56t-62 13q-3 0 -3 6t3 6q15 0 56.5 -1.5t66.5 -1.5q27 0 68.5 1.5t55.5 1.5q3 0 3 -6t-3 -6q-47 0 -61.5 -14t-14.5 -57v-285q0 -119 49.5 -177.5t138.5 -58.5q85 0 133 52.5t48 148.5v281z" />
    <glyph glyph-name="umacron" unicode="&#x16b;" horiz-adv-x="501" 
d="M125 477q-8 0 -8 17t8 17h251q9 0 9 -17t-9 -17h-251zM493 62q2 1 4.5 -1t3 -5t-1.5 -5l-131 -63q-2 -1 -4 -1q-10 0 -18 22.5t-9 60.5q-70 -81 -148 -81q-54 0 -84 33.5t-30 91.5v149q0 68 -31 68q-10 0 -28 -8q-2 -1 -4.5 1.5t-3 6t1.5 4.5l127 59q2 1 4 1q4 0 9 -4
t5 -7v-227q0 -111 84 -111q53 0 98 45v172q0 68 -31 68q-9 0 -28 -8q-2 -1 -4.5 2t-2.5 6t2 4l126 59q2 1 5 1q4 0 9 -4t5 -7v-271q0 -35 7 -49t23 -14q12 0 45 12z" />
    <glyph glyph-name="Ubreve" unicode="&#x16c;" horiz-adv-x="701" 
d="M373 690q-48 0 -74.5 31t-28.5 89q0 4 5 4t6 -2q2 -21 29 -38.5t63 -17.5q35 0 62 17.5t29 38.5q0 4 8 2q3 -1 3 -4q-5 -120 -102 -120zM571 503q0 52 -23.5 81t-67.5 29q-2 0 -2 6t2 6q15 0 49.5 -1.5t56.5 -1.5q18 0 51 1.5t47 1.5q2 0 2 -6t-2 -6q-39 0 -60.5 -29
t-21.5 -81v-280q0 -109 -67 -173t-178 -64q-112 0 -181 63.5t-69 172.5v322q0 43 -14 56t-62 13q-3 0 -3 6t3 6q15 0 56.5 -1.5t66.5 -1.5q27 0 68.5 1.5t55.5 1.5q3 0 3 -6t-3 -6q-47 0 -61.5 -14t-14.5 -57v-285q0 -119 49.5 -177.5t138.5 -58.5q85 0 133 52.5t48 148.5
v281z" />
    <glyph glyph-name="ubreve" unicode="&#x16d;" horiz-adv-x="501" 
d="M251 466q-50 0 -76.5 40.5t-26.5 117.5q0 2 3 3t5.5 0.5t2.5 -1.5q0 -36 26.5 -62t65.5 -26q38 0 64.5 26t26.5 62q0 4 8 2q3 -1 3 -4q0 -158 -102 -158zM493 62q2 1 4.5 -1t3 -5t-1.5 -5l-131 -63q-2 -1 -4 -1q-10 0 -18 22.5t-9 60.5q-70 -81 -148 -81q-54 0 -84 33.5
t-30 91.5v149q0 68 -31 68q-10 0 -28 -8q-2 -1 -4.5 1.5t-3 6t1.5 4.5l127 59q2 1 4 1q4 0 9 -4t5 -7v-227q0 -111 84 -111q53 0 98 45v172q0 68 -31 68q-9 0 -28 -8q-2 -1 -4.5 2t-2.5 6t2 4l126 59q2 1 5 1q4 0 9 -4t5 -7v-271q0 -35 7 -49t23 -14q12 0 45 12z" />
    <glyph glyph-name="Uring" unicode="&#x16e;" horiz-adv-x="701" 
d="M364 707q-45 0 -72.5 23.5t-27.5 55.5q0 36 34 57t76 21q41 0 70.5 -23.5t29.5 -56.5q0 -35 -33.5 -56t-76.5 -21zM380 720q29 0 29 46q0 35 -16 60t-39 25q-27 0 -27 -45q0 -33 14.5 -59.5t38.5 -26.5zM571 503q0 52 -23.5 81t-67.5 29q-2 0 -2 6t2 6q15 0 49.5 -1.5
t56.5 -1.5q18 0 51 1.5t47 1.5q2 0 2 -6t-2 -6q-39 0 -60.5 -29t-21.5 -81v-280q0 -109 -67 -173t-178 -64q-112 0 -181 63.5t-69 172.5v322q0 43 -14 56t-62 13q-3 0 -3 6t3 6q15 0 56.5 -1.5t66.5 -1.5q27 0 68.5 1.5t55.5 1.5q3 0 3 -6t-3 -6q-47 0 -61.5 -14t-14.5 -57
v-285q0 -119 49.5 -177.5t138.5 -58.5q85 0 133 52.5t48 148.5v281z" />
    <glyph glyph-name="uring" unicode="&#x16f;" horiz-adv-x="501" 
d="M242 468q-45 0 -72.5 23.5t-27.5 55.5q0 36 34 57t76 21q41 0 70.5 -23.5t29.5 -56.5q0 -35 -33.5 -56t-76.5 -21zM232 612q-27 0 -27 -45q0 -33 14.5 -59.5t38.5 -26.5q29 0 29 46q0 35 -16 60t-39 25zM493 62q2 1 4.5 -1t3 -5t-1.5 -5l-131 -63q-2 -1 -4 -1
q-10 0 -18 22.5t-9 60.5q-70 -81 -148 -81q-54 0 -84 33.5t-30 91.5v149q0 68 -31 68q-10 0 -28 -8q-2 -1 -4.5 1.5t-3 6t1.5 4.5l127 59q2 1 4 1q4 0 9 -4t5 -7v-227q0 -111 84 -111q53 0 98 45v172q0 68 -31 68q-9 0 -28 -8q-2 -1 -4.5 2t-2.5 6t2 4l126 59q2 1 5 1
q4 0 9 -4t5 -7v-271q0 -35 7 -49t23 -14q12 0 45 12z" />
    <glyph glyph-name="Uhungarumlaut" unicode="&#x170;" horiz-adv-x="701" 
d="M264 671q-4 -2 -7 2t0 8q49 57 90 116q5 10 54 -9q33 -14 30 -21q0 -1 -2 -2q-88 -39 -165 -94zM407 671q-4 -2 -6.5 2t-0.5 8q33 36 90 116q4 10 52 -9q33 -14 30 -21q0 -1 -2 -2q-85 -39 -163 -94zM571 503q0 52 -23.5 81t-67.5 29q-2 0 -2 6t2 6q15 0 49.5 -1.5
t56.5 -1.5q18 0 51 1.5t47 1.5q2 0 2 -6t-2 -6q-39 0 -60.5 -29t-21.5 -81v-280q0 -109 -67 -173t-178 -64q-112 0 -181 63.5t-69 172.5v322q0 43 -14 56t-62 13q-3 0 -3 6t3 6q15 0 56.5 -1.5t66.5 -1.5q27 0 68.5 1.5t55.5 1.5q3 0 3 -6t-3 -6q-47 0 -61.5 -14t-14.5 -57
v-285q0 -119 49.5 -177.5t138.5 -58.5q85 0 133 52.5t48 148.5v281z" />
    <glyph glyph-name="uhungarumlaut" unicode="&#x171;" horiz-adv-x="501" 
d="M153 447q-3 -2 -5.5 0t-3 4.5t1.5 4.5q27 32 81 110q5 10 54 -8q32 -12 29 -19q0 -1 -2 -2q-58 -23 -155 -90zM288 447q-4 -3 -7.5 1.5t-0.5 7.5l23 28.5l20 26.5l20.5 29t18.5 26q4 10 51 -8q34 -12 31 -19q-1 -1 -3 -2q-55 -22 -153 -90zM493 62q2 1 4.5 -1t3 -5
t-1.5 -5l-131 -63q-2 -1 -4 -1q-10 0 -18 22.5t-9 60.5q-70 -81 -148 -81q-54 0 -84 33.5t-30 91.5v149q0 68 -31 68q-10 0 -28 -8q-2 -1 -4.5 1.5t-3 6t1.5 4.5l127 59q2 1 4 1q4 0 9 -4t5 -7v-227q0 -111 84 -111q53 0 98 45v172q0 68 -31 68q-9 0 -28 -8q-2 -1 -4.5 2
t-2.5 6t2 4l126 59q2 1 5 1q4 0 9 -4t5 -7v-271q0 -35 7 -49t23 -14q12 0 45 12z" />
    <glyph glyph-name="Uogonek" unicode="&#x172;" horiz-adv-x="701" 
d="M684 625q2 0 2 -6t-2 -6q-39 0 -60.5 -29t-21.5 -81v-280q0 -89 -45.5 -148.5t-125.5 -79.5q-58 -58 -58 -121q0 -50 25.5 -80.5t70.5 -30.5q29 0 50 15q2 1 4.5 -0.5t3.5 -3.5t-1 -4q-53 -45 -111 -45q-51 0 -83.5 30t-32.5 76q0 76 103 158q-21 -3 -45 -3
q-112 0 -181 63.5t-69 172.5v322q0 43 -14 56t-62 13q-3 0 -3 6t3 6q15 0 56.5 -1.5t66.5 -1.5q27 0 68.5 1.5t55.5 1.5q3 0 3 -6t-3 -6q-47 0 -61.5 -14t-14.5 -57v-285q0 -119 49.5 -177.5t138.5 -58.5q85 0 133 52.5t48 148.5v281q0 52 -23.5 81t-67.5 29q-2 0 -2 6t2 6
q15 0 49.5 -1.5t56.5 -1.5q18 0 51 1.5t47 1.5z" />
    <glyph glyph-name="uogonek" unicode="&#x173;" horiz-adv-x="501" 
d="M493 62q2 1 4.5 -1t3 -5t-1.5 -5l-41 -19q-74 -40 -104.5 -80.5t-30.5 -97.5q0 -93 80 -93q32 0 57 17q2 1 4.5 -0.5t3.5 -3.5t-1 -4q-53 -45 -117 -45q-53 0 -81.5 26t-28.5 70q0 87 119 168q-21 13 -22 81q-70 -81 -148 -81q-54 0 -84 33.5t-30 91.5v149q0 68 -31 68
q-10 0 -28 -8q-2 -1 -4.5 1.5t-3 6t1.5 4.5l127 59q2 1 4 1q4 0 9 -4t5 -7v-227q0 -111 84 -111q53 0 98 45v172q0 68 -31 68q-9 0 -28 -8q-2 -1 -4.5 2t-2.5 6t2 4l126 59q2 1 5 1q4 0 9 -4t5 -7v-271q0 -35 7 -49t23 -14q12 0 45 12z" />
    <glyph glyph-name="Wcircumflex" unicode="&#x174;" horiz-adv-x="918" 
d="M362 692q-1 0 -3 1t-3 3t0 3l103 110q11 11 23 0l102 -110q2 -1 1.5 -3t-3 -3.5t-3.5 -0.5l-108 45zM923 625q2 0 2 -6t-2 -6q-75 0 -116 -105l-194 -507q-1 -4 -11 -4t-11 4l-129 276l-105 -276q-1 -4 -11 -4t-11 4l-253 541q-21 44 -35.5 57.5t-43.5 13.5q-3 0 -3 6
t3 6q10 0 30.5 -1.5t45.5 -1.5q45 0 87 1.5t50 1.5q3 0 3 -6t-3 -6q-41 0 -48 -15.5t16 -66.5l191 -407l72 186l-109 232q-18 37 -33.5 54t-36.5 17q-3 0 -3 6t3 6q9 0 28 -1.5t40 -1.5q37 0 70.5 1.5t38.5 1.5q3 0 3 -6t-3 -6q-15 0 -21.5 -3t-7 -12.5t5 -24.5t18.5 -42
l54 -114l36 95q21 52 18 76.5t-30 24.5q-3 0 -3 6t3 6q6 0 20.5 -1.5t44.5 -1.5q17 0 41.5 1.5t39.5 1.5q2 0 2 -6t-2 -6q-67 0 -107 -105l-48 -124l123 -260l146 381q18 49 4 78.5t-57 29.5q-3 0 -3 6t3 6q15 0 49 -1.5t60 -1.5q19 0 45.5 1.5t43.5 1.5z" />
    <glyph glyph-name="wcircumflex" unicode="&#x175;" horiz-adv-x="680" 
d="M268 474q-1 -2 -4 -2t-5 1.5t-2 2.5l68 249q1 5 11 5t12 -5l67 -249q2 -2 -3.5 -3.5t-6.5 1.5l-68 127zM688 386q3 0 3 -6t-3 -6q-27 0 -47.5 -20t-39.5 -64l-124 -289q-1 -4 -10.5 -4t-11.5 4l-118 240l-103 -240q-1 -4 -10.5 -4t-11.5 4l-148 302q-22 43 -37 57t-36 14
q-3 0 -3 6t3 6q8 0 36 -1t51 -1q26 0 61.5 1t47.5 1q3 0 3 -6t-3 -6q-31 0 -45.5 -9t-2.5 -30l118 -225l66 158l-17 35q-22 44 -34 57.5t-31 13.5q-2 0 -2 6t2 6q8 0 33.5 -1t46.5 -1q27 0 62 1t47 1q2 0 2 -6t-2 -6q-29 0 -42.5 -10t-2.5 -29l115 -226l75 183
q16 39 -0.5 60.5t-60.5 21.5q-3 0 -3 6t3 6q14 0 45 -1t55 -1q16 0 38 1t36 1z" />
    <glyph glyph-name="Ycircumflex" unicode="&#x176;" horiz-adv-x="616" 
d="M214 692q-1 0 -3 1t-3 3t0 3l103 110q11 11 23 0l102 -110q2 -1 1.5 -3t-3 -3.5t-3.5 -0.5l-108 45zM621 625q2 0 2 -6t-2 -6q-33 0 -75 -34.5t-75 -88.5l-114 -185v-224q0 -44 13.5 -56.5t62.5 -12.5q3 0 3 -6t-3 -6q-15 0 -56.5 1t-67.5 1q-25 0 -67.5 -1t-57.5 -1
q-2 0 -2 6t2 6q49 0 63 12.5t14 56.5v206l-152 232q-34 53 -58.5 73.5t-47.5 20.5q-3 0 -3 6t3 6q10 0 32 -1.5t33 -1.5q30 0 86.5 1.5t71.5 1.5q2 0 2 -6t-2 -6q-32 0 -39.5 -17.5t10.5 -42.5l145 -223l102 167q32 53 24 84.5t-54 31.5q-2 0 -2 6t2 6q18 0 57.5 -1.5
t71.5 -1.5q17 0 40 1.5t38 1.5z" />
    <glyph glyph-name="ycircumflex" unicode="&#x177;" horiz-adv-x="430" 
d="M155 474q-1 -2 -4 -2t-5 1.5t-2 2.5l68 249q1 5 11 5t12 -5l67 -249q2 -2 -3.5 -3.5t-6.5 1.5l-68 127zM438 386q2 0 2 -6t-2 -6q-55 0 -91 -97l-115 -305q-53 -141 -101.5 -197t-109.5 -56q-59 0 -59 46q0 20 12.5 30.5t30.5 10.5t38 -12.5t36 -12.5q33 0 61.5 43
t73.5 159l-158 320q-22 43 -34.5 57t-30.5 14q-3 0 -3 6t3 6q12 0 39.5 -1t39.5 -1q26 0 61.5 1t47.5 1q3 0 3 -6t-3 -6q-36 0 -47 -8.5t0 -30.5l122 -252l67 194q34 97 -58 97q-2 0 -2 6t2 6q14 0 45 -1t56 -1q16 0 38 1t36 1z" />
    <glyph glyph-name="Ydieresis" unicode="&#x178;" horiz-adv-x="616" 
d="M236 708q-51 0 -51 50q0 23 13.5 35.5t37.5 12.5q22 0 35 -13t13 -35q0 -50 -48 -50zM410 708q-23 0 -36.5 13t-13.5 37q0 22 13.5 35t36.5 13t36 -12.5t13 -35.5q0 -50 -49 -50zM621 625q2 0 2 -6t-2 -6q-33 0 -75 -34.5t-75 -88.5l-114 -185v-224q0 -44 13.5 -56.5
t62.5 -12.5q3 0 3 -6t-3 -6q-15 0 -56.5 1t-67.5 1q-25 0 -67.5 -1t-57.5 -1q-2 0 -2 6t2 6q49 0 63 12.5t14 56.5v206l-152 232q-34 53 -58.5 73.5t-47.5 20.5q-3 0 -3 6t3 6q10 0 32 -1.5t33 -1.5q30 0 86.5 1.5t71.5 1.5q2 0 2 -6t-2 -6q-32 0 -39.5 -17.5t10.5 -42.5
l145 -223l102 167q32 53 24 84.5t-54 31.5q-2 0 -2 6t2 6q18 0 57.5 -1.5t71.5 -1.5q17 0 40 1.5t38 1.5z" />
    <glyph glyph-name="Zacute" unicode="&#x179;" horiz-adv-x="602" 
d="M220 679q-4 -2 -6 3t1 7q31 19 78 55.5t60 45.5q10 7 66 -16q27 -11 26 -16q0 -1 -3 -2q-108 -27 -222 -77zM58 13l366 587q3 5 2.5 6.5t-7.5 1.5q-82 0 -127.5 -2t-87 -8.5t-64 -21t-40 -35.5t-33.5 -57q0 -1 -3.5 -1.5t-6 1t-2.5 3.5l40 168q0 1 3.5 1.5t6 -1t2.5 -2.5
q-3 -18 7.5 -23t49.5 -5h365q5 0 7.5 -5t-0.5 -8l-360 -585q-4 -5 -3 -6.5t7 -1.5h220q58 0 101 36t53 92q1 3 6 3t5 -3l-14 -139q0 -10 -9 -10q-149 2 -478 2q-5 0 -7 4.5t1 8.5z" />
    <glyph glyph-name="zacute" unicode="&#x17a;" horiz-adv-x="405" 
d="M209 474q0 -2 -3 -2t-5.5 1.5t-2.5 2.5l39 240q4 9 60 14q29 3 26 -3zM36 12l229 353q3 7 -5 7q-93 0 -144.5 -23.5t-69.5 -77.5q0 -1 -3.5 -1.5t-6 1t-1.5 3.5l40 148q0 1 3.5 1.5t6 -1t1.5 -3.5q-5 -19 6.5 -26t42.5 -7h224q4 0 7 -4t1 -8l-231 -350q-3 -7 5 -7
q111 0 159 23.5t64 85.5q1 3 6.5 3t5.5 -3l-2 -115q0 -11 -10 -11h-321q-4 0 -6.5 4t-0.5 8z" />
    <glyph glyph-name="Zdotaccent" unicode="&#x17b;" horiz-adv-x="602" 
d="M318 713q-26 0 -40.5 14.5t-14.5 40.5q0 24 14.5 38.5t40.5 14.5q25 0 39 -14.5t14 -38.5q0 -26 -14 -40.5t-39 -14.5zM58 13l366 587q3 5 2.5 6.5t-7.5 1.5q-82 0 -127.5 -2t-87 -8.5t-64 -21t-40 -35.5t-33.5 -57q0 -1 -3.5 -1.5t-6 1t-2.5 3.5l40 168q0 1 3.5 1.5
t6 -1t2.5 -2.5q-3 -18 7.5 -23t49.5 -5h365q5 0 7.5 -5t-0.5 -8l-360 -585q-4 -5 -3 -6.5t7 -1.5h220q58 0 101 36t53 92q1 3 6 3t5 -3l-14 -139q0 -10 -9 -10q-149 2 -478 2q-5 0 -7 4.5t1 8.5z" />
    <glyph glyph-name="zdotaccent" unicode="&#x17c;" horiz-adv-x="405" 
d="M211 501q-55 0 -55 54q0 52 55 52q53 0 53 -52q0 -54 -53 -54zM36 12l229 353q3 7 -5 7q-93 0 -144.5 -23.5t-69.5 -77.5q0 -1 -3.5 -1.5t-6 1t-1.5 3.5l40 148q0 1 3.5 1.5t6 -1t1.5 -3.5q-5 -19 6.5 -26t42.5 -7h224q4 0 7 -4t1 -8l-231 -350q-3 -7 5 -7
q111 0 159 23.5t64 85.5q1 3 6.5 3t5.5 -3l-2 -115q0 -11 -10 -11h-321q-4 0 -6.5 4t-0.5 8z" />
    <glyph glyph-name="Zcaron" unicode="&#x17d;" horiz-adv-x="602" 
d="M305 687l-103 109q-1 1 0 3.5t3 3.5t3 0l109 -45l108 46q2 2 4.5 -1.5t0.5 -5.5l-102 -110q-12 -11 -23 0zM58 13l366 587q3 5 2.5 6.5t-7.5 1.5q-82 0 -127.5 -2t-87 -8.5t-64 -21t-40 -35.5t-33.5 -57q0 -1 -3.5 -1.5t-6 1t-2.5 3.5l40 168q0 1 3.5 1.5t6 -1t2.5 -2.5
q-3 -18 7.5 -23t49.5 -5h365q5 0 7.5 -5t-0.5 -8l-360 -585q-4 -5 -3 -6.5t7 -1.5h220q58 0 101 36t53 92q1 3 6 3t5 -3l-14 -139q0 -10 -9 -10q-149 2 -478 2q-5 0 -7 4.5t1 8.5z" />
    <glyph glyph-name="zcaron" unicode="&#x17e;" horiz-adv-x="405" 
d="M131 726q0 2 2 3.5t5 1t4 -1.5l69 -128l68 128q1 1 4 1.5t5 -1t1 -3.5l-67 -249q-2 -5 -11.5 -5t-11.5 5zM36 12l229 353q3 7 -5 7q-93 0 -144.5 -23.5t-69.5 -77.5q0 -1 -3.5 -1.5t-6 1t-1.5 3.5l40 148q0 1 3.5 1.5t6 -1t1.5 -3.5q-5 -19 6.5 -26t42.5 -7h224q4 0 7 -4
t1 -8l-231 -350q-3 -7 5 -7q111 0 159 23.5t64 85.5q1 3 6.5 3t5.5 -3l-2 -115q0 -11 -10 -11h-321q-4 0 -6.5 4t-0.5 8z" />
    <glyph glyph-name="longs" unicode="&#x17f;" horiz-adv-x="261" 
d="M26 0q-3 0 -3 6t3 6q40 0 51.5 12.5t11.5 56.5v337q0 163 55 235.5t163 72.5q51 0 79.5 -15.5t28.5 -41.5q0 -20 -14 -31.5t-33 -11.5q-20 0 -32 12.5t-17 28t-17.5 28t-31.5 12.5q-98 0 -98 -268v-358q0 -44 13.5 -56.5t65.5 -12.5q4 0 4 -6t-4 -6q-21 0 -61.5 1
t-60.5 1t-55 -1t-48 -1z" />
    <glyph glyph-name="uni018F" unicode="&#x18f;" horiz-adv-x="639" 
d="M275 636q89 0 153 -27.5t97.5 -75t48 -99t14.5 -110.5q0 -156 -92 -246t-230 -90q-112 0 -170 56t-58 119q0 12 11 12l424 2q10 47 10 111q0 145 -54.5 236.5t-158.5 91.5q-67 0 -123.5 -39.5t-80.5 -112.5q-1 -5 -9 -1q-3 1 -2 3l45 179q1 3 4 3.5t5 -1t2 -3.5
q-4 -18 3.5 -25.5t23.5 -2.5q68 20 137 20zM301 7q129 0 167 150l-326 -4q7 -66 51 -106t108 -40z" />
    <glyph glyph-name="florin" unicode="&#x192;" horiz-adv-x="346" 
d="M298 726q45 0 68.5 -12.5t22.5 -36.5q0 -16 -11 -26.5t-30 -10.5q-30 0 -45 34q-15 31 -38 31q-34 0 -51 -55.5t-31 -210.5l-5 -63q49 3 127 9q2 0 4 -3.5t2.5 -9.5t-0.5 -13q-2 -11 -6.5 -18t-8.5 -6q-64 16 -121 17l-36 -416q-13 -111 -42 -150t-116 -61q-2 0 -4 2.5
t-2 5t1 3.5q36 13 52.5 52t24.5 128l33 390q2 35 -6 43.5t-47 8.5q-1 0 -1.5 4t1 8t3.5 4q32 0 44 9.5t14 34.5q19 169 64 238.5t140 69.5z" />
    <glyph glyph-name="Ohorn" unicode="&#x1a0;" horiz-adv-x="766" 
d="M741 661q0 -69 -114 -117q90 -93 90 -225q0 -138 -103.5 -234.5t-247.5 -96.5q-141 0 -229 94t-88 230q0 78 32 141.5t83.5 102.5t112.5 59.5t124 20.5q127 0 215 -81q53 25 53 55q0 9 -10.5 23.5t-10.5 30.5q0 22 14.5 34.5t33.5 12.5q22 0 33.5 -15t11.5 -35zM400 12
q92 0 151 73.5t59 204.5q0 141 -68 230.5t-182 89.5q-97 0 -150.5 -69.5t-53.5 -192.5q0 -145 69 -240.5t175 -95.5z" />
    <glyph glyph-name="ohorn" unicode="&#x1a1;" horiz-adv-x="486" 
d="M371 361q39 -30 60 -75t21 -94q0 -91 -63.5 -148t-153.5 -57t-146 61.5t-56 149.5q0 96 67 148.5t152 52.5q59 0 104 -28q33 21 33 45q0 9 -10.5 23.5t-10.5 30.5q0 22 14.5 34.5t33.5 12.5q22 0 33.5 -15t11.5 -35q0 -62 -90 -106zM265 7q91 0 91 153q0 100 -40 159.5
t-97 59.5q-91 0 -91 -146q0 -99 39 -162.5t98 -63.5z" />
    <glyph glyph-name="Uhorn" unicode="&#x1af;" horiz-adv-x="701" 
d="M602 503v-298q0 -100 -67.5 -159.5t-177.5 -59.5q-113 0 -181.5 58.5t-68.5 160.5v339q0 43 -14 56t-62 13q-3 0 -3 6t3 6q15 0 56.5 -1.5t66.5 -1.5q27 0 68.5 1.5t55.5 1.5q3 0 3 -6t-3 -6q-47 0 -61.5 -14t-14.5 -57v-302q0 -109 49 -164t135 -55q88 0 136.5 48
t48.5 135v299q0 52 -23.5 81t-67.5 29q-2 0 -2 6t2 6q15 0 49.5 -1.5t56.5 -1.5q97 0 97 40q0 11 -11 25t-11 29q0 22 14.5 34.5t34.5 12.5q22 0 33.5 -15t11.5 -38q0 -37 -27 -59t-70 -38q-26 -10 -41 -33.5t-15 -76.5z" />
    <glyph glyph-name="uhorn" unicode="&#x1b0;" horiz-adv-x="504" 
d="M493 62q2 1 4.5 -1t3 -5t-1.5 -5l-131 -63q-2 -1 -4 -1q-10 0 -18 22.5t-9 60.5q-70 -81 -148 -81q-54 0 -84 33.5t-30 91.5v149q0 68 -31 68q-10 0 -28 -8q-2 -1 -4.5 1.5t-3 6t1.5 4.5l127 59q2 1 4 1q4 0 9 -4t5 -7v-227q0 -111 84 -111q53 0 98 45v172q0 50 -8.5 66
t-30.5 16q-14 0 -23 -2q-2 0 -3.5 3t-1 6t3.5 3q88 11 125.5 25t37.5 35q0 8 -9.5 23t-9.5 31q0 23 14.5 35t34.5 12q21 0 33 -15t12 -34q0 -56 -88 -94q-6 -2 -6 -9v-251q0 -35 7 -49t23 -14q12 0 45 12z" />
    <glyph glyph-name="uni01CD" unicode="&#x1cd;" horiz-adv-x="711" 
d="M338 687l-103 109q-1 1 0 3.5t3 3.5t3 0l109 -45l108 46q2 2 4.5 -1.5t0.5 -5.5l-102 -110q-11 -11 -23 0zM711 12q5 0 5 -6t-5 -6q-19 0 -61 2t-61 2q-23 0 -58 -2t-54 -2q-5 0 -5 6t5 6q45 0 53.5 16t-14.5 63l-108 219h-181l-77 -173q-25 -61 -2 -93t84 -32q4 0 4 -6
t-4 -6q-19 0 -55 2t-63 2q-26 0 -60.5 -2t-55.5 -2q-4 0 -4 6t4 6q41 0 66 26.5t61 108.5l215 484q2 3 9 3t8 -3l245 -494q35 -72 58.5 -98.5t50.5 -26.5zM238 335h158l-83 168z" />
    <glyph glyph-name="uni01CE" unicode="&#x1ce;" horiz-adv-x="420" 
d="M200 477l-68 249q0 2 2 3.5t5 1t4 -1.5l69 -128l68 128q1 1 4 1.5t5 -1t1 -3.5l-67 -249q-1 -5 -11 -5t-12 5zM416 54q5 2 6.5 -3.5t-2.5 -7.5l-103 -49q-4 -2 -9 -2q-14 0 -27 16t-18 43l-52 -28q-58 -30 -99 -30q-32 0 -49.5 16.5t-17.5 45.5q0 31 22 46.5t84 36.5
l109 37v80q0 118 -56 118q-54 0 -62 -79q-5 -50 -51 -50q-43 0 -43 37q0 39 68 76.5t125 37.5q45 0 72.5 -27.5t27.5 -82.5v-177q0 -63 39 -63q15 0 36 9zM231 51l30 16q-1 4 -1 15v77l-71 -26q-48 -18 -48 -50q0 -21 12 -33t31 -12q21 0 47 13z" />
    <glyph glyph-name="uni01CF" unicode="&#x1cf;" horiz-adv-x="339" 
d="M157 687l-103 109q-1 1 0 3.5t3 3.5t3 0l109 -45l108 46q2 2 4.5 -1.5t0.5 -5.5l-102 -110q-12 -11 -23 0zM218 81q0 -44 13 -56.5t62 -12.5q3 0 3 -6t-3 -6q-15 0 -56.5 1t-68.5 1q-25 0 -67 -1t-57 -1q-3 0 -3 6t3 6q49 0 63 12.5t14 56.5v463q0 43 -14.5 56t-62.5 13
q-3 0 -3 6t3 6q15 0 57 -1.5t67 -1.5q27 0 69 1.5t56 1.5q3 0 3 -6t-3 -6q-48 0 -61.5 -13.5t-13.5 -57.5v-461z" />
    <glyph glyph-name="uni01D0" unicode="&#x1d0;" horiz-adv-x="266" 
d="M56 726q0 2 2 3.5t5 1t4 -1.5l69 -128l68 128q1 1 4 1.5t5 -1t1 -3.5l-67 -249q-1 -5 -11 -5t-12 5zM44 0q-3 0 -3 6t3 6q34 0 45 14t11 55v182q0 65 -31 65q-15 0 -39 -12q-3 -1 -5 1.5t-2.5 6t1.5 4.5l144 67q2 1 3 1q4 0 8.5 -4.5t4.5 -7.5q0 -1 -1 -40t-1 -80v-183
q0 -41 11.5 -55t45.5 -14q3 0 3 -6t-3 -6q-11 0 -44 1t-54 1q-20 0 -53 -1t-44 -1z" />
    <glyph glyph-name="uni01D1" unicode="&#x1d1;" horiz-adv-x="766" 
d="M375 687l-103 109q-1 1 0 3.5t3 3.5t3 0l109 -45l108 46q2 2 4.5 -1.5t0.5 -5.5l-102 -110q-12 -11 -23 0zM366 -12q-141 0 -229 94t-88 230q0 78 32 141.5t83.5 102.5t112.5 59.5t124 20.5q142 0 229 -95t87 -222q0 -138 -103.5 -234.5t-247.5 -96.5zM400 12
q92 0 151 73.5t59 204.5q0 141 -68 230.5t-182 89.5q-97 0 -150.5 -69.5t-53.5 -192.5q0 -145 69 -240.5t175 -95.5z" />
    <glyph glyph-name="uni01D2" unicode="&#x1d2;" horiz-adv-x="486" 
d="M164 726q0 2 2 3.5t5 1t4 -1.5l69 -128l68 128q1 1 4 1.5t5 -1t1 -3.5l-67 -249q-1 -5 -11 -5t-12 5zM235 -13q-90 0 -146 61.5t-56 149.5q0 96 67 148.5t152 52.5q90 0 145 -62t55 -145q0 -91 -63.5 -148t-153.5 -57zM265 7q91 0 91 153q0 100 -40 159.5t-97 59.5
q-91 0 -91 -146q0 -99 39 -162.5t98 -63.5z" />
    <glyph glyph-name="uni01D3" unicode="&#x1d3;" horiz-adv-x="701" 
d="M361 687l-103 109q-1 1 0 3.5t3 3.5t3 0l109 -45l108 46q2 2 4.5 -1.5t0.5 -5.5l-102 -110q-12 -11 -23 0zM571 503q0 52 -23.5 81t-67.5 29q-2 0 -2 6t2 6q15 0 49.5 -1.5t56.5 -1.5q18 0 51 1.5t47 1.5q2 0 2 -6t-2 -6q-39 0 -60.5 -29t-21.5 -81v-280q0 -109 -67 -173
t-178 -64q-112 0 -181 63.5t-69 172.5v322q0 43 -14 56t-62 13q-3 0 -3 6t3 6q15 0 56.5 -1.5t66.5 -1.5q27 0 68.5 1.5t55.5 1.5q3 0 3 -6t-3 -6q-47 0 -61.5 -14t-14.5 -57v-285q0 -119 49.5 -177.5t138.5 -58.5q85 0 133 52.5t48 148.5v281z" />
    <glyph glyph-name="uni01D4" unicode="&#x1d4;" horiz-adv-x="501" 
d="M239 477l-68 249q0 2 2 3.5t5 1t4 -1.5l69 -128l68 128q1 1 4 1.5t5 -1t1 -3.5l-67 -249q-2 -5 -11.5 -5t-11.5 5zM493 62q2 1 4.5 -1t3 -5t-1.5 -5l-131 -63q-2 -1 -4 -1q-10 0 -18 22.5t-9 60.5q-70 -81 -148 -81q-54 0 -84 33.5t-30 91.5v149q0 68 -31 68
q-10 0 -28 -8q-2 -1 -4.5 1.5t-3 6t1.5 4.5l127 59q2 1 4 1q4 0 9 -4t5 -7v-227q0 -111 84 -111q53 0 98 45v172q0 68 -31 68q-9 0 -28 -8q-2 -1 -4.5 2t-2.5 6t2 4l126 59q2 1 5 1q4 0 9 -4t5 -7v-271q0 -35 7 -49t23 -14q12 0 45 12z" />
    <glyph glyph-name="uni01D5" unicode="&#x1d5;" horiz-adv-x="701" 
d="M249 841q-8 0 -8 17.5t8 17.5h245q9 0 9 -17.5t-9 -17.5h-245zM287 696q-24 0 -37.5 13.5t-13.5 37.5q0 22 13.5 34.5t37.5 12.5q22 0 35 -12.5t13 -34.5q0 -24 -12.5 -37.5t-35.5 -13.5zM461 696q-23 0 -36.5 13.5t-13.5 37.5q0 22 13.5 34.5t36.5 12.5t36 -12.5
t13 -34.5q0 -24 -13 -37.5t-36 -13.5zM571 503q0 52 -23.5 81t-67.5 29q-2 0 -2 6t2 6q15 0 49.5 -1.5t56.5 -1.5q18 0 51 1.5t47 1.5q2 0 2 -6t-2 -6q-39 0 -60.5 -29t-21.5 -81v-280q0 -109 -67 -173t-178 -64q-112 0 -181 63.5t-69 172.5v322q0 43 -14 56t-62 13
q-3 0 -3 6t3 6q15 0 56.5 -1.5t66.5 -1.5q27 0 68.5 1.5t55.5 1.5q3 0 3 -6t-3 -6q-47 0 -61.5 -14t-14.5 -57v-285q0 -119 49.5 -177.5t138.5 -58.5q85 0 133 52.5t48 148.5v281z" />
    <glyph glyph-name="uni01D6" unicode="&#x1d6;" horiz-adv-x="501" 
d="M127 602q-8 0 -8 17.5t8 17.5h245q9 0 9 -17.5t-9 -17.5h-245zM165 457q-24 0 -37.5 13.5t-13.5 37.5q0 22 13.5 34.5t37.5 12.5q22 0 35 -12.5t13 -34.5q0 -24 -12.5 -37.5t-35.5 -13.5zM339 555q23 0 36 -12.5t13 -34.5q0 -24 -13 -37.5t-36 -13.5t-36.5 13.5
t-13.5 37.5q0 22 13.5 34.5t36.5 12.5zM493 62q2 1 4.5 -1t3 -5t-1.5 -5l-131 -63q-2 -1 -4 -1q-10 0 -18 22.5t-9 60.5q-70 -81 -148 -81q-54 0 -84 33.5t-30 91.5v149q0 68 -31 68q-10 0 -28 -8q-2 -1 -4.5 1.5t-3 6t1.5 4.5l127 59q2 1 4 1q4 0 9 -4t5 -7v-227
q0 -111 84 -111q53 0 98 45v172q0 68 -31 68q-9 0 -28 -8q-2 -1 -4.5 2t-2.5 6t2 4l126 59q2 1 5 1q4 0 9 -4t5 -7v-271q0 -35 7 -49t23 -14q12 0 45 12z" />
    <glyph glyph-name="uni01D7" unicode="&#x1d7;" horiz-adv-x="701" 
d="M246 820q-4 -1 -6 4t1 7l60 31.5l65 37.5l52 31q10 7 64 -15q30 -13 28 -18q0 -1 -3 -2q-143 -30 -261 -76zM287 696q-24 0 -37.5 13.5t-13.5 37.5q0 22 13.5 34.5t37.5 12.5q22 0 35 -12.5t13 -34.5q0 -24 -12.5 -37.5t-35.5 -13.5zM461 696q-23 0 -36.5 13.5
t-13.5 37.5q0 22 13.5 34.5t36.5 12.5t36 -12.5t13 -34.5q0 -24 -13 -37.5t-36 -13.5zM571 503q0 52 -23.5 81t-67.5 29q-2 0 -2 6t2 6q15 0 49.5 -1.5t56.5 -1.5q18 0 51 1.5t47 1.5q2 0 2 -6t-2 -6q-39 0 -60.5 -29t-21.5 -81v-280q0 -109 -67 -173t-178 -64
q-112 0 -181 63.5t-69 172.5v322q0 43 -14 56t-62 13q-3 0 -3 6t3 6q15 0 56.5 -1.5t66.5 -1.5q27 0 68.5 1.5t55.5 1.5q3 0 3 -6t-3 -6q-47 0 -61.5 -14t-14.5 -57v-285q0 -119 49.5 -177.5t138.5 -58.5q85 0 133 52.5t48 148.5v281z" />
    <glyph glyph-name="uni01D8" unicode="&#x1d8;" horiz-adv-x="501" 
d="M124 581q-4 -1 -6 4t1 7l60 31.5l65 37.5l52 31q10 7 64 -15q30 -13 28 -18q0 -1 -3 -2q-143 -30 -261 -76zM165 457q-24 0 -37.5 13.5t-13.5 37.5q0 22 13.5 34.5t37.5 12.5q22 0 35 -12.5t13 -34.5q0 -24 -12.5 -37.5t-35.5 -13.5zM339 555q23 0 36 -12.5t13 -34.5
q0 -24 -13 -37.5t-36 -13.5t-36.5 13.5t-13.5 37.5q0 22 13.5 34.5t36.5 12.5zM493 62q2 1 4.5 -1t3 -5t-1.5 -5l-131 -63q-2 -1 -4 -1q-10 0 -18 22.5t-9 60.5q-70 -81 -148 -81q-54 0 -84 33.5t-30 91.5v149q0 68 -31 68q-10 0 -28 -8q-2 -1 -4.5 1.5t-3 6t1.5 4.5l127 59
q2 1 4 1q4 0 9 -4t5 -7v-227q0 -111 84 -111q53 0 98 45v172q0 68 -31 68q-9 0 -28 -8q-2 -1 -4.5 2t-2.5 6t2 4l126 59q2 1 5 1q4 0 9 -4t5 -7v-271q0 -35 7 -49t23 -14q12 0 45 12z" />
    <glyph glyph-name="uni01D9" unicode="&#x1d9;" horiz-adv-x="701" 
d="M365 814l-114 109q-1 1 0 3t3 3t3 1l120 -53l118 54q3 1 5 -1.5t0 -5.5l-113 -110q-11 -11 -22 0zM287 696q-24 0 -37.5 13.5t-13.5 37.5q0 22 13.5 34.5t37.5 12.5q22 0 35 -12.5t13 -34.5q0 -24 -12.5 -37.5t-35.5 -13.5zM461 696q-23 0 -36.5 13.5t-13.5 37.5
q0 22 13.5 34.5t36.5 12.5t36 -12.5t13 -34.5q0 -24 -13 -37.5t-36 -13.5zM571 503q0 52 -23.5 81t-67.5 29q-2 0 -2 6t2 6q15 0 49.5 -1.5t56.5 -1.5q18 0 51 1.5t47 1.5q2 0 2 -6t-2 -6q-39 0 -60.5 -29t-21.5 -81v-280q0 -109 -67 -173t-178 -64q-112 0 -181 63.5
t-69 172.5v322q0 43 -14 56t-62 13q-3 0 -3 6t3 6q15 0 56.5 -1.5t66.5 -1.5q27 0 68.5 1.5t55.5 1.5q3 0 3 -6t-3 -6q-47 0 -61.5 -14t-14.5 -57v-285q0 -119 49.5 -177.5t138.5 -58.5q85 0 133 52.5t48 148.5v281z" />
    <glyph glyph-name="uni01DA" unicode="&#x1da;" horiz-adv-x="501" 
d="M129 684q-1 1 0 3t3 3t3 1l120 -53l118 54q3 1 5 -1.5t0 -5.5l-113 -110q-11 -11 -22 0zM165 457q-24 0 -37.5 13.5t-13.5 37.5q0 22 13.5 34.5t37.5 12.5q22 0 35 -12.5t13 -34.5q0 -24 -12.5 -37.5t-35.5 -13.5zM339 555q23 0 36 -12.5t13 -34.5q0 -24 -13 -37.5
t-36 -13.5t-36.5 13.5t-13.5 37.5q0 22 13.5 34.5t36.5 12.5zM493 62q2 1 4.5 -1t3 -5t-1.5 -5l-131 -63q-2 -1 -4 -1q-10 0 -18 22.5t-9 60.5q-70 -81 -148 -81q-54 0 -84 33.5t-30 91.5v149q0 68 -31 68q-10 0 -28 -8q-2 -1 -4.5 1.5t-3 6t1.5 4.5l127 59q2 1 4 1
q4 0 9 -4t5 -7v-227q0 -111 84 -111q53 0 98 45v172q0 68 -31 68q-9 0 -28 -8q-2 -1 -4.5 2t-2.5 6t2 4l126 59q2 1 5 1q4 0 9 -4t5 -7v-271q0 -35 7 -49t23 -14q12 0 45 12z" />
    <glyph glyph-name="uni01DB" unicode="&#x1db;" horiz-adv-x="701" 
d="M514 820q-117 46 -261 76q-11 3 15 15q48 23 71 21q3 0 4 -1q18 -10 52.5 -31l64 -37.5t59.5 -31.5q2 -1 2 -4t-2 -5.5t-5 -1.5zM300 696q-23 0 -36 13.5t-13 37.5q0 22 13 34.5t36 12.5t36 -12.5t13 -34.5q0 -24 -13 -37.5t-36 -13.5zM474 696q-23 0 -36 13.5t-13 37.5
q0 22 13 34.5t36 12.5q24 0 37.5 -12.5t13.5 -34.5q0 -24 -13.5 -37.5t-37.5 -13.5zM571 503q0 52 -23.5 81t-67.5 29q-2 0 -2 6t2 6q15 0 49.5 -1.5t56.5 -1.5q18 0 51 1.5t47 1.5q2 0 2 -6t-2 -6q-39 0 -60.5 -29t-21.5 -81v-280q0 -109 -67 -173t-178 -64
q-112 0 -181 63.5t-69 172.5v322q0 43 -14 56t-62 13q-3 0 -3 6t3 6q15 0 56.5 -1.5t66.5 -1.5q27 0 68.5 1.5t55.5 1.5q3 0 3 -6t-3 -6q-47 0 -61.5 -14t-14.5 -57v-285q0 -119 49.5 -177.5t138.5 -58.5q85 0 133 52.5t48 148.5v281z" />
    <glyph glyph-name="uni01DC" unicode="&#x1dc;" horiz-adv-x="501" 
d="M131 657q-11 3 15 15q48 23 71 21q3 0 4 -1q18 -10 52.5 -31l64 -37.5t59.5 -31.5q2 -1 2 -4t-2 -5.5t-5 -1.5q-117 46 -261 76zM129 508q0 22 13 34.5t36 12.5t36 -12.5t13 -34.5q0 -24 -13 -37.5t-36 -13.5t-36 13.5t-13 37.5zM352 555q24 0 37.5 -12.5t13.5 -34.5
q0 -24 -13.5 -37.5t-37.5 -13.5q-23 0 -36 13.5t-13 37.5q0 22 13 34.5t36 12.5zM493 62q2 1 4.5 -1t3 -5t-1.5 -5l-131 -63q-2 -1 -4 -1q-10 0 -18 22.5t-9 60.5q-70 -81 -148 -81q-54 0 -84 33.5t-30 91.5v149q0 68 -31 68q-10 0 -28 -8q-2 -1 -4.5 1.5t-3 6t1.5 4.5
l127 59q2 1 4 1q4 0 9 -4t5 -7v-227q0 -111 84 -111q53 0 98 45v172q0 68 -31 68q-9 0 -28 -8q-2 -1 -4.5 2t-2.5 6t2 4l126 59q2 1 5 1q4 0 9 -4t5 -7v-271q0 -35 7 -49t23 -14q12 0 45 12z" />
    <glyph glyph-name="uni01E2" unicode="&#x1e2;" horiz-adv-x="883" 
d="M453 716q-8 0 -8 17t8 17h251q9 0 9 -17t-9 -17h-251zM826 156q0 2 3 2t5.5 -1.5t2.5 -2.5q-9 -86 -9 -139q0 -15 -15 -15h-428q-2 0 -2 6t2 6q49 0 63 12.5t14 56.5v231h-158l-116 -178q-37 -58 -24.5 -90t72.5 -32q4 0 4 -6t-4 -6q-21 0 -62.5 2t-72.5 2q-24 0 -55 -2
t-50 -2q-4 0 -4 6t4 6q38 0 74 28.5t78 91.5l293 442q19 27 8 33t-72 6q-3 0 -3 6t3 6h418q10 0 10 -9l2 -130q0 -2 -5.5 -3t-6.5 2q-7 41 -45 77.5t-86 36.5h-46q-36 0 -50.5 -12.5t-14.5 -43.5v-205h93q109 0 109 74q0 3 6 3t6 -3q0 -24 -0.5 -50t-0.5 -37q0 -16 1 -48
t1 -51q0 -2 -5.5 -2t-5.5 2q0 86 -113 86h-91v-227q0 -33 12.5 -46t44.5 -13h53q53 0 100.5 38t62.5 92zM321 338h141v217z" />
    <glyph glyph-name="uni01E3" unicode="&#x1e3;" horiz-adv-x="589" 
d="M186 477q-8 0 -8 17t8 17h251q9 0 9 -17t-9 -17h-251zM565 62q4 4 7 -4q1 -3 0 -5q-68 -65 -152 -65q-103 0 -147 70l-68 -36q-56 -29 -98 -29q-32 0 -50.5 16.5t-18.5 45.5q0 31 22 46t85 37l97 32q-4 121 -14 163t-47 42q-52 0 -55 -84q0 -45 -45 -45q-47 0 -47 40
q0 34 57.5 71.5t111.5 37.5q72 0 101 -59q61 59 147 59q56 0 86 -27.5t30 -78.5q0 -20 -14 -20h-70l-149 -2q-4 -21 -4 -52q2 -185 129 -185q65 0 106 32zM418 375q-62 0 -81 -90l135 4q-2 86 -54 86zM225 50l40 20q-18 37 -22 84l-61 -22q-43 -17 -43 -49q0 -20 12 -32
t32 -12q19 0 42 11z" />
    <glyph glyph-name="Gcaron" unicode="&#x1e6;" horiz-adv-x="717" 
d="M382 687l-103 109q-1 1 0 3.5t3 3.5t3 0l109 -45l108 46q2 2 4.5 -1.5t0.5 -5.5l-102 -110q-11 -11 -23 0zM408 -12q-166 0 -262.5 90.5t-96.5 227.5q0 146 108 238t272 92q107 0 170 -30q13 -5 14 -23l12 -130q0 -3 -5 -4t-7 3q-30 75 -90 117t-141 42
q-110 0 -169 -71.5t-59 -196.5q0 -149 78.5 -243.5t199.5 -94.5q65 0 90 23.5t25 97.5q0 73 -16.5 90t-87.5 17q-4 0 -5.5 4t0 8t4.5 4q118 -8 237 -2q5 0 5 -7t-5 -7q-28 1 -34.5 -18t-6.5 -99q0 -40 3.5 -63t3.5 -25q0 -8 -12 -12q-126 -28 -225 -28z" />
    <glyph glyph-name="gcaron" unicode="&#x1e7;" horiz-adv-x="445" 
d="M207 477l-68 249q0 2 2 3.5t5 1t4 -1.5l69 -128l68 128q1 1 4 1.5t5 -1t1 -3.5l-67 -249q-2 -5 -11.5 -5t-11.5 5zM245 40q99 -16 132 -33q54 -29 54 -88q0 -78 -75 -139.5t-177 -61.5q-73 0 -119 32.5t-46 84.5q0 76 108 151q-65 19 -65 71q0 56 76 101q-41 15 -64 45.5
t-23 66.5q0 56 51 89.5t115 33.5q66 0 108 -32q54 34 109 34q7 0 7 -26q0 -31 -8 -40q-2 -2 -3 -1q-42 16 -72 16q-9 0 -14 -1q27 -30 27 -70q0 -54 -50 -89.5t-116 -35.5q-28 0 -51 6q-26 -20 -26 -48q0 -17 9 -28.5t30 -18.5t36 -10.5t47 -8.5zM182 375q-51 0 -51 -80
q0 -54 27 -92t67 -38q23 0 39 21t16 65q0 53 -29 88.5t-69 35.5zM228 -251q59 0 94.5 33t35.5 85q0 24 -10.5 41.5t-23 27.5t-39 17.5t-42.5 10.5t-49 7q-48 8 -50 9q-44 -40 -44 -102q0 -61 35 -95t93 -34z" />
    </font>
</defs>
</svg>
